<?xml version="1.0" encoding="utf-8"?>
<!-- Generator: Adobe Illustrator 21.0.2, SVG Export Plug-In . SVG Version: 6.00 Build 0)  -->
<svg version="1.1" id="Ebene_1" xmlns="http://www.w3.org/2000/svg" xmlns:xlink="http://www.w3.org/1999/xlink" x="0px" y="0px"
	 viewBox="0 0 244 29" style="enable-background:new 0 0 244 29;" xml:space="preserve">
<style type="text/css">
	.st0{fill:#42BDE2;}
</style>
<path class="st0" d="M10.4,9.6L15,0.3l4.6,9.3L30,11.1l-7.5,7.4l1.8,10.3L15,23.9l-9.3,4.9l1.8-10.3L0,11.1L10.4,9.6z M63.9,9.6
	l4.6-9.3l4.6,9.3l10.4,1.5L76,18.5l1.8,10.3l-9.3-4.9l-9.3,4.9L61,18.5l-7.5-7.4L63.9,9.6z M122,4.8l2.8,5.8l0.5,0.9l1,0.2l6.4,0.9
	l-4.6,4.5l-0.8,0.7l0.2,1l1.1,6.3l-5.7-3l-0.9-0.5l-0.9,0.5l-5.7,3l1.1-6.3l0.2-1l-0.8-0.7l-4.6-4.5l6.4-0.9l1-0.2l0.5-0.9L122,4.8
	 M122,0.3l-4.6,9.4L107,11.1l7.5,7.3l-1.8,10.3l9.3-4.9l9.3,4.9l-1.8-10.3l7.5-7.3l-10.4-1.5C126.6,9.6,122,0.3,122,0.3z M175.5,4.8
	l2.8,5.8l0.5,0.9l1,0.2l6.4,0.9l-4.6,4.5l-0.8,0.7l0.2,1l1.1,6.3l-5.7-3l-0.9-0.5l-0.9,0.5l-5.7,3l1.1-6.3l0.2-1l-0.8-0.7l-4.6-4.5
	l6.4-0.9l1-0.2l0.5-0.9L175.5,4.8 M175.5,0.3l-4.6,9.4l-10.4,1.5l7.5,7.3l-1.8,10.3l9.3-4.9l9.3,4.9L183,18.5l7.5-7.3l-10.4-1.5
	L175.5,0.3z M229,4.8l2.8,5.8l0.5,0.9l1,0.2l6.4,0.9l-4.6,4.5l-0.8,0.7l0.2,1l1.1,6.3l-5.7-3l-0.9-0.5l-0.9,0.5l-5.7,3l1.1-6.3
	l0.2-1l-0.8-0.7l-4.6-4.5l6.4-0.9l1-0.2l0.5-0.9L229,4.8 M229,0.3l-4.6,9.4L214,11.1l7.5,7.3l-1.8,10.3l9.3-4.9l9.3,4.9l-1.8-10.3
	l7.5-7.3l-10.4-1.5C233.6,9.6,229,0.3,229,0.3z"/>
</svg>
