<?xml version="1.0" encoding="utf-8"?>
<!-- Generator: Adobe Illustrator 21.0.2, SVG Export Plug-In . SVG Version: 6.00 Build 0)  -->
<svg version="1.1" id="Ebene_1" xmlns="http://www.w3.org/2000/svg" xmlns:xlink="http://www.w3.org/1999/xlink" x="0px" y="0px"
	 viewBox="0 0 53 53.7" style="enable-background:new 0 0 53 53.7;" xml:space="preserve">
<style type="text/css">
	.st0{display:none;}
	.st1{display:inline;fill:none;stroke:#42BDE2;stroke-width:3;stroke-linejoin:round;stroke-miterlimit:10;}
	.st2{display:inline;}
	.st3{fill:none;stroke:#42BDE2;stroke-width:3;stroke-linejoin:round;stroke-miterlimit:10;}
	.st4{fill:none;stroke:#42BDE2;stroke-width:3;stroke-linecap:square;stroke-linejoin:round;stroke-miterlimit:10;}
	.st5{display:none;fill:none;stroke:#42BDE2;stroke-width:3;stroke-linejoin:round;stroke-miterlimit:10;}
	.st6{display:inline;fill:#42BDE2;}
	.st7{font-family:'Montserrat-Regular';}
	.st8{font-size:21px;}
	.st9{fill:none;stroke:#42BDE2;stroke-width:3;stroke-linecap:round;stroke-linejoin:round;}
	.st10{fill:#42BDE2;}
	.st11{fill:none;stroke:#42BDE2;stroke-width:3;stroke-linecap:round;stroke-linejoin:round;stroke-miterlimit:10;}
</style>
<g class="st0">
	<rect x="1.5" y="1.8" class="st1" width="50" height="50"/>
	<path class="st1" d="M17,36.3v-19c5.5-0.7,10.3-0.2,10.3,5c0,5.1-6.6,6.5-10.3,4.5"/>
	<path class="st1" d="M37.7,23.7c-1.8-1.7-6.9-2-6.9,2.3s6.9,2.1,6.9,6.9s-5.5,3.7-6.9,2.3"/>
</g>
<g class="st0">
	<g class="st2">
		<g>
			<rect x="1.5" y="1.8" class="st3" width="50" height="50"/>
			<polyline class="st3" points="17,36.3 23,15.6 29.1,36.3 			"/>
			<line class="st3" x1="19.6" y1="29.4" x2="26.5" y2="29.4"/>
			<line class="st3" x1="36" y1="36.3" x2="36" y2="20.8"/>
		</g>
	</g>
	<circle class="st1" cx="36" cy="17.4" r="0.9"/>
</g>
<g class="st0">
	<g class="st2">
		<rect x="1.5" y="1.8" class="st3" width="50" height="50"/>
	</g>
	<g class="st2">
		<line class="st3" x1="18.2" y1="14.2" x2="18.2" y2="39.5"/>
		<g>
			<line class="st3" x1="34.7" y1="14.5" x2="34.7" y2="38.6"/>
			<path class="st4" d="M34.7,38.6c-3.7,0-7.5-3.2-7.5-7.2s3.9-7.2,7.5-7.2"/>
		</g>
	</g>
</g>
<path class="st5" d="M26.5,1.8c-13.8,0-25,11.2-25,25s11.2,25,25,25s25-11.2,25-25H26.4"/>
<g class="st0">
	<g class="st2">
		<path class="st3" d="M41.7,14.7c0.8-4.3,0.4-7.5-1.6-8.8c-0.7-0.4-1.5-0.6-2.3-0.6C33,5.5,25.2,12.1,18.8,21.9
			c-7.5,11.6-10.2,23.2-6,26c2,1.3,5.2,0.4,8.8-2.2"/>
		<path class="st3" d="M45.6,33.6c3.6-1.4,5.8-3.3,5.9-5.5c0.3-5-10.7-9.7-24.5-10.4c-1.3-0.1-2.6-0.1-3.8-0.1
			c-12,0-21.4,3.3-21.7,7.9c-0.1,2.2,1.9,4.3,5.3,6"/>
		<path class="st3" d="M23.1,7.1c-2.4-2-4.7-3.1-6.6-3c-0.5,0-0.9,0.2-1.4,0.4c-4.5,2.3-3.1,14.1,3.2,26.5s15,20.4,19.5,18.2
			c4.3-2.2,3.2-13.2-2.5-25"/>
	</g>
	<path class="st6" d="M29.6,27.2c0,1.6-1.3,3-3,3s-3-1.3-3-3l0,0c0-1.6,1.3-3,3-3S29.6,25.6,29.6,27.2z"/>
</g>
<g class="st0">
	<path class="st1" d="M48.5,48.8h-44c-1.6,0-3-1.3-3-3V7.9c0-1.7,1.4-3,3-3h44c1.7,0,3,1.3,3,3v37.9C51.5,47.5,50.1,48.8,48.5,48.8z
		"/>
	<rect x="18.9" y="12.1" class="st6" width="6.7" height="12.1"/>
	<text transform="matrix(1 0 0 1 5.5311 24.9692)" class="st6 st7 st8">$</text>
</g>
<g class="st0">
	<g id="Mark" transform="translate(0.000000, 35.000000)" class="st2">
		<path id="Board" class="st3" d="M7.7-33.2h37.5c3.5,0,6.2,2.8,6.2,6.2v37.5c0,3.5-2.8,6.3-6.2,6.3H7.7c-3.5,0-6.2-2.8-6.2-6.3
			v-37.5C1.5-30.4,4.3-33.2,7.7-33.2z"/>
		<path id="Right-List" class="st3" d="M32.7-26.7H42c1.7,0,3,1.3,3,3v15.9c0,1.7-1.3,3-3,3h-9.2c-1.7,0-3-1.3-3-3v-15.9
			C29.7-25.3,31.1-26.7,32.7-26.7z"/>
		<path id="Left-List" class="st3" d="M11-26.7h9.2c1.7,0,3,1.3,3,3V4.7c0,1.7-1.3,3-3,3H11c-1.7,0-3-1.3-3-3v-28.4
			C8-25.3,9.3-26.7,11-26.7z"/>
	</g>
	<path class="st1" d="M20.5,42.8h-9.7c-1.6,0-2.9-1.3-2.9-2.9V11.1c0-1.6,1.3-2.9,2.9-2.9h9.7c1.6,0,2.9,1.3,2.9,2.9V40
		C23.4,41.6,22.1,42.8,20.5,42.8z"/>
	<path class="st1" d="M42.2,30.2h-9.7c-1.6,0-2.9-1.3-2.9-2.9V11.1c0-1.6,1.3-2.9,2.9-2.9h9.7c1.6,0,2.9,1.3,2.9,2.9v16.2
		C45.1,28.9,43.8,30.2,42.2,30.2z"/>
</g>
<g>
	<g>
		<g>
			<g>
				<line class="st9" x1="26.5" y1="14.3" x2="26.5" y2="36.1"/>
				<g>
					<polygon class="st10" points="14.2,26.2 16.4,24.1 26.5,34.9 36.6,24.1 38.8,26.2 26.5,39.3 					"/>
				</g>
			</g>
		</g>
	</g>
	<rect x="1.5" y="3.2" class="st11" width="50" height="47.3"/>
</g>
</svg>
