<svg xmlns="http://www.w3.org/2000/svg" id="Ebene_1" viewBox="0 0 244 29"><style>.st0{fill:#42BDE2;}</style><path d="M10.4 9.6L15 .3l4.6 9.3L30 11.1l-7.5 7.4 1.8 10.3-9.3-4.9-9.3 4.9 1.8-10.3L0 11.1zM63.9 9.6L68.5.3l4.6 9.3 10.4 1.5-7.5 7.4 1.8 10.3-9.3-4.9-9.3 4.9L61 18.5l-7.5-7.4zM117.4 9.6L122 .3l4.6 9.3 10.4 1.5-7.5 7.4 1.8 10.3-9.3-4.9-9.3 4.9 1.8-10.3-7.5-7.4zM170.9 9.6l4.6-9.3 4.6 9.3 10.4 1.5-7.5 7.4 1.8 10.3-9.3-4.9-9.3 4.9 1.8-10.3-7.5-7.4zM224.4 9.6L229 .3l4.6 9.3 10.4 1.5-7.5 7.4 1.8 10.3-9.3-4.9-9.3 4.9 1.8-10.3-7.5-7.4z" class="st0"/></svg>