<svg xmlns="http://www.w3.org/2000/svg" id="Ebene_1" viewBox="0 0 244 29"><style>.st0{fill:#42BDE2;}</style><path d="M10.4 9.6L15 .3l4.6 9.3L30 11.1l-7.5 7.4 1.8 10.3-9.3-4.9-9.3 4.9 1.8-10.3L0 11.1zM63.9 9.6L68.5.3l4.6 9.3 10.4 1.5-7.5 7.4 1.8 10.3-9.3-4.9-9.3 4.9L61 18.5l-7.5-7.4zM122 4.8l2.8 5.8.5.9 1 .2 6.4.9-4.6 4.5-.8.7.2 1 1.1 6.3-5.7-3-.9-.5-.9.5-5.7 3 1.1-6.3.2-1-.8-.7-4.6-4.5 6.4-.9 1-.2.5-.9 2.8-5.8m0-4.5l-4.6 9.4-10.4 1.4 7.5 7.3-1.8 10.3 9.3-4.9 9.3 4.9-1.8-10.3 7.5-7.3-10.4-1.5L122 .3zM175.5 4.8l2.8 5.8.5.9 1 .2 6.4.9-4.6 4.5-.8.7.2 1 1.1 6.3-5.7-3-.9-.5-.9.5-5.7 3 1.1-6.3.2-1-.8-.7-4.6-4.5 6.4-.9 1-.2.5-.9 2.8-5.8m0-4.5l-4.6 9.4-10.4 1.5 7.5 7.3-1.8 10.3 9.3-4.9 9.3 4.9-1.8-10.3 7.5-7.3-10.4-1.5-4.6-9.4zM229 4.8l2.8 5.8.5.9 1 .2 6.4.9-4.6 4.5-.8.7.2 1 1.1 6.3-5.7-3-.9-.5-.9.5-5.7 3 1.1-6.3.2-1-.8-.7-4.6-4.5 6.4-.9 1-.2.5-.9 2.8-5.8m0-4.5l-4.6 9.4-10.4 1.4 7.5 7.3-1.8 10.3 9.3-4.9 9.3 4.9-1.8-10.3 7.5-7.3-10.4-1.5L229 .3z" class="st0"/></svg>