<?xml version="1.0" encoding="utf-8"?>
<!-- Generator: Adobe Illustrator 21.0.0, SVG Export Plug-In . SVG Version: 6.00 Build 0)  -->
<svg version="1.1" id="Layer_1" xmlns="http://www.w3.org/2000/svg" xmlns:xlink="http://www.w3.org/1999/xlink" x="0px" y="0px"
	 viewBox="0 0 1250 1250" style="enable-background:new 0 0 1250 1250;" xml:space="preserve">
<style type="text/css">
	.st0{fill:#FFFFFF;}
</style>
<path class="st0" d="M1097.7,460.6c11.3,0,20.6-9.2,20.6-20.6V316.7c0-11.3-9.2-20.6-20.6-20.6H953.8V152.3
	c0-11.3-9.2-20.6-20.6-20.6H810c-11.3,0-20.6,9.2-20.6,20.6v143.9H316.7c-5.5,0-10.7,2.2-14.6,6L178.9,425.5
	c-5.9,5.9-7.6,14.7-4.4,22.4c3.2,7.7,10.7,12.7,19,12.7H214V586c-46.8,9.5-82.2,51.1-82.2,100.7c0,56.6,46.1,102.8,102.8,102.8
	s102.8-46.1,102.8-102.8c0-49.6-35.4-91.1-82.2-100.7V460.6h534.3v123.3c0,0,0,0.1,0,0.1v143.7c0,0,0,0.1,0,0.1v143.7
	c0,0,0,0.1,0,0.1V995H686.7c-7.8,0-14.9,4.4-18.4,11.3l-41.1,82.2c-3.2,6.3-2.8,13.9,0.9,20c3.7,6,10.4,9.7,17.5,9.7h452.1
	c7.1,0,13.7-3.7,17.5-9.7s4.1-13.6,0.9-20l-41.1-82.2c-3.5-6.9-10.6-11.3-18.4-11.3H953.8V460.6H1097.7z M296.2,686.7
	c0,34-27.7,61.7-61.7,61.7s-61.7-27.7-61.7-61.7s27.7-61.7,61.7-61.7S296.2,652.7,296.2,686.7z M674.6,419.5l-82.2-82.2h85.7
	l82.2,82.2H674.6z M530.7,419.5l-82.2-82.2h85.7l82.2,82.2H530.7z M830.5,592.4l82.2-82.2v85.7l-82.2,82.2V592.4z M830.5,736.3
	l82.2-82.2v85.7L830.5,822V736.3z M830.5,880.1l82.2-82.2v85.7l-82.2,82.2V880.1z M912.7,941.8v53.1h-53.1L912.7,941.8z
	 M830.5,534.3v-73.7h73.7L830.5,534.3z M953.8,345.8l73.7,73.7h-73.7V345.8z M1077.1,411l-73.7-73.7h73.7V411z M830.5,172.9h82.2
	v246.6h-82.2V172.9z M789.4,390.5l-53.2-53.2h53.2V390.5z M325.2,337.3h65.1l82.2,82.2h-85.7l-71.9-71.9L325.2,337.3z M285.9,376.7
	l42.8,42.8H243L285.9,376.7z M1064.4,1077.1H678.8l20.6-41.1H810h123.3h110.6L1064.4,1077.1z"/>
</svg>
