<?xml version="1.0" encoding="utf-8"?>
<!-- Generator: Adobe Illustrator 21.0.0, SVG Export Plug-In . SVG Version: 6.00 Build 0)  -->
<svg version="1.1" id="Ebene_1" xmlns="http://www.w3.org/2000/svg" xmlns:xlink="http://www.w3.org/1999/xlink" x="0px" y="0px"
	 viewBox="0 0 500 500" style="enable-background:new 0 0 500 500;" xml:space="preserve">
<style type="text/css">
	.st0{fill:#565656;}
	.st1{fill:#E6027D;}
	.st2{fill:#4DB0E1;}
	.st3{fill:#E5007D;}
</style>
<g>
	<g>
		<path class="st0" d="M147.4,214.5V186h7.8v21.6H168v6.8H147.4z"/>
		<path class="st0" d="M178.1,186h7.1l9.8,28.4h-7.9l-1.7-5.6h-7.6l-1.7,5.6h-8L178.1,186z M184.2,203.7l-2.5-8.8l-2.6,8.8H184.2z"
			/>
		<path class="st0" d="M205.3,200.5v14h-7.8V186h6.1l11.4,14.5V186h7.8v28.4h-6.2L205.3,200.5z"/>
		<path class="st0" d="M227.6,214.5V186h10.9c2.3,0,4.4,0.4,6.2,1.1c1.8,0.7,3.3,1.8,4.5,3c1.2,1.3,2.1,2.8,2.7,4.5
			c0.6,1.7,0.9,3.6,0.9,5.5c0,2.2-0.3,4.1-1,5.9c-0.7,1.7-1.6,3.2-2.9,4.5c-1.3,1.2-2.8,2.2-4.5,2.9c-1.8,0.7-3.7,1-5.9,1H227.6z
			 M245,200.2c0-1.1-0.1-2.1-0.4-3c-0.3-0.9-0.7-1.7-1.3-2.3c-0.5-0.6-1.2-1.1-2-1.5c-0.8-0.4-1.7-0.5-2.7-0.5h-3.1v14.8h3.1
			c1,0,1.9-0.2,2.7-0.6c0.8-0.4,1.5-0.9,2-1.6c0.5-0.7,1-1.5,1.2-2.4C244.8,202.3,245,201.3,245,200.2z"/>
		<path class="st0" d="M278.1,192.8h-8.2v21.6h-7.8v-21.6h-8.2V186h24.2V192.8z"/>
		<path class="st0" d="M285.7,186h7.1l9.8,28.4h-7.9l-1.7-5.6h-7.6l-1.7,5.6h-8L285.7,186z M291.8,203.7l-2.5-8.8l-2.6,8.8H291.8z"
			/>
		<path class="st0" d="M323.2,212.1c-2,1.7-4.4,2.6-7,2.6c-1.8,0-3.6-0.3-5.3-1c-1.7-0.7-3.1-1.6-4.4-2.9c-1.3-1.3-2.3-2.8-3-4.6
			c-0.7-1.8-1.1-3.9-1.1-6.2c0-2,0.4-3.9,1.1-5.6s1.8-3.2,3.1-4.5c1.3-1.3,2.8-2.3,4.6-3c1.8-0.7,3.7-1.1,5.7-1.1
			c1.3,0,2.5,0.1,3.7,0.4c1.2,0.3,2.3,0.7,3.3,1.2c1,0.5,1.9,1.2,2.7,2c0.8,0.8,1.5,1.6,2,2.6l-5.8,4.4c-0.6-1.1-1.4-2-2.5-2.7
			c-1.1-0.7-2.3-1-3.6-1c-0.9,0-1.8,0.2-2.6,0.6c-0.8,0.4-1.4,0.9-2,1.6c-0.6,0.7-1,1.5-1.3,2.4c-0.3,0.9-0.5,1.9-0.5,3
			c0,1.1,0.2,2.1,0.5,3c0.3,0.9,0.8,1.7,1.3,2.3c0.6,0.7,1.3,1.2,2.1,1.5c0.8,0.4,1.7,0.5,2.7,0.5c2.3,0,4.3-0.9,6-2.8h-4.9v-5.6
			h11.7v15.1h-6.4V212.1z"/>
		<path class="st0" d="M350.7,195.3c-0.8-0.5-1.6-0.9-2.5-1.3c-0.7-0.3-1.5-0.6-2.4-0.9c-0.9-0.3-1.8-0.4-2.6-0.4
			c-0.7,0-1.2,0.1-1.7,0.3c-0.4,0.2-0.6,0.6-0.6,1.1c0,0.4,0.1,0.7,0.4,0.9s0.6,0.5,1,0.7c0.5,0.2,1,0.4,1.7,0.6
			c0.7,0.2,1.4,0.4,2.2,0.7c1.3,0.4,2.5,0.8,3.5,1.3s2,1,2.7,1.7c0.7,0.7,1.3,1.4,1.7,2.4c0.4,0.9,0.6,2.1,0.6,3.4
			c0,1.7-0.3,3.1-0.9,4.3c-0.6,1.2-1.5,2.1-2.5,2.8c-1,0.7-2.2,1.2-3.5,1.5c-1.3,0.3-2.6,0.5-3.9,0.5c-1,0-2.1-0.1-3.2-0.2
			s-2.2-0.4-3.3-0.7c-1.1-0.3-2.1-0.6-3.1-1c-1-0.4-1.9-0.9-2.8-1.4l3.4-6.8c0.9,0.6,1.9,1.1,2.9,1.6c0.9,0.4,1.8,0.8,2.9,1.1
			c1.1,0.3,2.2,0.5,3.3,0.5c0.9,0,1.4-0.1,1.8-0.3c0.3-0.2,0.5-0.5,0.5-0.9c0-0.4-0.2-0.7-0.5-1s-0.8-0.5-1.4-0.7
			c-0.6-0.2-1.3-0.4-2-0.6c-0.8-0.2-1.6-0.5-2.4-0.8c-1.3-0.4-2.3-0.9-3.2-1.4c-0.9-0.5-1.7-1.1-2.2-1.7c-0.6-0.6-1-1.3-1.3-2.1
			c-0.3-0.8-0.4-1.7-0.4-2.8c0-1.6,0.3-3,0.9-4.2c0.6-1.2,1.4-2.2,2.3-3c1-0.8,2.1-1.4,3.4-1.8c1.3-0.4,2.6-0.6,4-0.6
			c1,0,2.1,0.1,3,0.3c1,0.2,1.9,0.5,2.9,0.8c0.9,0.3,1.8,0.6,2.6,1s1.5,0.7,2.2,1L350.7,195.3z"/>
		<path class="st0" d="M156.4,234.1h7.2l2.5,8.8l2.5-8.8h7.2l-4.7,13.6l2,5.9l6.1-19.5h8.5l-11.1,28.4h-6.5l-4-10.2l-4,10.2h-6.5
			l-11.1-28.4h8.4l6.2,19.5l2-5.9L156.4,234.1z"/>
		<path class="st0" d="M194.7,234.1h7.1l9.8,28.4h-7.9l-1.7-5.6h-7.6l-1.7,5.6h-8L194.7,234.1z M200.7,251.7l-2.5-8.8l-2.6,8.8
			H200.7z"/>
		<path class="st0" d="M239.1,234.1v28.4h-7.8v-11.1h-9.5v11.1H214v-28.4h7.8v10.5h9.5v-10.5H239.1z"/>
		<path class="st0" d="M244,262.5v-28.4h7.8v21.6h12.9v6.8H244z"/>
		<path class="st0" d="M287.7,255.7v6.8h-20.3v-28.4h19.9v6.8h-12.1v4h10.3v6.3h-10.3v4.5H287.7z"/>
		<path class="st0" d="M299.1,248.5v14h-7.8v-28.4h6.1l11.4,14.5v-14.5h7.8v28.4h-6.2L299.1,248.5z"/>
		<path class="st1" d="M146.2,310.5c0-1.3,0.1-2.5,0.3-3.5c0.2-1,0.6-1.9,1-2.7c0.5-0.8,1.1-1.5,1.9-2.2c0.8-0.6,1.7-1.3,2.8-1.9
			c1.4-0.8,2.6-1.4,3.4-1.9c0.8-0.5,1.5-0.8,1.9-1.1c0.4-0.3,0.7-0.5,0.8-0.7c0.1-0.2,0.2-0.4,0.2-0.7c0-0.7-0.2-1.2-0.6-1.5
			c-0.4-0.3-1-0.5-1.8-0.5c-0.9,0-1.7,0.2-2.5,0.7c-0.8,0.5-1.6,1.2-2.5,2.2l-4.8-5.6c0.5-0.6,1.2-1.1,2-1.5
			c0.8-0.5,1.7-0.9,2.7-1.2c1-0.3,2-0.6,3.1-0.8c1.1-0.2,2.2-0.3,3.4-0.3c3.1,0,5.4,0.6,7,1.9c1.6,1.3,2.4,3,2.4,5.3
			c0,0.8-0.1,1.6-0.3,2.2c-0.2,0.6-0.5,1.2-0.9,1.7c-0.4,0.5-0.8,1-1.3,1.4c-0.5,0.4-1,0.8-1.6,1.2c-0.7,0.5-1.4,0.9-2.1,1.3
			c-0.7,0.4-1.5,0.9-2.2,1.4h8.8v6.8H146.2z"/>
		<path class="st1" d="M191.8,298.8c0,1.8-0.3,3.4-0.8,4.9c-0.5,1.5-1.3,2.8-2.2,3.8c-0.9,1.1-2.1,1.9-3.4,2.5
			c-1.3,0.6-2.7,0.9-4.2,0.9s-2.9-0.3-4.2-0.9c-1.3-0.6-2.4-1.4-3.4-2.5c-0.9-1.1-1.7-2.4-2.2-3.8c-0.5-1.5-0.8-3.1-0.8-4.9
			c0-1.8,0.3-3.4,0.8-4.9c0.5-1.5,1.3-2.8,2.2-3.8s2.1-1.9,3.4-2.5c1.3-0.6,2.7-0.9,4.2-0.9s2.9,0.3,4.2,0.9
			c1.3,0.6,2.4,1.5,3.4,2.5c0.9,1.1,1.7,2.4,2.2,3.8C191.5,295.4,191.8,297,191.8,298.8z M184.1,298.8c0-1.5-0.3-2.8-0.8-3.8
			c-0.5-1-1.2-1.4-2.1-1.4c-0.9,0-1.6,0.5-2.2,1.4c-0.5,1-0.8,2.2-0.8,3.8c0,1.5,0.3,2.8,0.8,3.7s1.3,1.4,2.2,1.4
			c0.9,0,1.6-0.5,2.1-1.4C183.8,301.6,184.1,300.3,184.1,298.8z"/>
		<path class="st1" d="M214.4,303.7v6.8h-18.5v-6.8h5.7v-8c-0.2,0.3-0.6,0.6-1.1,0.9c-0.5,0.3-1.1,0.6-1.7,0.9
			c-0.6,0.3-1.3,0.5-1.9,0.6s-1.2,0.2-1.7,0.2v-7c0.4,0,0.9-0.1,1.6-0.4c0.7-0.3,1.3-0.6,2-1c0.7-0.4,1.3-0.8,1.8-1.2
			c0.5-0.4,0.9-0.8,1.1-1.1h7.8v16.1H214.4z"/>
		<path class="st1" d="M227.4,294.1h-10.8v-6.9h22.8l-13.9,28.4h-8.6L227.4,294.1z"/>
	</g>
	<g>
		<g>
			<path class="st2" d="M250.1,395.7c-40.1,0-76.5-16.3-102.9-42.7l-26.5,26.5c33.2,33.2,78.9,53.7,129.4,53.7h0L250.1,395.7
				L250.1,395.7z"/>
			<path class="st2" d="M104.5,250.1c0-0.6,0-1.1,0-1.7H67c0,0.6,0,1.1,0,1.7c0,50.5,20.5,96.3,53.7,129.4l26.5-26.5
				C120.8,326.6,104.5,290.2,104.5,250.1z"/>
			<path class="st2" d="M389.3,110.8l26.5-26.5c-42.5-42.5-101.1-68.8-165.8-68.8V53C304.4,53,353.6,75.1,389.3,110.8z"/>
			<path class="st2" d="M484.6,250.1c0-0.6,0-1.1,0-1.7h-37.5c0,0.6,0,1.1,0,1.7c0,54.3-22.1,103.6-57.8,139.3l26.5,26.5
				C458.3,373.4,484.6,314.7,484.6,250.1z"/>
			<path class="st2" d="M110.8,110.8L84.3,84.3C42.2,126.4,16,184.4,15.5,248.4h37.5C53.5,194.7,75.5,146.1,110.8,110.8z"/>
		</g>
		<g>
			<path class="st3" d="M395.6,248.4h37.5c-0.4-49.8-20.9-95-53.7-127.8L353,147.1C379,173.1,395.2,208.9,395.6,248.4z"/>
			<path class="st3" d="M395.7,250.1c0,40.1-16.3,76.5-42.7,102.9l26.5,26.5c33.2-33.2,53.7-78.9,53.7-129.4c0-0.6,0-1.1,0-1.7
				h-37.5C395.6,248.9,395.7,249.5,395.7,250.1z"/>
			<path class="st3" d="M250.1,104.4L250.1,104.4l0-37.5h0c-50.5,0-96.3,20.5-129.4,53.7l26.5,26.5
				C173.5,120.8,209.9,104.4,250.1,104.4z"/>
			<path class="st3" d="M250.1,447.1v37.5c64.7,0,123.3-26.3,165.8-68.8l-26.5-26.5C353.6,425,304.4,447.1,250.1,447.1z"/>
			<path class="st3" d="M53,250.1c0-0.6,0-1.1,0-1.7H15.5c0,0.6,0,1.1,0,1.7c0,64.7,26.3,123.3,68.8,165.8l26.5-26.5
				C75.1,353.6,53,304.4,53,250.1z"/>
		</g>
	</g>
</g>
</svg>
