<?xml version="1.0" standalone="no"?>
<!DOCTYPE svg PUBLIC "-//W3C//DTD SVG 20010904//EN"
 "http://www.w3.org/TR/2001/REC-SVG-20010904/DTD/svg10.dtd">
<svg version="1.0" xmlns="http://www.w3.org/2000/svg"
 width="16.000000pt" height="16.000000pt" viewBox="0 0 16.000000 16.000000"
 preserveAspectRatio="xMidYMid meet">
<metadata>
Created by potrace 1.11, written by Peter Selinger 2001-2013
</metadata>
<g transform="translate(0.000000,16.000000) scale(0.002286,-0.002286)"
fill="#000000" stroke="none">
<path d="M11 5232 c-7 -2 544 -1394 608 -1537 5 -11 19 -45 31 -75 11 -30 25
-64 30 -75 8 -18 146 -363 220 -550 18 -44 38 -93 45 -110 7 -16 99 -244 203
-505 105 -261 204 -506 219 -544 l29 -70 313 0 c172 -1 320 2 329 5 9 4 23 24
31 45 7 22 22 57 31 79 10 22 28 67 40 100 13 33 31 78 41 100 9 22 68 166
129 320 61 154 115 289 120 300 5 11 82 202 170 425 89 223 168 418 176 434 8
16 14 33 14 38 0 5 8 28 19 51 10 23 60 146 110 272 51 127 96 239 101 250 5
11 77 191 161 400 83 209 175 439 204 510 29 72 49 132 45 135 -6 4 -770 5
-816 1 -12 -1 -24 -30 -194 -456 -62 -154 -118 -293 -125 -310 -7 -16 -138
-344 -291 -727 -153 -384 -281 -698 -284 -698 -3 0 -36 78 -74 173 -38 94 -74
186 -81 202 -7 17 -61 152 -120 300 -59 149 -113 284 -120 300 -7 17 -61 152
-120 300 -59 149 -113 284 -120 300 -8 17 -44 107 -80 200 -37 94 -73 184 -80
200 -7 17 -28 68 -46 115 -18 47 -36 89 -40 94 -8 9 -804 16 -828 8z"/>
<path d="M3861 5230 c-4 -3 -7 -780 -6 -1728 0 -1289 3 -1725 12 -1730 13 -8
1322 -7 1408 2 33 3 87 8 120 11 108 10 158 16 164 20 4 2 27 6 51 10 96 13
339 77 365 95 6 4 28 13 50 20 100 31 325 161 410 235 292 256 456 551 531
955 2 8 6 38 10 65 3 28 8 61 11 75 2 14 5 114 7 223 4 337 -42 588 -154 832
-34 75 -133 243 -149 255 -4 3 -18 21 -31 40 -36 53 -186 198 -272 263 -42 31
-79 57 -82 57 -3 0 -22 12 -43 26 -173 117 -545 233 -833 259 -36 3 -87 8
-114 12 -60 7 -1445 10 -1455 3z m1444 -684 c41 -8 94 -17 130 -23 134 -19
319 -98 430 -181 141 -106 272 -306 310 -472 36 -159 39 -183 40 -355 0 -226
-7 -285 -55 -435 -83 -260 -276 -456 -547 -553 -59 -21 -103 -33 -248 -63 -16
-4 -189 -9 -382 -11 l-353 -5 0 1056 0 1055 323 -3 c177 -3 336 -7 352 -10z"/>
</g>
</svg>
