<?xml version="1.0" encoding="utf-8"?>
<!-- Generator: Adobe Illustrator 21.0.0, SVG Export Plug-In . SVG Version: 6.00 Build 0)  -->
<svg version="1.1" id="Ebene_1" xmlns="http://www.w3.org/2000/svg" xmlns:xlink="http://www.w3.org/1999/xlink" x="0px" y="0px"
	 viewBox="0 0 30 30" style="enable-background:new 0 0 30 30;" xml:space="preserve">
<style type="text/css">
	.st0{fill:#FFFFFF;}
</style>
<path class="st0" d="M8.6,9.7c0.2,0.2,0.3,0.4,0.3,0.7v18.8c0,0.3-0.1,0.5-0.3,0.7C8.4,29.9,8.2,30,8,30H1.4c-0.3,0-0.5-0.1-0.7-0.3
	c-0.2-0.2-0.3-0.4-0.3-0.7V10.3c0-0.3,0.1-0.5,0.3-0.7s0.4-0.3,0.7-0.3H8C8.2,9.4,8.4,9.5,8.6,9.7z M7,11.2H2.3v16.9H7V11.2z
	 M18.9,15.2c0.2,0.2,0.3,0.4,0.3,0.7v13.2c0,0.3-0.1,0.5-0.3,0.7c-0.2,0.2-0.4,0.3-0.7,0.3h-6.6c-0.3,0-0.5-0.1-0.7-0.3
	c-0.2-0.2-0.3-0.4-0.3-0.7V15.8c0-0.3,0.1-0.5,0.3-0.7s0.4-0.3,0.7-0.3h6.6C18.6,14.9,18.8,15,18.9,15.2z M17.3,16.8h-4.7v11.3h4.7
	V16.8z M29.2,0.3c0.2,0.2,0.3,0.4,0.3,0.7v28.1c0,0.3-0.1,0.5-0.3,0.7c-0.2,0.2-0.4,0.3-0.7,0.3H22c-0.2,0-0.5-0.1-0.7-0.3
	s-0.3-0.4-0.3-0.7V0.9c0-0.3,0.1-0.5,0.3-0.7S21.8,0,22,0h6.6C28.9,0,29.1,0.1,29.2,0.3z M27.7,1.9H23v26.2h4.7V1.9z"/>
</svg>
