<?xml version="1.0" encoding="utf-8"?>
<!-- Generator: Adobe Illustrator 21.0.0, SVG Export Plug-In . SVG Version: 6.00 Build 0)  -->
<svg version="1.1" id="Ebene_1" xmlns="http://www.w3.org/2000/svg" xmlns:xlink="http://www.w3.org/1999/xlink" x="0px" y="0px"
	 viewBox="0 0 30 30" style="enable-background:new 0 0 30 30;" xml:space="preserve">
<style type="text/css">
	.st0{fill:#FFFFFF;}
</style>
<path class="st0" d="M13.1,10.3H7.5v1.9h5.6V10.3z M13.1,6.6H7.5v1.9h5.6V6.6z M7.5,15.9h15V14h-15V15.9z M19.7,0h-15
	C3.1,0,1.9,1.2,1.9,2.8v24.4c0,1.6,1.2,2.8,2.8,2.8h20.6c1.6,0,2.8-1.2,2.8-2.8V8.4L19.7,0z M19.7,2.8l5.6,5.6h-3.8
	c-1,0-1.9-0.8-1.9-1.9L19.7,2.8L19.7,2.8z M26.2,26.2c0,1-0.8,1.9-1.9,1.9H5.6c-1,0-1.9-0.8-1.9-1.9V3.8c0-1,0.8-1.9,1.9-1.9h12.2
	v5.6c0,1.6,1.2,2.8,2.8,2.8h5.6C26.2,10.3,26.2,26.2,26.2,26.2z M7.5,19.7h15v-1.9h-15V19.7z M7.5,23.4h15v-1.9h-15V23.4z"/>
</svg>
