<?xml version="1.0" encoding="utf-8"?>
<!-- Generator: Adobe Illustrator 21.0.0, SVG Export Plug-In . SVG Version: 6.00 Build 0)  -->
<svg version="1.1" id="Ebene_1" xmlns="http://www.w3.org/2000/svg" xmlns:xlink="http://www.w3.org/1999/xlink" x="0px" y="0px"
	 viewBox="0 0 30 30" style="enable-background:new 0 0 30 30;" xml:space="preserve">
<style type="text/css">
	.st0{fill:#FFFFFF;}
</style>
<title>landtagswahlen</title>
<g id="r1EJcu">
	<path class="st0" d="M2.1,28.8l0.3-0.4c0,0-0.1,0-0.1,0c-0.2,0.2-0.5,0.4-0.8,0.5l-0.8-0.1L1,28.2L0,28c0.2-1.3,1.2-1.9,2.1-2.7
		C3.4,24.1,4.7,23,6,21.7c-2.7-2.8-3.2-6.2-2.6-9.9c0.6-3.8,3-6.2,6.3-8.1L9,1.5c0.5,0.2,1.1,0.2,1.3,0.5c0.5,0.6,1.3,0.5,1.7,1
		c0.1,0.1,0.4,0,0.6,0c2-0.2,4-0.3,5.9,0.4c1.3,0.5,2.5,1.2,3.9,1.9c0.9-1.1,1.9-2.2,3-3.4c0.4-0.5,0.8-0.9,1.1-1.4
		c0.4-0.6,0.9-0.5,1.5-0.2c0.3,0.2,0.7,0.3,1,0.5c0.3,0.2,0.6,0.5,1,0.7c-0.7,1.4-2.6,3.4-3,3.4c-0.1,0.3-0.3,0.6-0.5,0.9
		C26,6.4,25.6,7,25,7.5c-0.3,0.3-0.3,0.6-0.1,1c2.1,4.2,2,8.3-0.6,12.2c-1,1.5-2.3,2.7-3.9,3.5c-0.3,0.2-0.5,0.4-0.4,0.8
		c0,0.1,0,0.3,0,0.4c0,0.6-0.2,0.7-0.7,0.7l-1.5-0.2c-0.1,0-0.2,0-0.2,0c-0.4-0.7-1.1-0.4-1.7-0.3c-2.5,0.1-4.9-0.1-7.1-1.4
		c-0.2-0.1-0.4-0.1-0.6,0.1c-0.7,0.6-1.3,1.2-2,1.8c-0.4,0.4-0.8,0.7-1.4,0.8C4.5,27,4,27.3,3.7,27.7c-0.5,0.4-0.9,0.8-1.4,1.2
		L2.1,28.8z M10.7,6.1c-3,1.4-4.5,3.8-5.1,6.8c-0.5,2.7,0.5,5,2.2,7.2c2-1.9,3.8-3.7,5.7-5.5c0.2-0.2,0.2-0.5,0.1-0.8
		c-0.7-2.2-1.5-4.3-2.3-6.5C11.1,7,10.9,6.6,10.7,6.1z M19.3,22c3.9-1.8,6.3-7.9,3.4-12c-0.6,0.6-1.1,1.2-1.7,1.8
		C20,12.8,19,13.9,18,15c-0.6,0.6-0.8,1.6-0.5,2.4c0.2,0.5,0.4,1.1,0.5,1.6C18.1,20.2,18.9,21,19.3,22L19.3,22z M20.7,7.2
		c-2.3-1.5-4.7-2.5-7.5-1.9c0.4,0.9,0.7,1.7,1.1,2.4c0.4,0.7,0.4,1.6,0.8,2.3c0.3,0.7,0.6,1.4,0.8,2.2L20.7,7.2z M16.7,23l-1.8-4.9
		l-4.4,4.1C12.5,23.1,14.5,23.6,16.7,23L16.7,23z"/>
</g>
</svg>
