<?xml version="1.0" encoding="utf-8"?>
<!-- Generator: Adobe Illustrator 21.0.0, SVG Export Plug-In . SVG Version: 6.00 Build 0)  -->
<svg version="1.1" id="Ebene_1" xmlns="http://www.w3.org/2000/svg" xmlns:xlink="http://www.w3.org/1999/xlink" x="0px" y="0px"
	 viewBox="0 0 30 30" style="enable-background:new 0 0 30 30;" xml:space="preserve">
<style type="text/css">
	.st0{fill:#FFFFFF;}
</style>
<path class="st0" d="M29.8,14.9c0,0.4-0.2,0.7-0.5,0.7l-14.1,7.6c-0.2,0.2-0.3,0.2-0.5,0.2s-0.3,0-0.4-0.1l-14-7.7
	C0.2,15.6,0,15.3,0,14.9c0-0.4,0.2-0.7,0.6-0.8l2.9-1.5l2,1.1l-2.5,1.2l11.9,6.5l12.1-6.5l-2.3-1.1l2-1.1l2.8,1.4
	C29.6,14.3,29.8,14.5,29.8,14.9z M29.8,21.5c0,0.4-0.2,0.7-0.5,0.8l-14.1,7.6C15.1,30,15,30,14.8,30s-0.3,0-0.4-0.1l-14-7.7
	C0.2,22.1,0,21.8,0,21.5c0-0.4,0.2-0.7,0.6-0.8l2.7-1.3l2,1.1l-2.3,1l11.9,6.5l12.1-6.5l-2.2-1l2.1-1.1l2.6,1.3
	C29.6,20.8,29.8,21.1,29.8,21.5z M0.2,8c0-0.4,0.2-0.7,0.5-0.8l14.1-7.1C15,0,15.3,0,15.6,0.1l13.9,7.1C29.8,7.4,30,7.6,30,8
	c0,0.4-0.2,0.7-0.5,0.8l-14.1,7.6c-0.2,0.1-0.3,0.1-0.5,0.1c-0.2,0-0.3,0-0.5-0.1L0.7,8.8C0.3,8.6,0.1,8.3,0.2,8z M3.1,8.1L15,14.5
	l12.1-6.5L15.2,2L3.1,8.1z"/>
</svg>
