<?xml version="1.0" encoding="utf-8"?>
<!-- Generator: Adobe Illustrator 21.0.0, SVG Export Plug-In . SVG Version: 6.00 Build 0)  -->
<svg version="1.1" id="Ebene_1" xmlns="http://www.w3.org/2000/svg" xmlns:xlink="http://www.w3.org/1999/xlink" x="0px" y="0px"
	 viewBox="0 0 30 30" style="enable-background:new 0 0 30 30;" xml:space="preserve">
<style type="text/css">
	.st0{fill:#FFFFFF;}
</style>
<path class="st0" d="M6.3,16l-2.9,2.5c0,0,6,8.8,7.6,8.8c1.6,0,4.8-4.3,8.3-6.3c3.4-1.9,5.6-2.7,7-2.9c0-1.1,0-3.5,0-3.5
	s-6.4-0.4-14.6,7.5C11.4,21.8,6.3,16,6.3,16z"/>
<g>
	<path class="st0" d="M10.3,13.5H8.1l-0.8-2.3h-4l-0.8,2.3H0.3l3.9-10h2.1L10.3,13.5z M6.5,9.5L5.2,5.8L3.8,9.5H6.5z"/>
	<path class="st0" d="M11.3,3.4h4c0.8,0,1.4,0,1.7,0.1c0.4,0.1,0.7,0.2,1,0.4c0.3,0.2,0.6,0.5,0.7,0.8C19,5.1,19,5.5,19,5.9
		c0,0.5-0.1,0.9-0.4,1.3s-0.6,0.6-1,0.9C18.3,8.3,18.8,8.6,19,9c0.4,0.5,0.5,0.9,0.5,1.5c0,0.5-0.1,0.9-0.3,1.3
		c-0.2,0.5-0.5,0.7-0.8,1c-0.4,0.3-0.8,0.4-1.4,0.5c-0.4,0-1.1,0.1-2.4,0.1h-3.3V3.4z M13.3,5.1v2.3h1.3c0.8,0,1.3,0,1.5,0
		c0.4,0,0.6-0.2,0.8-0.4c0.2-0.2,0.3-0.5,0.3-0.7c0-0.3-0.1-0.6-0.3-0.7c-0.2-0.2-0.5-0.3-0.7-0.4c-0.2,0-0.7,0-1.7,0L13.3,5.1
		L13.3,5.1z M13.3,9v2.7h1.8c0.7,0,1.2,0,1.4-0.1c0.3-0.1,0.6-0.2,0.7-0.4c0.2-0.2,0.3-0.5,0.3-0.8c0-0.3-0.1-0.6-0.2-0.7
		c-0.2-0.2-0.4-0.4-0.6-0.5C16.5,9.1,15.9,9,15,9H13.3z"/>
	<path class="st0" d="M27.8,9.8l1.9,0.6c-0.3,1.1-0.8,1.9-1.5,2.4c-0.7,0.6-1.6,0.8-2.7,0.8c-1.3,0-2.4-0.5-3.2-1.4
		c-0.8-0.9-1.3-2.1-1.3-3.7c0-1.7,0.5-2.9,1.3-3.9s2-1.4,3.4-1.4c1.2,0,2.2,0.4,2.9,1.1c0.5,0.5,0.8,1,1,1.8l-2,0.5
		c-0.1-0.6-0.4-0.9-0.7-1.2c-0.4-0.3-0.8-0.5-1.4-0.5c-0.7,0-1.4,0.3-1.8,0.8S23,7.3,23,8.5c0,1.3,0.2,2.1,0.6,2.7s1,0.8,1.7,0.8
		c0.6,0,1-0.2,1.4-0.6C27.3,11,27.6,10.5,27.8,9.8z"/>
</g>
</svg>
