<?xml version="1.0" encoding="utf-8"?>
<!-- Generator: Adobe Illustrator 21.0.0, SVG Export Plug-In . SVG Version: 6.00 Build 0)  -->
<svg version="1.1" id="Ebene_1" xmlns="http://www.w3.org/2000/svg" xmlns:xlink="http://www.w3.org/1999/xlink" x="0px" y="0px"
	 viewBox="0 0 30 30" style="enable-background:new 0 0 30 30;" xml:space="preserve">
<style type="text/css">
	.st0{fill:#FFFFFF;}
</style>
<path class="st0" d="M30,15c0,4.1-1.5,7.7-4.4,10.6S19.1,30,15,30s-7.7-1.5-10.6-4.4S0,19.1,0,15S1.5,7.3,4.4,4.4S10.9,0,15,0
	s7.7,1.5,10.6,4.4S30,10.9,30,15z M28.1,15c0-3.7-1.3-6.8-3.8-9.3S18.7,1.9,15,1.9S8.2,3.2,5.7,5.7S1.9,11.3,1.9,15s1.3,6.8,3.8,9.3
	c2.5,2.6,5.6,3.8,9.3,3.8s6.8-1.3,9.3-3.8S28.1,18.7,28.1,15z M18.5,7.7c0.8,0.8,1.2,1.8,1.2,3.2c0,0.9-0.3,1.9-0.8,2.7
	s-1.3,1.7-2.2,2.5c-0.4,0.5-0.7,0.8-0.8,1.1c-0.1,0.3-0.2,0.8-0.2,1.5h-2.2c0-1.1,0.1-1.9,0.3-2.2c0.2-0.5,0.7-1,1.4-1.7
	c0.7-0.9,1.3-1.6,1.7-2.1c0.3-0.5,0.5-1,0.5-1.8c0-0.8-0.2-1.4-0.7-1.9c-0.3-0.5-0.9-0.7-1.7-0.7c-0.8,0-1.3,0.2-1.8,0.6
	s-0.8,1.1-0.8,2.2h-2.2l-0.1-0.1c0-1.6,0.5-2.7,1.3-3.5c0.9-0.7,2.1-1,3.5-1C16.5,6.6,17.6,6.9,18.5,7.7z M13.6,21.1H16v2.3h-2.4
	V21.1z"/>
</svg>
