<?xml version="1.0" encoding="utf-8"?>
<!-- Generator: Adobe Illustrator 21.0.2, SVG Export Plug-In . SVG Version: 6.00 Build 0)  -->
<svg version="1.1" id="Ebene_1" xmlns="http://www.w3.org/2000/svg" xmlns:xlink="http://www.w3.org/1999/xlink" x="0px" y="0px"
	 viewBox="0 0 53 53.7" style="enable-background:new 0 0 53 53.7;" xml:space="preserve">
<style type="text/css">
	.st0{fill:none;stroke:#42BDE2;stroke-width:3;stroke-linejoin:round;stroke-miterlimit:10;}
</style>
<g id="XMLID_134_">
	<path id="XMLID_135_" class="st0" d="M36.4,1.8c-6,0-10.3,4.4-10.3,10.3C32,12.2,36.4,7.8,36.4,1.8z"/>
	<path class="st0" d="M38.2,28.6c0-4,2.4-7.3,5.9-8.8c-2.4-3.1-5.6-4.2-7.6-4.2c-3.6,0-6.5,1.7-9.5,1.7s-6.8-1.7-10.3-1.7
		c-3.6,0-9.5,5-9.5,14.7s6.4,21.6,11.2,21.6s6.2-1.7,8.6-1.7s3.8,1.7,8.6,1.7c3.5,0,8-6.7,10.3-14C41.5,37,38.2,33.2,38.2,28.6z"/>
</g>
</svg>
