<?xml version="1.0" encoding="utf-8"?>
<!-- Generator: Adobe Illustrator 21.0.2, SVG Export Plug-In . SVG Version: 6.00 Build 0)  -->
<svg version="1.1" id="Ebene_1" xmlns="http://www.w3.org/2000/svg" xmlns:xlink="http://www.w3.org/1999/xlink" x="0px" y="0px"
	 viewBox="0 0 53 53.7" style="enable-background:new 0 0 53 53.7;" xml:space="preserve">
<style type="text/css">
	.st0{fill:none;stroke:#42BDE2;stroke-width:3;stroke-linejoin:round;stroke-miterlimit:10;}
	.st1{fill:#42BDE2;}
</style>
<g>
	<g>
		<path class="st0" d="M41.7,14.7c0.8-4.3,0.4-7.5-1.6-8.8c-0.7-0.4-1.5-0.6-2.3-0.6c-4.8,0.2-12.6,6.8-19,16.6
			c-7.5,11.6-10.2,23.2-6,26c2,1.3,5.2,0.4,8.8-2.2"/>
		<path class="st0" d="M45.6,33.6c3.6-1.4,5.8-3.3,5.9-5.5c0.3-5-10.7-9.7-24.5-10.4c-1.3-0.1-2.6-0.1-3.8-0.1
			c-12,0-21.4,3.3-21.7,7.9c-0.1,2.2,1.9,4.3,5.3,6"/>
		<path class="st0" d="M23.1,7.1c-2.4-2-4.7-3.1-6.6-3c-0.5,0-0.9,0.2-1.4,0.4C10.6,6.8,12,18.6,18.3,31s15,20.4,19.5,18.2
			c4.3-2.2,3.2-13.2-2.5-25"/>
	</g>
	<path class="st1" d="M29.6,27.2c0,1.6-1.3,3-3,3s-3-1.3-3-3l0,0c0-1.6,1.3-3,3-3S29.6,25.6,29.6,27.2z"/>
</g>
</svg>
