<?xml version="1.0" encoding="utf-8"?>
<!-- Generator: Adobe Illustrator 21.0.2, SVG Export Plug-In . SVG Version: 6.00 Build 0)  -->
<svg version="1.1" id="Ebene_1" xmlns="http://www.w3.org/2000/svg" xmlns:xlink="http://www.w3.org/1999/xlink" x="0px" y="0px"
	 viewBox="0 0 53 53.7" style="enable-background:new 0 0 53 53.7;" xml:space="preserve">
<style type="text/css">
	.st0{display:none;}
	.st1{display:inline;fill:none;stroke:#42BDE2;stroke-width:3;stroke-linejoin:round;stroke-miterlimit:10;}
	.st2{display:inline;}
	.st3{fill:none;stroke:#42BDE2;stroke-width:3;stroke-linejoin:round;stroke-miterlimit:10;}
	.st4{fill:none;stroke:#42BDE2;stroke-width:3;stroke-linecap:square;stroke-linejoin:round;stroke-miterlimit:10;}
</style>
<g class="st0">
	<rect x="1.5" y="1.8" class="st1" width="50" height="50"/>
	<path class="st1" d="M17,36.3v-19c5.5-0.7,10.3-0.2,10.3,5c0,5.1-6.6,6.5-10.3,4.5"/>
	<path class="st1" d="M37.7,23.7c-1.8-1.7-6.9-2-6.9,2.3s6.9,2.1,6.9,6.9s-5.5,3.7-6.9,2.3"/>
</g>
<g class="st0">
	<g class="st2">
		<g>
			<rect x="1.5" y="1.8" class="st3" width="50" height="50"/>
			<polyline class="st3" points="17,36.3 23,15.6 29.1,36.3 			"/>
			<line class="st3" x1="19.6" y1="29.4" x2="26.5" y2="29.4"/>
			<line class="st3" x1="36" y1="36.3" x2="36" y2="20.8"/>
		</g>
	</g>
	<circle class="st1" cx="36" cy="17.4" r="0.9"/>
</g>
<g class="st0">
	<g class="st2">
		<rect x="1.5" y="1.8" class="st3" width="50" height="50"/>
	</g>
	<g class="st2">
		<line class="st3" x1="18.2" y1="14.2" x2="18.2" y2="39.5"/>
		<g>
			<line class="st3" x1="34.7" y1="14.5" x2="34.7" y2="38.6"/>
			<path class="st4" d="M34.7,38.6c-3.7,0-7.5-3.2-7.5-7.2s3.9-7.2,7.5-7.2"/>
		</g>
	</g>
</g>
<path class="st3" d="M26.5,1.8c-13.8,0-25,11.2-25,25s11.2,25,25,25s25-11.2,25-25H26.4"/>
</svg>
