<?xml version="1.0" encoding="utf-8"?>
<!-- Generator: Adobe Illustrator 21.0.2, SVG Export Plug-In . SVG Version: 6.00 Build 0)  -->
<svg version="1.1" id="Ebene_1" xmlns="http://www.w3.org/2000/svg" xmlns:xlink="http://www.w3.org/1999/xlink" x="0px" y="0px"
	 viewBox="0 0 53 53.7" style="enable-background:new 0 0 53 53.7;" xml:space="preserve">
<style type="text/css">
	.st0{display:none;}
	.st1{display:inline;fill:none;stroke:#42BDE2;stroke-width:3;stroke-linejoin:round;stroke-miterlimit:10;}
	.st2{display:inline;}
	.st3{fill:none;stroke:#42BDE2;stroke-width:3;stroke-linejoin:round;stroke-miterlimit:10;}
	.st4{fill:none;stroke:#42BDE2;stroke-width:3;stroke-linecap:square;stroke-linejoin:round;stroke-miterlimit:10;}
	.st5{display:none;fill:none;stroke:#42BDE2;stroke-width:3;stroke-linejoin:round;stroke-miterlimit:10;}
	.st6{display:inline;fill:#42BDE2;}
	.st7{fill:#42BDE2;}
	.st8{enable-background:new    ;}
</style>
<g class="st0">
	<rect x="1.5" y="1.8" class="st1" width="50" height="50"/>
	<path class="st1" d="M17,36.3v-19c5.5-0.7,10.3-0.2,10.3,5c0,5.1-6.6,6.5-10.3,4.5"/>
	<path class="st1" d="M37.7,23.7c-1.8-1.7-6.9-2-6.9,2.3s6.9,2.1,6.9,6.9s-5.5,3.7-6.9,2.3"/>
</g>
<g class="st0">
	<g class="st2">
		<g>
			<rect x="1.5" y="1.8" class="st3" width="50" height="50"/>
			<polyline class="st3" points="17,36.3 23,15.6 29.1,36.3 			"/>
			<line class="st3" x1="19.6" y1="29.4" x2="26.5" y2="29.4"/>
			<line class="st3" x1="36" y1="36.3" x2="36" y2="20.8"/>
		</g>
	</g>
	<circle class="st1" cx="36" cy="17.4" r="0.9"/>
</g>
<g class="st0">
	<g class="st2">
		<rect x="1.5" y="1.8" class="st3" width="50" height="50"/>
	</g>
	<g class="st2">
		<line class="st3" x1="18.2" y1="14.2" x2="18.2" y2="39.5"/>
		<g>
			<line class="st3" x1="34.7" y1="14.5" x2="34.7" y2="38.6"/>
			<path class="st4" d="M34.7,38.6c-3.7,0-7.5-3.2-7.5-7.2s3.9-7.2,7.5-7.2"/>
		</g>
	</g>
</g>
<path class="st5" d="M26.5,1.8c-13.8,0-25,11.2-25,25s11.2,25,25,25s25-11.2,25-25H26.4"/>
<g class="st0">
	<g class="st2">
		<path class="st3" d="M41.7,14.7c0.8-4.3,0.4-7.5-1.6-8.8c-0.7-0.4-1.5-0.6-2.3-0.6c-4.8,0.2-12.6,6.8-19,16.6
			c-7.5,11.6-10.2,23.2-6,26c2,1.3,5.2,0.4,8.8-2.2"/>
		<path class="st3" d="M45.6,33.6c3.6-1.4,5.8-3.3,5.9-5.5c0.3-5-10.7-9.7-24.5-10.4c-1.3-0.1-2.6-0.1-3.8-0.1
			c-12,0-21.4,3.3-21.7,7.9c-0.1,2.2,1.9,4.3,5.3,6"/>
		<path class="st3" d="M23.1,7.1c-2.4-2-4.7-3.1-6.6-3c-0.5,0-0.9,0.2-1.4,0.4C10.6,6.8,12,18.6,18.3,31s15,20.4,19.5,18.2
			c4.3-2.2,3.2-13.2-2.5-25"/>
	</g>
	<path class="st6" d="M29.6,27.2c0,1.6-1.3,3-3,3s-3-1.3-3-3l0,0c0-1.6,1.3-3,3-3S29.6,25.6,29.6,27.2z"/>
</g>
<g>
	<path class="st3" d="M48.5,48.8h-44c-1.6,0-3-1.3-3-3V7.9c0-1.7,1.4-3,3-3h44c1.7,0,3,1.3,3,3v37.9C51.5,47.5,50.1,48.8,48.5,48.8z
		"/>
	<rect x="18.9" y="12.1" class="st7" width="6.7" height="12.1"/>
	<g class="st8">
		<path class="st7" d="M11.5,26.5v-1.5c-1.9-0.2-3.6-1-5.2-2.3l1.5-1.8c1.2,1,2.4,1.6,3.6,1.8v-4.1c-1.6-0.4-2.7-0.9-3.5-1.5
			c-0.7-0.6-1.1-1.5-1.1-2.7s0.4-2.2,1.3-3c0.8-0.8,1.9-1.2,3.3-1.3V9.1h1.3v1.1c1.5,0.1,3,0.6,4.4,1.6l-1.4,1.9
			c-0.9-0.7-1.9-1.1-3-1.2v3.9h0.1c1.6,0.4,2.8,0.9,3.5,1.5c0.8,0.6,1.1,1.6,1.1,2.8c0,1.2-0.4,2.2-1.3,3s-2,1.2-3.4,1.3v1.5H11.5z
			 M10,12.9c-0.4,0.3-0.5,0.7-0.5,1.2s0.1,0.8,0.4,1.1c0.3,0.3,0.8,0.5,1.6,0.8v-3.6C10.8,12.4,10.4,12.6,10,12.9z M14.4,22.1
			c0.4-0.3,0.6-0.7,0.6-1.2s-0.2-0.9-0.5-1.2c-0.3-0.3-0.9-0.6-1.7-0.8v3.8C13.5,22.7,14,22.5,14.4,22.1z"/>
	</g>
</g>
</svg>
