<?xml version="1.0" encoding="utf-8"?>
<!-- Generator: Adobe Illustrator 21.0.2, SVG Export Plug-In . SVG Version: 6.00 Build 0)  -->
<svg version="1.1" id="Ebene_1" xmlns="http://www.w3.org/2000/svg" xmlns:xlink="http://www.w3.org/1999/xlink" x="0px" y="0px"
	 viewBox="0 0 53 53.7" style="enable-background:new 0 0 53 53.7;" xml:space="preserve">
<style type="text/css">
	.st0{fill:none;stroke:#42BDE2;stroke-width:3;stroke-linejoin:round;stroke-miterlimit:10;}
	.st1{fill:#42BDE2;}
	.st2{enable-background:new    ;}
</style>
<g>
	<path class="st0" d="M48.5,48.8h-44c-1.6,0-3-1.3-3-3V7.9c0-1.7,1.4-3,3-3h44c1.7,0,3,1.3,3,3v37.9C51.5,47.5,50.1,48.8,48.5,48.8z
		"/>
	<rect x="18.9" y="12.1" class="st1" width="6.7" height="12.1"/>
	<g class="st2">
		<path class="st1" d="M11.5,26.5V25c-1.9-0.2-3.6-1-5.2-2.3l1.5-1.8c1.2,1,2.4,1.6,3.6,1.8v-4.1c-1.6-0.4-2.7-0.9-3.5-1.5
			c-0.7-0.6-1.1-1.5-1.1-2.7s0.4-2.2,1.3-3c0.8-0.8,1.9-1.2,3.3-1.3v-1h1.3v1.1c1.5,0.1,3,0.6,4.4,1.6l-1.4,1.9
			c-0.9-0.7-1.9-1.1-3-1.2v3.9h0.1c1.6,0.4,2.8,0.9,3.5,1.5c0.8,0.6,1.1,1.6,1.1,2.8c0,1.2-0.4,2.2-1.3,3s-2,1.2-3.4,1.3v1.5H11.5z
			 M10,12.9c-0.4,0.3-0.5,0.7-0.5,1.2s0.1,0.8,0.4,1.1c0.3,0.3,0.8,0.5,1.6,0.8v-3.6C10.8,12.4,10.4,12.6,10,12.9z M14.4,22.1
			c0.4-0.3,0.6-0.7,0.6-1.2s-0.2-0.9-0.5-1.2c-0.3-0.3-0.9-0.6-1.7-0.8v3.8C13.5,22.7,14,22.5,14.4,22.1z"/>
	</g>
</g>
</svg>
