<?xml version="1.0" encoding="utf-8"?>
<!-- Generator: Adobe Illustrator 21.0.2, SVG Export Plug-In . SVG Version: 6.00 Build 0)  -->
<svg version="1.1" id="Ebene_1" xmlns="http://www.w3.org/2000/svg" xmlns:xlink="http://www.w3.org/1999/xlink" x="0px" y="0px"
	 viewBox="0 0 53 53.7" style="enable-background:new 0 0 53 53.7;" xml:space="preserve">
<style type="text/css">
	.st0{fill:none;stroke:#42BDE2;stroke-width:3;stroke-linejoin:round;stroke-miterlimit:10;}
</style>
<g>
	<g id="Mark" transform="translate(0.000000, 35.000000)">
		<path id="Board" class="st0" d="M7.7-33.2h37.5c3.5,0,6.2,2.8,6.2,6.2v37.5c0,3.5-2.8,6.3-6.2,6.3H7.7c-3.5,0-6.2-2.8-6.2-6.3V-27
			C1.5-30.4,4.3-33.2,7.7-33.2z"/>
		<path id="Right-List" class="st0" d="M32.7-26.7H42c1.7,0,3,1.3,3,3v15.9c0,1.7-1.3,3-3,3h-9.2c-1.7,0-3-1.3-3-3v-15.9
			C29.7-25.3,31.1-26.7,32.7-26.7z"/>
		<path id="Left-List" class="st0" d="M11-26.7h9.2c1.7,0,3,1.3,3,3V4.7c0,1.7-1.3,3-3,3H11c-1.7,0-3-1.3-3-3v-28.4
			C8-25.3,9.3-26.7,11-26.7z"/>
	</g>
	<path class="st0" d="M20.5,42.8h-9.7c-1.6,0-2.9-1.3-2.9-2.9V11.1c0-1.6,1.3-2.9,2.9-2.9h9.7c1.6,0,2.9,1.3,2.9,2.9V40
		C23.4,41.6,22.1,42.8,20.5,42.8z"/>
	<path class="st0" d="M42.2,30.2h-9.7c-1.6,0-2.9-1.3-2.9-2.9V11.1c0-1.6,1.3-2.9,2.9-2.9h9.7c1.6,0,2.9,1.3,2.9,2.9v16.2
		C45.1,28.9,43.8,30.2,42.2,30.2z"/>
</g>
</svg>
