<?xml version="1.0" encoding="utf-8"?>
<!-- Generator: Adobe Illustrator 21.0.2, SVG Export Plug-In . SVG Version: 6.00 Build 0)  -->
<svg version="1.1" id="Ebene_1" xmlns="http://www.w3.org/2000/svg" xmlns:xlink="http://www.w3.org/1999/xlink" x="0px" y="0px"
	 viewBox="0 0 53 53.7" style="enable-background:new 0 0 53 53.7;" xml:space="preserve">
<style type="text/css">
	.st0{fill:none;stroke:#F5F5F5;stroke-width:3;stroke-linecap:round;stroke-linejoin:round;stroke-miterlimit:10;}
</style>
<g>
	<polygon class="st0" points="11.8,13.9 20.5,7 29.1,11.3 23.9,20 15.3,20.8 	"/>
	<polygon class="st0" points="30.8,28.6 27.4,38.1 34.3,43.2 42.9,38.1 41.2,27.7 	"/>
	<polyline class="st0" points="2.4,31.2 10.1,30.3 15.3,39.8 11.8,46.7 	"/>
	<polyline class="st0" points="39.4,6.2 39.4,10.5 44.6,19.1 50.6,20.8 	"/>
	<line class="st0" x1="23.9" y1="20" x2="30.8" y2="28.7"/>
	<line class="st0" x1="15.3" y1="39.8" x2="27.4" y2="38.1"/>
	<line class="st0" x1="34.3" y1="43.2" x2="32.5" y2="51"/>
	<line class="st0" x1="42.9" y1="38.1" x2="48.1" y2="38.1"/>
	<line class="st0" x1="41.2" y1="27.7" x2="44.6" y2="19.1"/>
	<line class="st0" x1="29.1" y1="11.3" x2="39.4" y2="10.5"/>
	<line class="st0" x1="10.1" y1="30.3" x2="15.3" y2="20.8"/>
	<line class="st0" x1="11.8" y1="13.9" x2="5.8" y2="13.1"/>
	<line class="st0" x1="20.5" y1="7" x2="20.5" y2="2.7"/>
	<circle class="st0" cx="26.5" cy="26.9" r="25"/>
</g>
</svg>
