<?xml version="1.0" encoding="utf-8"?>
<!-- Generator: Adobe Illustrator 21.0.2, SVG Export Plug-In . SVG Version: 6.00 Build 0)  -->
<svg version="1.1" id="Ebene_1" xmlns="http://www.w3.org/2000/svg" xmlns:xlink="http://www.w3.org/1999/xlink" x="0px" y="0px"
	 viewBox="0 0 53 53.7" style="enable-background:new 0 0 53 53.7;" xml:space="preserve">
<style type="text/css">
	.st0{fill:none;stroke:#F5F5F5;stroke-width:3;stroke-linecap:round;stroke-linejoin:round;stroke-miterlimit:10;}
</style>
<g>
	<g>
		<line class="st0" x1="19.8" y1="17.3" x2="21.5" y2="17.3"/>
		<line class="st0" x1="31.5" y1="17.3" x2="33.2" y2="17.3"/>
		<line class="st0" x1="18.9" y1="5.3" x2="19.8" y2="10.4"/>
		<path class="st0" d="M16.3,15.6c2.3-2.3,4.6-4,6.9-1.7"/>
		<path class="st0" d="M26.7,31.2c2.8,0,4.7-1.8,6.9-3.5s3.1-6.9,3.1-6.9s6.8-2.7,6.8-4.5s7.9-7.6,4.3-7.6s-9.4,4.2-9.4,2.6
			s-2.8-5.2-3.9-5.2c0-1.2-3.5-4.3-5.2-4.3s-2.6,0.9-2.6,0.9l0,0c0,0-1.5-0.9-3.2-0.9S18,4.9,18,6.1c-1.1,0-3.5,3.6-3.5,5.2
			S8.6,8.3,5,8.7C2,9,9.4,14.1,9.4,15.8c0,1.8,6.9,5,6.9,5s1.2,5.3,3.5,6.9S23.3,31.2,26.7,31.2z"/>
		<line class="st0" x1="34.1" y1="6.1" x2="33.2" y2="10.4"/>
		<path class="st0" d="M36.7,15.6c-2.3-2.3-4.6-4-6.9-1.7"/>
		<line class="st0" x1="26.7" y1="2.7" x2="26.7" y2="12.2"/>
		<path class="st0" d="M11.1,41.5c1.6,2.9,5.2,10.4,5.2,10.4"/>
		<polyline class="st0" points="34.5,27.7 45.3,36.4 50.5,51.9 2.5,51.9 7.3,36.4 18,27.7 		"/>
		<path class="st0" d="M40.1,41.5c-1.6,2.9-3.5,10.4-3.5,10.4"/>
		<path class="st0" d="M36.7,23.4c3.1,0,12.5,4,2.2,8.6C35.8,33.4,25,45,25,45s-8.1-11.6-11.2-13c-9.4-4-1-8.6,2.2-8.6"/>
	</g>
	<line class="st0" x1="25" y1="45" x2="25" y2="51.9"/>
	<path class="st0" d="M13.7,32c0,0,9.1,4.3,12.1,4.3s13-4.3,13-4.3"/>
</g>
</svg>
