<?xml version="1.0" encoding="utf-8"?>
<!-- Generator: Adobe Illustrator 21.0.2, SVG Export Plug-In . SVG Version: 6.00 Build 0)  -->
<svg version="1.1" id="Ebene_1" xmlns="http://www.w3.org/2000/svg" xmlns:xlink="http://www.w3.org/1999/xlink" x="0px" y="0px"
	 viewBox="0 0 53 53.7" style="enable-background:new 0 0 53 53.7;" xml:space="preserve">
<style type="text/css">
	.st0{fill:none;stroke:#F5F5F5;stroke-width:3;stroke-linecap:round;stroke-linejoin:round;stroke-miterlimit:10;}
</style>
<g>
	<path class="st0" d="M9.9,29.4L9.9,29.4c-3.1,0-5.7-2.5-5.7-5.7v-1.3h11.4v1.3C15.6,26.8,13.1,29.4,9.9,29.4z"/>
	<path class="st0" d="M21.3,29.4L21.3,29.4c-3.1,0-5.7-2.5-5.7-5.7v-1.3H27v1.3C27,26.8,24.4,29.4,21.3,29.4z"/>
	<path class="st0" d="M32.7,29.4L32.7,29.4c-3.1,0-5.7-2.5-5.7-5.7v-1.3h11.4v1.3C38.4,26.8,35.8,29.4,32.7,29.4z"/>
	<path class="st0" d="M44,29.4L44,29.4c-3.1,0-5.7-2.5-5.7-5.7v-1.3h11.4v1.3C49.7,26.8,47.2,29.4,44,29.4z"/>
	<path class="st0" d="M27,27.6c0,7.5-14,24.5-14,24.5c0-3.7-1.8-8.8-1.8-8.8S24.2,36,27,27.6z"/>
	<path class="st0" d="M27,9.8C24.2,15.2,4.2,22.4,4.2,22.4h11.4C18.8,20,27,9.8,27,9.8"/>
	<polyline class="st0" points="27,23.2 27,1.4 34,3.1 27,4.9 	"/>
	<path class="st0" d="M46.2,29.4c0,12.2,5.3,22.8,5.3,22.8h-49c0,0,5.3-9.7,5.3-21.9"/>
	<path class="st0" d="M27,27.6c0,7.5,14,24.5,14,24.5c0-3.7,1.8-8.8,1.8-8.8S29.8,36,27,27.6z"/>
	<path class="st0" d="M27,9.8c2.8,5.4,22.8,12.6,22.8,12.6H38.4C35.2,20,27,9.8,27,9.8"/>
</g>
</svg>
