<?xml version="1.0" encoding="utf-8"?>
<!-- Generator: Adobe Illustrator 21.0.2, SVG Export Plug-In . SVG Version: 6.00 Build 0)  -->
<svg version="1.1" id="Ebene_1" xmlns="http://www.w3.org/2000/svg" xmlns:xlink="http://www.w3.org/1999/xlink" x="0px" y="0px"
	 viewBox="0 0 53 53.7" style="enable-background:new 0 0 53 53.7;" xml:space="preserve">
<style type="text/css">
	.st0{display:none;}
	.st1{display:inline;fill:none;stroke:#42BDE2;stroke-width:3;stroke-linejoin:round;stroke-miterlimit:10;}
	.st2{display:inline;}
	.st3{fill:none;stroke:#42BDE2;stroke-width:3;stroke-linejoin:round;stroke-miterlimit:10;}
	.st4{fill:none;stroke:#42BDE2;stroke-width:3;stroke-linecap:square;stroke-linejoin:round;stroke-miterlimit:10;}
	.st5{display:none;fill:none;stroke:#42BDE2;stroke-width:3;stroke-linejoin:round;stroke-miterlimit:10;}
	.st6{display:inline;fill:#42BDE2;}
	.st7{fill:none;stroke:#42BDE2;stroke-width:3;stroke-linecap:round;stroke-linejoin:round;stroke-miterlimit:10;}
</style>
<g class="st0">
	<rect x="1.5" y="1.8" class="st1" width="50" height="50"/>
	<path class="st1" d="M17,36.3v-19c5.5-0.7,10.3-0.2,10.3,5c0,5.1-6.6,6.5-10.3,4.5"/>
	<path class="st1" d="M37.7,23.7c-1.8-1.7-6.9-2-6.9,2.3s6.9,2.1,6.9,6.9s-5.5,3.7-6.9,2.3"/>
</g>
<g class="st0">
	<g class="st2">
		<g>
			<rect x="1.5" y="1.8" class="st3" width="50" height="50"/>
			<polyline class="st3" points="17,36.3 23,15.6 29.1,36.3 			"/>
			<line class="st3" x1="19.6" y1="29.4" x2="26.5" y2="29.4"/>
			<line class="st3" x1="36" y1="36.3" x2="36" y2="20.8"/>
		</g>
	</g>
	<circle class="st1" cx="36" cy="17.4" r="0.9"/>
</g>
<g class="st0">
	<g class="st2">
		<rect x="1.5" y="1.8" class="st3" width="50" height="50"/>
	</g>
	<g class="st2">
		<line class="st3" x1="18.2" y1="14.2" x2="18.2" y2="39.5"/>
		<g>
			<line class="st3" x1="34.7" y1="14.5" x2="34.7" y2="38.6"/>
			<path class="st4" d="M34.7,38.6c-3.7,0-7.5-3.2-7.5-7.2s3.9-7.2,7.5-7.2"/>
		</g>
	</g>
</g>
<path class="st5" d="M26.5,1.8c-13.8,0-25,11.2-25,25s11.2,25,25,25s25-11.2,25-25H26.4"/>
<g class="st0">
	<g class="st2">
		<path class="st3" d="M41.7,14.7c0.8-4.3,0.4-7.5-1.6-8.8c-0.7-0.4-1.5-0.6-2.3-0.6c-4.8,0.2-12.6,6.8-19,16.6
			c-7.5,11.6-10.2,23.2-6,26c2,1.3,5.2,0.4,8.8-2.2"/>
		<path class="st3" d="M45.6,33.6c3.6-1.4,5.8-3.3,5.9-5.5c0.3-5-10.7-9.7-24.5-10.4c-1.3-0.1-2.6-0.1-3.8-0.1
			c-12,0-21.4,3.3-21.7,7.9c-0.1,2.2,1.9,4.3,5.3,6"/>
		<path class="st3" d="M23.1,7.1c-2.4-2-4.7-3.1-6.6-3c-0.5,0-0.9,0.2-1.4,0.4C10.6,6.8,12,18.6,18.3,31s15,20.4,19.5,18.2
			c4.3-2.2,3.2-13.2-2.5-25"/>
	</g>
	<path class="st6" d="M29.6,27.2c0,1.6-1.3,3-3,3s-3-1.3-3-3l0,0c0-1.6,1.3-3,3-3S29.6,25.6,29.6,27.2z"/>
</g>
<g>
	<g>
		<path class="st7" d="M39.4,19.1c0-3.6-5.2-6.9-12.9-6.9s-12.9,3.3-12.9,6.9c0,0.6,0,5.9,0,6.5c0,3.6,5.2,7.3,12.9,7.3
			s12.9-3.3,12.9-6.9C39.4,25.4,39.4,19.7,39.4,19.1z"/>
		<path class="st7" d="M36,20c-0.8-0.8-4-2.6-9.5-2.6c-4.1,0-6.8,0.7-8.4,1.5C17.4,19.3,17,20,17,20.8V26"/>
	</g>
	<path class="st7" d="M47.3,40.2l-5.3-2.5c-3.8,4.5-9.4,7.3-15.7,7.3s-11.9-2.8-15.7-7.3l-4.9,2.1c-1.3,0.6-2.3,1.7-2.5,3.1l-1.7,9
		h50l-1.7-8.6C49.5,41.9,48.6,40.7,47.3,40.2z"/>
	<path class="st7" d="M42.9,17.8c0-8.9-7.5-15.9-16.4-15.9S10.1,9.1,10.1,18c0,1.1,0,5.4,0,6.5c0,8.9,7.5,15.3,16.4,15.3
		s16.4-6.6,16.4-15.5C42.9,23.2,42.9,18.9,42.9,17.8z"/>
	<path class="st7" d="M38.6,34.6c1.3-1.3,3.4,0.8,3.4,3.4"/>
	<path class="st7" d="M14.4,34.6c-1.3-1.3-3.4,0.8-3.4,3.4"/>
	<path class="st7" d="M29.9,28.6c2.4,0,9.5-3.2,9.5-5.2"/>
	<ellipse class="st7" cx="26.5" cy="28.6" rx="2.6" ry="0.9"/>
</g>
</svg>
