<?xml version="1.0" encoding="utf-8"?>
<!-- Generator: Adobe Illustrator 21.0.2, SVG Export Plug-In . SVG Version: 6.00 Build 0)  -->
<svg version="1.1" id="Ebene_1" xmlns="http://www.w3.org/2000/svg" xmlns:xlink="http://www.w3.org/1999/xlink" x="0px" y="0px"
	 viewBox="0 0 53 53.7" style="enable-background:new 0 0 53 53.7;" xml:space="preserve">
<style type="text/css">
	.st0{fill:none;stroke:#F5F5F5;stroke-width:3;stroke-linecap:round;stroke-linejoin:round;stroke-miterlimit:10;}
</style>
<g>
	<g>
		<path class="st0" d="M39.4,19.1c0-3.6-5.2-6.9-12.9-6.9s-12.9,3.3-12.9,6.9c0,0.6,0,5.9,0,6.5c0,3.6,5.2,7.3,12.9,7.3
			s12.9-3.3,12.9-6.9C39.4,25.4,39.4,19.7,39.4,19.1z"/>
		<path class="st0" d="M36,20c-0.8-0.8-4-2.6-9.5-2.6c-4.1,0-6.8,0.7-8.4,1.5C17.4,19.3,17,20,17,20.8V26"/>
	</g>
	<path class="st0" d="M47.3,40.2L42,37.7c-3.8,4.5-9.4,7.3-15.7,7.3s-11.9-2.8-15.7-7.3l-4.9,2.1c-1.3,0.6-2.3,1.7-2.5,3.1l-1.7,9
		h50l-1.7-8.6C49.5,41.9,48.6,40.7,47.3,40.2z"/>
	<path class="st0" d="M42.9,17.8c0-8.9-7.5-15.9-16.4-15.9S10.1,9.1,10.1,18c0,1.1,0,5.4,0,6.5c0,8.9,7.5,15.3,16.4,15.3
		s16.4-6.6,16.4-15.5C42.9,23.2,42.9,18.9,42.9,17.8z"/>
	<path class="st0" d="M38.6,34.6c1.3-1.3,3.4,0.8,3.4,3.4"/>
	<path class="st0" d="M14.4,34.6C13.1,33.3,11,35.4,11,38"/>
	<path class="st0" d="M29.9,28.6c2.4,0,9.5-3.2,9.5-5.2"/>
	<ellipse class="st0" cx="26.5" cy="28.6" rx="2.6" ry="0.9"/>
</g>
</svg>
