<?xml version="1.0" encoding="utf-8"?>
<!-- Generator: Adobe Illustrator 21.0.0, SVG Export Plug-In . SVG Version: 6.00 Build 0)  -->
<svg version="1.1" id="Ebene_1" xmlns="http://www.w3.org/2000/svg" xmlns:xlink="http://www.w3.org/1999/xlink" x="0px" y="0px"
	 viewBox="0 0 200 200" style="enable-background:new 0 0 200 200;" xml:space="preserve">
<style type="text/css">
	.st0{fill:#009EE0;}
	.st1{fill:#E2001A;}
	.st2{fill:none;stroke:#ED1C24;stroke-width:0.6806;stroke-miterlimit:10;}
	.st3{fill:#FFFFFF;}
	.st4{fill:none;stroke:#FFFFFF;stroke-width:0.6806;stroke-miterlimit:10;}
	.st5{fill:none;stroke:#FFFFFF;stroke-width:2.7224;stroke-miterlimit:10;}
</style>
<path id="path2438" class="st0" d="M0,0h200v200H0V0z"/>
<g>
	<path id="path2440" class="st1" d="M46,129.2c4.4,9.6,20.2,11.8,43.1,4.7c11.1-3.4,34.8-12.4,48.5-22.1
		C155,99.5,162.8,92.9,165,90.1l9,11.3l6.2-36.2L143,62l8.9,11.7c0,0-12.1,12.1-31.6,20.7c-14.9,6.5-38.6,14.4-45.2,11
		c-11.1-5.6,4.5-20.5,4.5-20.5C61.1,89,47.5,97.7,44.5,114.9C43.7,119.2,44,124.7,46,129.2"/>
	<path id="path2442" class="st2" d="M46,129.2c4.4,9.6,20.2,11.8,43.1,4.7c11.1-3.4,34.8-12.4,48.5-22.1
		C155,99.5,162.8,92.9,165,90.1l9,11.3l6.2-36.2L143,62l8.9,11.7c0,0-12.1,12.1-31.6,20.7c-14.9,6.5-38.6,14.4-45.2,11
		c-11.1-5.6,4.5-20.5,4.5-20.5C61.1,89,47.5,97.7,44.5,114.9C43.7,119.2,44,124.7,46,129.2z"/>
	<path id="path2446" class="st3" d="M117.5,78.4v3.9H116V86h1.4v9h4.5v-9.1h2.6v-3.7h-2.6v-3.8H117.5"/>
	<path id="path2448" class="st3" d="M48.8,78.4v3.9h-1.5V86h1.4v9h4.5v-9.1h2.6v-3.7h-2.6v-3.8H48.8"/>
	<path id="path2450" class="st3" d="M105,120.1v2.1h-0.8v2.1h0.8v5h2.5v-5h1.4v-2.1h-1.4v-2.1L105,120.1"/>
	<path id="path2452" class="st3" d="M77.8,110.2v0.6h-0.6v1.4h0.6v3.5h1.7v-3.5h1.2v-1.4h-1.2v-1.1c0-0.5,0.3-0.6,0.5-0.7
		c0.5-0.1,0.7,0.2,0.7,0.2v-1.5C78.7,107.5,77.8,108.7,77.8,110.2"/>
	<path id="path2454" class="st4" d="M77.8,110.2v0.6h-0.6v1.4h0.6v3.5h1.7v-3.5h1.2v-1.4h-1.2v-1.1c0-0.5,0.3-0.6,0.5-0.7
		c0.5-0.1,0.7,0.2,0.7,0.2v-1.5C78.7,107.5,77.8,108.7,77.8,110.2z"/>
	<path id="path2456" class="st3" d="M126.1,82.3v12.6h4.5V82.2L126.1,82.3"/>
	<path id="path2458" class="st3" d="M130.6,77.3c0,1.2-1,2.2-2.2,2.2c-1.2,0-2.2-1-2.2-2.2c0-1.2,1-2.2,2.2-2.2
		C129.5,75,130.6,76.1,130.6,77.3"/>
	<path id="path2460" class="st5" d="M130.6,77.3c0,1.2-1,2.2-2.2,2.2c-1.2,0-2.2-1-2.2-2.2c0-1.2,1-2.2,2.2-2.2
		C129.5,75,130.6,76.1,130.6,77.3z"/>
	<path id="path2462" class="st3" d="M131.7,82.2l6.6,12.6h3l6.6-12.7h-5.1l-3,6.4l-3.1-6.4L131.7,82.2"/>
	<path id="path2464" class="st3" d="M40.9,74.4h4.5v20.6h-4.5V74.4z"/>
	<path id="path2466" class="st3" d="M132.3,117.8h2.5v11.3h-2.5V117.8z"/>
	<path id="path2468" class="st3" d="M27.7,88l2-5.9l2,5.9H27.7z M32.4,76.3h-5.3l-7.3,18.7H25l1.3-3.2H33l1.2,3.2h5.2L32.4,76.3"/>
	<path id="path2470" class="st3" d="M72.5,82.2v12.6H77c0,0,0-2.4,0-4.8c-0.2-6,5-3.7,5-3.7V82c-4.2-0.2-5.1,2.4-5.1,2.4v-2.1H72.5"
		/>
	<path id="path2472" class="st3" d="M87.6,110.8v4.9h1.7c0,0,0-0.9,0-1.8c-0.1-2.3,1.9-1.4,1.9-1.4v-1.7c-1.6-0.1-1.9,0.9-1.9,0.9
		v-0.8L87.6,110.8"/>
	<path id="path2474" class="st3" d="M152.7,86.8c0,0,0.3-2,2.6-2s2.6,2,2.6,2H152.7z M155.3,81.8c-7.4,0-7.1,6.7-7.1,6.7
		c0,1.5,0.4,6.9,7.2,6.9c6,0,6.6-4.3,6.6-4.3h-4.4c0,0-0.5,1.2-2.3,1.2s-2.6-1-2.6-2.9h9.5C162.1,89.3,162.6,81.8,155.3,81.8"/>
	<path id="path2476" class="st3" d="M89.7,124.6c0,0,0.2-1.1,1.5-1.1c1.2,0,1.4,1.1,1.4,1.1H89.7z M91.1,121.9c-4,0-3.9,3.7-3.9,3.7
		c0,0.8,0.2,3.8,4,3.8c3.3,0,3.6-2.4,3.6-2.4h-2.4c0,0-0.2,0.7-1.2,0.7c-1,0-1.5-0.6-1.5-1.7h5.2C94.9,126,95.1,121.9,91.1,121.9"/>
	<path id="path2478" class="st3" d="M61,86.8c0,0,0.3-2,2.6-2c2.3,0,2.6,2,2.6,2H61z M63.5,81.8c-7.4,0-7.1,6.7-7.1,6.7
		c0,1.5,0.4,6.9,7.2,6.9c6,0,6.6-4.3,6.6-4.3h-4.4c0,0-0.5,1.2-2.3,1.2c-1.8,0-2.6-1-2.6-2.9l9.6-0.1C70.4,89.3,70.9,81.8,63.5,81.8
		"/>
	<path id="path2480" class="st3" d="M83.8,82.2v12.6h4.5v-7c0,0,0.1-2.6,2.3-2.6c2.2,0,2.1,2.6,2.1,2.6v7h4.5c0,0,0-6,0-6.9
		s0.3-6.1-4.5-6.1c-3.3,0-4.4,2.1-4.4,2.1v-1.7H83.8"/>
	<path id="path2482" class="st3" d="M145.6,122.2v6.9h2.5v-3.9c0,0,0-1.4,1.2-1.4s1.2,1.4,1.2,1.4v3.9h2.5c0,0,0-3.3,0-3.8
		s0.2-3.4-2.5-3.4c-1.8,0-2.4,1.2-2.4,1.2v-0.9L145.6,122.2"/>
	<path id="path2484" class="st3" d="M123.4,118v11.2h2.5v-3.9c0,0,0-1.4,1.2-1.4s1.2,1.4,1.2,1.4v3.9h2.5c0,0,0-3.3,0-3.8
		s0.2-3.4-2.5-3.4c-1.8,0-2.4,1.2-2.4,1.2V118H123.4"/>
	<path id="path2486" class="st3" d="M106.8,91.6c-1.7,0-3-1.3-3-3s1.3-3,3-3s3,1.3,3,3S108.4,91.6,106.8,91.6z M109.6,82.2v1.3
		c0,0-1.2-1.7-3.9-1.7c-3.4,0-6.4,2.4-6.4,6.9c0.2,5.5,4.5,6.7,6.4,6.7c2.7,0,4-1.8,4-1.8v1.4h4.5V82.2H109.6"/>
	<path id="path2488" class="st3" d="M140,127.3c-0.9,0-1.7-0.7-1.7-1.7s0.7-1.7,1.7-1.7s1.7,0.7,1.7,1.7S140.9,127.3,140,127.3z
		 M141.6,122.1v0.7c0,0-0.7-0.9-2.1-0.9c-1.9,0-3.6,1.3-3.6,3.8c0.1,3,2.5,3.7,3.5,3.7c1.5,0,2.1-1,2.1-1v0.8h2.5v-7h-2.4"/>
	<path id="path2490" class="st3" d="M158.3,127.3c-0.9,0-1.7-0.7-1.7-1.7s0.7-1.7,1.7-1.7s1.7,0.7,1.7,1.7S159.2,127.3,158.3,127.3z
		 M159.8,117.9v5c0,0-0.7-0.9-2.1-0.9c-1.9,0-3.6,1.3-3.6,3.8c0.1,3,2.5,3.7,3.5,3.7c1.5,0,2.1-1,2.1-1v0.8h2.5v-11.4L159.8,117.9"
		/>
	<path id="path2492" class="st3" d="M80.2,126.9v-5.6c0,0,3.5-0.4,3.5,2.9C83.8,127.3,80.2,126.9,80.2,126.9z M81,119.1
		c-0.1,0-3.4,0-3.4,0v10.1c0,0,1.7,0,3.4,0c2,0,5.5-0.8,5.5-5C86.4,120.4,83.3,119,81,119.1"/>
	<path id="path2494" class="st3" d="M96,122.2h2.3v4c0,1.5,2.5,1.5,2.5,0v-4h2.4v4.4c0,0,0.3,2.8-3.6,2.8c-4,0-3.6-2.9-3.6-2.9
		V122.2"/>
	<path id="path2496" class="st3" d="M81.3,110.8H83v2.8c0,1,1.7,1,1.7,0v-2.8h1.7v3.1c0,0,0.2,2-2.5,2c-2.8,0-2.6-2-2.6-2V110.8"/>
	<path id="path2498" class="st3" d="M114.5,123.9c-0.3-0.2-2.1-0.7-2.1,0.2c-0.1,1.1,3.3,0.1,3.1,2.7c-0.1,1.9-1.6,2.5-3.1,2.5
		c-1,0-2.3-0.3-2.9-0.8l0.8-1.7c0.4,0.3,2.6,1.2,2.8,0.2c0.2-1.1-3.2-0.2-3.1-2.6c0.2-3.5,4.5-2.5,5.3-2L114.5,123.9"/>
	<path id="path2500" class="st3" d="M121.8,122.4c-1.2-0.8-5.4-0.5-5.5,3.2c-0.1,4.2,4.6,4,5.5,3.4v-2.1c0,0-1.2,0.8-2.2,0.2
		c-1.2-0.7-0.8-2.4-0.1-2.9c1.3-0.8,2.3,0.2,2.3,0.2V122.4"/>
	<path id="path2502" class="st3" d="M83.5,109c0,0.5-0.4,0.8-0.8,0.8c-0.5,0-0.8-0.4-0.8-0.8s0.4-0.8,0.8-0.8S83.5,108.6,83.5,109"
		/>
	<path id="path2504" class="st4" d="M83.5,109c0,0.5-0.4,0.8-0.8,0.8c-0.5,0-0.8-0.4-0.8-0.8s0.4-0.8,0.8-0.8S83.5,108.6,83.5,109z"
		/>
	<path id="path2506" class="st3" d="M85.9,109c0,0.5-0.4,0.8-0.8,0.8c-0.5,0-0.8-0.4-0.8-0.8s0.4-0.8,0.8-0.8S85.9,108.6,85.9,109"
		/>
	<path id="path2508" class="st4" d="M85.9,109c0,0.5-0.4,0.8-0.8,0.8c-0.5,0-0.8-0.4-0.8-0.8s0.4-0.8,0.8-0.8S85.9,108.6,85.9,109z"
		/>
</g>
</svg>
