<?xml version="1.0" encoding="utf-8"?>
<!-- Generator: Adobe Illustrator 20.1.0, SVG Export Plug-In . SVG Version: 6.00 Build 0)  -->
<svg version="1.1" id="Ebene_1" xmlns="http://www.w3.org/2000/svg" xmlns:xlink="http://www.w3.org/1999/xlink" x="0px" y="0px"
	 viewBox="0 0 200 200" style="enable-background:new 0 0 200 200;" xml:space="preserve">
<style type="text/css">
	.st0{fill:#ECECEC;}
	.st1{fill:#E2000B;}
</style>
<rect class="st0" width="200" height="200"/>
<g>
	<path class="st1" d="M97,94.5l-2.8,18.1c-0.6,4,1.6,7.1,5.9,7.1c3.7,0,6.8-2.5,7.5-7.1l2.8-18.1h10.9l-2.6,17
		c-1.4,9.4-6.7,15.8-19.3,15.8c-8.4,0-13.1-3-15.1-7c-1.5-2.9-1.6-6.4-1.1-9.3l2.5-16.6L97,94.5L97,94.5z"/>
	<path class="st1" d="M38.4,118.2c-1.6,0.5-5.3,0.9-9,0.9c-8.3,0-11.2-3.9-10.9-8.6c0.3-5.2,4.8-8.8,13.5-8.8c3.5,0,7.2,0.9,8.1,1.2
		l1.2-7.6C39.6,94.9,35,94,28.7,94c-15.3,0-20.6,8.5-21.6,14.7c-1.4,8.8,4.2,18.6,19,18.6c4.7,0,9.6-0.7,11.1-1.4L38.4,118.2
		L38.4,118.2z"/>
</g>
<path class="st1" d="M64.8,94.5H46.2l-4.9,32.2H61c12.3,0,17.6-6.4,18.7-16.2C80.8,100.5,75.1,94.5,64.8,94.5z M68.7,110.5
	c-0.7,4.8-2.8,9.1-9.5,9.1h-5.9l2.7-18.2h5.3c2.5,0,4,0.4,5.2,1.3C68.4,104.3,69.2,107.2,68.7,110.5z"/>
</svg>
