<?xml version="1.0" encoding="utf-8"?>
<!-- Generator: Adobe Illustrator 20.1.0, SVG Export Plug-In . SVG Version: 6.00 Build 0)  -->
<svg version="1.1" id="Ebene_1" xmlns="http://www.w3.org/2000/svg" xmlns:xlink="http://www.w3.org/1999/xlink" x="0px" y="0px"
	 viewBox="0 0 200 200" style="enable-background:new 0 0 200 200;" xml:space="preserve">
<style type="text/css">
	.st0{fill:#449528;}
	.st1{fill:#4BB4E7;}
	.st2{fill:#FFED00;}
	.st3{fill:#FFFFFF;}
</style>
<rect id="Schutzzone" y="0.1" class="st0" width="200" height="200"/>
<polygon id="Balken" class="st1" points="14.8,145.5 119.5,145.5 120.5,139.5 15.8,139.5 "/>
<path id="Blume" class="st2" d="M185.2,93.1c0-0.2-0.6-0.4-1-0.8c-1.3-1.1-6-5.7-15.2-5.4c-1.2,0-2.2,0.1-3.2,0.3c2-0.6,3-1,3.6-1.3
	c0.7-0.3,5.4-1.9,7.9-10.1c0.2-0.7,0.8-2.4,0.7-2.5c-0.2-0.2-1.8,0.1-3.4,1.1c-1.6,1-7,1.8-7.6,1.9c-0.4,0.1-2-0.2-4.3,1.1
	c2.7-2.7,5.5-6.6,6.2-12c0.4-2.6,0.2-3.7,0.1-3.7c-0.2,0-0.2,0-0.4,0.1c-0.6,0.2-1.2,0.7-3.1,2c-2,1.3-4,2.8-4,2.8s0.7-7.1,0.5-7.3
	s-4.2-0.1-10.4,6.8c0,0,0.7-5.9-0.5-8.1c0,0-0.3-1.6-0.6-2.5c-0.1-0.4-0.5-0.9-0.5-0.8c-0.1,0-0.6,0.1-1.5,1.1
	c-1.4,1.6-7.7,3.5-8.8,11.7c-0.8-3.3-2.5-7.7-6.7-10c-2.4-2.3-3.4-3-3.5-2.9s-0.1,1.1-0.4,3.4c-0.4,2.6-0.8,3.4-0.8,3.4
	s-4.4-3.8-4.5-4c-0.2-0.2-2.9,8.2-2.1,12.4c0,0-1.4-1.1-3.9-2.4c-2.9-1.5-7.7-1.7-7.6-1.5c0.1,0.4,4.1,8.2,5.7,10.9
	c0,0-10.8-1.8-10.6-1.2c0.1,0.2,0.3,0.6,0.7,2.4c0,0-4.2-0.1-4.2,0.3c0.1,0.4,3.2,5.6,3.4,5.9c0,0-3.3,0.6-4,0.7
	c-0.5,0,2.2,7.3,9.5,9.2c1,0.3,2,0.4,3,0.6c0.8,0.1,1.8,0.2,2.7,0.3c4.3,0.2,7.2-0.9,6.7-2.5c0,0-0.1-0.6-4.6-2.2
	c0,0,0.1-0.5,0.4-0.6s4.9,1.6,4.6,1.3c-0.3-0.3-2-2.2-1.7-2.1c0.3,0,2.5,0.9,3.2,0.3s1.1-1.8,1.6-2.1s-1.2-1.8,1-1.1
	c0,0,1.5-0.8,0.3-2.2c-1.2-1.4-4.9-5.7,1.2-0.5c1.4,1.3,5.1-2.6,4.8-4.7c0,0,1.4,1.5,1.7,1.6c0.3,0.2,2.3,0.4,2.8-0.3
	c0.2-0.3-0.7-3.3-0.1-4.6c0,0,0.3,0,0.5,0.3s0.3,3.4,1.4,4c0,0,1.2-0.7,1.4-1.3c0.2-0.5-0.3,3.4,3.4,1.7c0,0,1.8-1.6,2.3-1.6
	s-0.4,1.9,0.1,2.6c0.5,0.7,2,1.2,2.4,0.3c0.5-0.9,2.8-2.6,3-2.5c0.2,0.1-1.2,3.7-1.3,4c-0.2,0.5-0.4,1.3-0.4,1.3s0.2,1,1.4,1.3
	c0,0,2.4-1.4,4.8-3.2c-0.3,0.3-0.5,0.6-0.8,1c0,0-3.2,3.3-3.2,3.8s1.1,1.5,2,0.9c0.9-0.6,3.1-1.5,3.2-1.3c0.2,0.2,0.5,0.6,0.1,0.9
	c-0.5,0.3-3,1.6-3,1.6s2.9,0.2,6.4-0.5c-3.8,1.5-5.1,3.9-5.1,4.1c0.1,0.8,6-0.8,6.2-0.4c0.8,1.9-1.9,0.7-3.1,0.9
	c-1.2,0.2-4.3,0.3-1.4,2.7c0,0,0.5,0-0.9,0.9c-1.4,0.8,3.1,1.3,3.6,1.9c0.5,0.6-4.5-0.1-4.4,1.4s-0.9,0.6,2.5,4.1c0,0-2-0.5-2.2-0.2
	c-0.2,0.3,4.4,4.1,4.3,5.2c0,0-0.9,0.6-1.3,0.1c-0.4-0.6-3.2-3.6-3.6-3.7c-0.3-0.1-1,0.1-1.3,0.7c0,0,1.2,2.8,0.8,2.9
	s-2.3-1.3-2.3-1.3s-1.2,0.6-0.8,1.7s3.8,5,3.6,5.2c0,0-0.3,0.6-0.7,0.6s-2.8-4.3-3.4-4.4c-0.6-0.2,0.7,4,0.7,4s-2.1-2.2-2.7-2.7
	c-0.6-0.5-0.6,0.5-0.6,0.5l0.6,4.7c0,0-6.6-9.8-5,1.9c0,0-0.2,0.7-0.4,0.6c-0.2,0-1.6-3.9-1.5-4.9c0.2-1.1-1.2,2.9-1.2,2.9
	s-2.1-8.2-6.3,0.2c0,0-0.3-3.2-1-3.7s-1.2-0.7-1.4-0.7c-0.1,0-1,0-1.8,1.4c-3,3.9-4.9,8.9-5.5,13.3c-0.1,3,0.2,8.5,0.1,9.6
	c-0.1,0.7,0.1,0.8,0.2,1c0,0.1,1.2-0.9,1.5-1.1c0.5-0.4,6-7.7,6.4-9.6c0,0,2.9,12.9,3.9,14.3c0.2,0.3,0.4,0.6,0.5,0.4
	c0.3-0.5,0.7-1.7,1.1-1.8c0.4-0.1,1.7-0.3,2.3-2.1c0.7-1.8,1.8-3.6,2.4-8.4c0,0,6.2,7.9,7,8.7c0.3,0.3,2-2.5,2.8-7
	c0.7-4.5-0.9-10.6-1.9-10.8c0,0-0.4-0.7,0.8-0.2c0.7,0.2,3.3,4.7,9.2,8.2c1,0.6,3.1,0.6,3.2,0.5c0.5-1.3-4.2-13.6-4.2-13.6
	s0.1-0.1,1.1,0.2c0.9,0.4,9.9,6.2,15.3,3.5c1.1-0.6,1.2-0.7,1.2-0.7c0.6-2.7-4.2-7.7-7.1-10c0,0,7.7-0.3,8.9-2.4
	c0,0,1.4-0.5,2.2-1.5c0.1-0.2-0.8-1.9-1.9-2.7c-2.9-2-3.5-2.8-3.5-2.8s0.8-1,2-1.4s5-2.7,4-3.9C184,94.4,185.3,93.4,185.2,93.1"/>
<g id="Typo">
	<path class="st3" d="M114.7,134.1l0.6-3.8c0.1-0.6,0.2-1.3,0.2-2c0.1-0.8,0.1-1.7,0.1-2.7c0.1,0.5,0.1,0.9,0.2,1.4s0.2,1.1,0.3,1.6
		l1.2,5.4h4l2.5-14.8h-4l-0.6,3.3c-0.1,0.6-0.2,1.4-0.3,2.3c-0.1,0.9-0.1,2-0.2,3.3l-0.2-1.3c-0.1-0.5-0.2-1-0.2-1.4
		c-0.1-0.4-0.1-0.7-0.2-1.1l-1.2-5.2h-3.8l-2.5,14.8h4.1V134.1z"/>
	<polygon class="st3" points="109,134.1 109.5,130.6 105.9,130.6 106.3,128.5 109.5,128.5 110.1,125 106.9,125 107.2,122.9 
		110.8,122.9 111.4,119.4 103.6,119.4 101.2,134.1 	"/>
	<path class="st3" d="M92.6,134.1l0.6-3.8c0.1-0.6,0.2-1.3,0.2-2c0.1-0.8,0.1-1.7,0.1-2.7c0.1,0.5,0.1,0.9,0.2,1.4s0.2,1.1,0.3,1.6
		l1.2,5.4h4l2.5-14.8h-4l-0.6,3.3c-0.1,0.6-0.2,1.4-0.3,2.3c-0.1,0.9-0.1,2-0.2,3.3l-0.2-1.1c-0.1-0.5-0.2-1-0.2-1.4
		c-0.1-0.4-0.1-0.7-0.2-1.1l-1.2-5.2H91l-2.5,14.8C88.5,134.1,92.6,134.1,92.6,134.1z"/>
	<path class="st3" d="M72,124.1c-0.1,0.5-0.3,1-0.7,1.3c-0.4,0.4-0.8,0.6-1.3,0.6h-0.3l0.6-3.5h0.2C71.6,122.5,72.2,123,72,124.1
		 M76.1,124.3c0.3-1.7-0.1-3-1.1-3.9c-0.8-0.7-2.2-1.1-4.1-1.1h-4.3l-2.5,14.8h4.2l0.9-5.2l0.1-1c0,0.2,0.1,0.4,0.1,0.5s0,0.3,0,0.4
		l1.2,5.3h4.5l-2-6.1C74.8,127.3,75.8,126.1,76.1,124.3"/>
	<path class="st3" d="M57.7,128.7h1.5c0,0.3-0.1,0.5-0.2,0.8c-0.1,0.2-0.2,0.4-0.4,0.6c-0.2,0.2-0.3,0.3-0.5,0.4s-0.4,0.1-0.6,0.1
		c-0.6,0-0.9-0.3-1.1-0.8c-0.2-0.5-0.1-1.4,0.1-2.6c0.5-2.8,1.3-4.3,2.4-4.3c0.3,0,0.6,0.1,0.8,0.4s0.3,0.6,0.2,1.1l4.3-1.4
		c-0.7-2.4-2.3-3.6-4.7-3.6c-1.8,0-3.4,0.7-4.7,2s-2.1,3.2-2.5,5.5s-0.1,4.1,0.7,5.4c0.8,1.3,2.2,1.9,4.1,1.9c1.9,0,3.4-0.7,4.6-2
		c1.1-1.2,1.9-3.2,2.3-6l0.1-0.6h-5.8L57.7,128.7z"/>
	<polygon class="st3" points="42.9,134.1 43.5,130.6 39.9,130.6 40.2,128.5 43.5,128.5 44,125 40.8,125 41.2,122.9 44.8,122.9 
		45.4,119.4 37.6,119.4 35.1,134.1 	"/>
	<polygon class="st3" points="35.6,119.4 31.4,119.4 29,134.1 33.2,134.1 	"/>
	<path class="st3" d="M24.4,126.9c-0.4,2.4-1.4,3.6-2.9,3.7l1.3-7.5h0.1c0.6,0,1.1,0.3,1.4,1C24.5,124.8,24.6,125.7,24.4,126.9
		 M28.7,126.8c0.4-2.5,0-4.4-1.3-5.8c-1-1.1-2.5-1.6-4.6-1.6h-3.6l-2.5,14.8h3.9c2.2,0,3.9-0.6,5.2-1.7
		C27.3,131.1,28.3,129.2,28.7,126.8"/>
	<path class="st3" d="M122.2,106.7c-0.2,1.3-0.5,2.3-0.8,2.9s-0.7,0.9-1.2,0.9c-0.9,0-1.1-1.4-0.6-4.2c0.4-2.3,1-3.5,1.9-3.5
		S122.6,104.1,122.2,106.7 M125.8,101.3c-0.7-1.3-2-2-3.7-2s-3.2,0.7-4.4,2c-1.2,1.3-2,3.1-2.4,5.3c-0.4,2.4-0.2,4.2,0.6,5.5
		c0.8,1.3,2,2,3.8,2c1.6,0,3-0.7,4.2-2s2-3.1,2.3-5.3C126.7,104.4,126.5,102.6,125.8,101.3"/>
	<path class="st3" d="M110.3,104.4c-0.2,1.3-0.7,1.9-1.5,1.9s-1.1-0.6-0.9-1.9c0.2-1.3,0.7-2,1.6-2
		C110.2,102.4,110.5,103,110.3,104.4 M113.5,100.7c-0.8-1-1.9-1.4-3.4-1.4c-1.6,0-3,0.5-4.1,1.5c-1.2,1-1.9,2.2-2.1,3.8
		c-0.2,1.3,0,2.4,0.6,3.3s1.4,1.3,2.5,1.3c0.4,0,0.9-0.1,1.5-0.4c-0.2,0.2-0.4,0.4-0.5,0.6c-0.2,0.2-0.3,0.4-0.4,0.5l-3.2,4.2h4.5
		l1.8-2.5c2.2-3,3.4-5.3,3.7-7C114.5,103,114.3,101.7,113.5,100.7"/>
	<path class="st3" d="M91.1,114.1c1.4,0,2.7-0.5,3.8-1.4c1.1-0.9,1.7-2.1,2-3.5c0.1-0.8,0.1-1.5-0.2-2.2c-0.3-0.6-0.8-1.2-1.6-1.8
		l-0.6-0.5c-0.5-0.4-0.7-0.8-0.7-1.1c0-0.2,0.2-0.4,0.4-0.6c0.2-0.2,0.5-0.3,0.8-0.3c0.4,0,0.8,0.1,1.2,0.4c0.4,0.3,0.7,0.7,1,1.2
		l0.7-4.4C97,99.4,96,99.2,95,99.2c-1.1,0-2.1,0.3-3,0.9c-0.3,0.2-0.6,0.5-0.9,0.7c-0.3,0.3-0.5,0.6-0.7,0.9
		c-0.5,0.7-0.7,1.4-0.8,2.1c-0.1,0.4-0.1,0.8,0,1.1c0,0.4,0.1,0.7,0.3,1c0.1,0.3,0.4,0.7,0.6,1c0.3,0.3,0.6,0.6,1,0.9l0.6,0.5
		c0.4,0.4,0.6,0.7,0.6,1.1c0,0.3-0.2,0.5-0.5,0.7s-0.6,0.3-0.9,0.3c-1,0-1.8-0.5-2.4-1.6l-0.9,4.7C89.1,113.9,90.1,114.1,91.1,114.1
		"/>
	<polygon class="st3" points="88.8,99.3 84.6,99.3 82.2,114.1 86.4,114.1 	"/>
	<path class="st3" d="M73.5,114.1l0.6-3.8c0.1-0.6,0.2-1.3,0.2-2c0.1-0.8,0.1-1.7,0.1-2.7c0.1,0.5,0.1,0.9,0.2,1.5
		c0.1,0.5,0.2,1.1,0.3,1.6l1.2,5.4h4l2.5-14.8h-4l-0.6,3.3c-0.1,0.6-0.2,1.4-0.3,2.3c-0.1,0.9-0.1,2-0.2,3.3l-0.2-1.3
		c-0.1-0.5-0.2-1-0.2-1.4c-0.1-0.4-0.1-0.7-0.2-1.1l-1.2-5.2H72L69.5,114L73.5,114.1L73.5,114.1z"/>
	<path class="st3" d="M65.2,106.8c-0.4,2.4-1.4,3.6-2.9,3.7l1.3-7.5h0.1c0.7,0,1.1,0.3,1.4,1C65.3,104.7,65.3,105.7,65.2,106.8
		 M69.5,106.7c0.4-2.5,0-4.4-1.3-5.8c-1-1.1-2.5-1.6-4.6-1.6H60l-2.5,14.8h3.9c2.2,0,3.9-0.6,5.2-1.7C68.1,111,69,109.1,69.5,106.7"
		/>
	<path class="st3" d="M48.9,114.1l0.6-3.8c0.1-0.6,0.2-1.3,0.2-2c0.1-0.8,0.1-1.7,0.1-2.7c0.1,0.4,0.2,0.9,0.2,1.4
		c0.1,0.5,0.2,1.1,0.3,1.6l1.2,5.4h4L58,99.3h-4l-0.6,3.3c-0.1,0.6-0.2,1.4-0.3,2.3s-0.1,2-0.2,3.3l-0.2-1.3c-0.1-0.5-0.2-1-0.2-1.4
		c-0.1-0.4-0.1-0.7-0.2-1.1l-1.2-5.2h-3.8L44.8,114L48.9,114.1L48.9,114.1z"/>
	<path class="st3" d="M28,103.6c-0.1,0.4-0.3,0.7-0.6,0.9c-0.3,0.2-0.7,0.3-1.2,0.3h-0.3l0.4-2.5c0.1,0,0.2,0,0.3,0
		c0.1,0,0.1,0,0.2,0C27.7,102.4,28.1,102.8,28,103.6 M25.6,108c0.5,0,0.9,0.1,1.2,0.4c0.3,0.3,0.4,0.6,0.3,1.1s-0.3,0.8-0.6,1.1
		c-0.4,0.3-0.8,0.4-1.3,0.4h-0.1c-0.1,0-0.1,0-0.2,0l0.5-2.9L25.6,108L25.6,108z M32.1,103.5c0.2-1.2-0.1-2.3-0.8-3
		c-0.8-0.8-2-1.1-3.9-1.1h-4.9L20,114.2h6c1.4,0,2.6-0.4,3.6-1.2c1-0.8,1.6-1.8,1.8-3.1c0.2-1,0-1.8-0.4-2.3s-1.2-0.9-2.2-1
		C30.7,106.3,31.8,105.3,32.1,103.5"/>
	<path class="st3" d="M83.1,129c-0.1,0.7-0.3,1.1-0.5,1.4c-0.2,0.3-0.5,0.4-0.9,0.4s-0.6-0.1-0.8-0.4c-0.1-0.3-0.1-0.7,0-1.4
		l1.6-9.5h-4.2l-1.6,9.9c-0.3,1.9,0.1,3.3,1.2,4.1c0.9,0.7,2,1,3.4,1c1.3,0,2.4-0.3,3.4-0.9c0.7-0.5,1.3-1,1.7-1.5
		c0.4-0.5,0.6-1.3,0.8-2.1l1.7-10.4h-4.2L83.1,129z"/>
	<path class="st3" d="M83.2,115.6c-0.3-0.3-0.6-0.4-1.1-0.4c-0.4,0-0.8,0.1-1.2,0.4c-0.4,0.3-0.6,0.7-0.6,1.1
		c-0.1,0.4,0,0.8,0.3,1.1c0.3,0.3,0.6,0.4,1.1,0.4c0.4,0,0.8-0.1,1.2-0.4c0.4-0.3,0.6-0.7,0.7-1.1C83.5,116.2,83.4,115.9,83.2,115.6
		"/>
	<path class="st3" d="M87.6,115.6c-0.3-0.3-0.6-0.5-1.1-0.5c-0.4,0-0.8,0.1-1.2,0.4c-0.4,0.3-0.6,0.7-0.6,1.1
		c-0.1,0.4,0,0.8,0.3,1.1c0.3,0.3,0.6,0.4,1.1,0.4c0.4,0,0.8-0.1,1.2-0.4c0.4-0.3,0.6-0.6,0.6-1.1C88,116.3,87.9,115.9,87.6,115.6"
		/>
	<path class="st3" d="M39.4,108.8c-0.1,0.7-0.3,1.1-0.5,1.4c-0.2,0.2-0.5,0.4-0.9,0.4s-0.6-0.1-0.8-0.4c-0.1-0.3-0.1-0.7,0-1.4
		l1.6-9.5h-4.2l-1.6,9.9c-0.3,1.9,0.1,3.3,1.2,4.1c0.9,0.7,2,1,3.4,1c1.3,0,2.4-0.3,3.4-0.9c0.7-0.5,1.3-1,1.7-1.5s0.6-1.3,0.8-2.1
		l1.7-10.4H41L39.4,108.8z"/>
	<path class="st3" d="M39.5,95.4c-0.3-0.3-0.6-0.4-1.1-0.4c-0.4,0-0.8,0.1-1.2,0.4c-0.4,0.3-0.6,0.7-0.6,1.1c-0.1,0.4,0,0.8,0.3,1.1
		S37.5,98,38,98c0.4,0,0.8-0.1,1.2-0.4c0.4-0.3,0.6-0.7,0.7-1.1C39.8,96.1,39.7,95.7,39.5,95.4"/>
	<path class="st3" d="M43.9,95.4c-0.3-0.3-0.6-0.5-1.1-0.5c-0.4,0-0.8,0.1-1.2,0.4S41,96,41,96.4c-0.1,0.4,0,0.8,0.3,1.1
		s0.6,0.4,1.1,0.4c0.4,0,0.8-0.1,1.2-0.4s0.6-0.6,0.6-1.1C44.3,96.1,44.2,95.7,43.9,95.4"/>
</g>
</svg>
