<?xml version="1.0" encoding="utf-8"?>
<!-- Generator: Adobe Illustrator 21.0.0, SVG Export Plug-In . SVG Version: 6.00 Build 0)  -->
<svg version="1.1" id="Ebene_1" xmlns="http://www.w3.org/2000/svg" xmlns:xlink="http://www.w3.org/1999/xlink" x="0px" y="0px"
	 viewBox="0 0 200 200" style="enable-background:new 0 0 200 200;" xml:space="preserve">
<style type="text/css">
	.st0{fill:#E3000B;}
	.st1{fill:#FFFFFF;}
</style>
<g>
	<rect class="st0" width="200" height="200"/>
	<path class="st1" d="M183.6,117.4c2.8,0,5.6-2.2,6.1-5.2c0.5-3-1.6-5.3-4.5-5.3c-2.7,0-5.4,2.3-5.9,5.2
		C178.8,115.1,180.7,117.4,183.6,117.4L183.6,117.4z M158.4,116.9h16.4l1.2-8.1h-7.6l0.8-5.3h6.8l1.2-8.1h-6.8l0.7-4.7h7.6l1.2-8.1
		h-16.3L158.4,116.9L158.4,116.9z M156.8,116.9l-5.3-17.7l9.6-16.6h-9.3l-7.1,14.5l2.1-14.5h-8.8l-5.2,34.2h8.8l2.3-15.7l3.1,15.7
		H156.8L156.8,116.9z M106.4,116.9h8.5l1.5-10c0.5-3.2,0.6-6.4,0.8-9.6l3.7,19.7h8.5l5.2-34.2h-8.5l-1.3,8.7
		c-0.6,3.9-0.5,7.9-0.8,11.8l-4-20.5h-8.4L106.4,116.9L106.4,116.9z M90.8,116.9l1.2-8.1h-6.7l3.9-26.2h-8.8l-5.2,34.2H90.8
		L90.8,116.9z M49.4,116.9h16.4l1.2-8.1h-7.6l0.8-5.3H67l1.2-8.1h-6.8l0.7-4.7h7.6l1.2-8.1H54.5L49.4,116.9L49.4,116.9z M45.9,116.9
		L51,82.6h-8.8l-5.2,34.2H45.9L45.9,116.9z M24.5,91.2c4,0,3.9,5.2,3.3,8.9c-0.5,3.2-2,8.5-6,8.5L24.5,91.2L24.5,91.2z M11.8,116.9
		h7.7c5.4,0,15.1-1.4,17.5-17.3c1.5-10.3-2.8-17-12.9-17H17L11.8,116.9L11.8,116.9z M102.8,116.9l4.3-28h-8.8l-4.4,28H102.8
		L102.8,116.9z"/>
	<polygon class="st1" points="108.9,77.5 91.9,82.6 107.4,87.2 	"/>
</g>
</svg>
