<?xml version="1.0" encoding="utf-8"?>
<!-- Generator: Adobe Illustrator 21.0.0, SVG Export Plug-In . SVG Version: 6.00 Build 0)  -->
<svg version="1.1" id="Ebene_1" xmlns="http://www.w3.org/2000/svg" xmlns:xlink="http://www.w3.org/1999/xlink" x="0px" y="0px"
	 viewBox="0 0 200 200" style="enable-background:new 0 0 200 200;" xml:space="preserve">
<style type="text/css">
	.st0{fill:#E2000B;}
	.st1{fill:#FFFFFF;}
</style>
<g>
	<polygon class="st0" points="0,0 200,0 200,200 0,200 	"/>
	<path class="st1" d="M65.1,123.4h27.3c15.7,0,19.8,11.4,19.8,20.4c0,12.1-5,21-20.6,21h-9v20.4H65.1V123.4L65.1,123.4z M82.6,151.5
		H84c5.8,0,11.6,0.3,11.6-7.2c0-7.2-5.3-7.2-11.6-7.2h-1.4V151.5L82.6,151.5z"/>
	<path class="st1" d="M116.1,123.4h26.1c17.2,0,27.6,13.5,27.6,30.8s-10.5,30.9-27.6,30.9h-26.1V123.4L116.1,123.4z M133.8,171.1
		h1.9c9.6,0,16.7-5.6,16.7-16.8c0-9.4-6.3-16.1-16.6-16.1h-2.1v32.9H133.8z"/>
	<path class="st1" d="M51.2,140.5c-3.4-2.2-8.8-3.5-11.4-3.5c-3.1,0-7.2,0.9-7.2,4.3c0,3.6,4,4.3,7.6,5.2c0,0,4.4,1,6.3,1.6
		c8.2,2.7,14.3,5.6,14.3,16.5c0,6.1-1.6,12.1-6.8,16.2c-5.1,4.2-12,6.2-18.6,6.2c-8.3,0-16.6-2-23.5-7.7l7.7-12.9
		c4.3,3.5,9.4,6.7,15.2,6.7c4,0,8-1.2,8-5.5c0-4.5-6.4-4.7-10.1-5.7c-8-2-17.8-4.7-17.8-19.1c0-12.5,9.5-20.7,22.7-20.7
		c6.6,0,15.1,3.1,21,6.2L51.2,140.5L51.2,140.5z"/>
</g>
</svg>
