<?xml version="1.0" encoding="utf-8"?>
<!-- Generator: Adobe Illustrator 21.0.2, SVG Export Plug-In . SVG Version: 6.00 Build 0)  -->
<svg version="1.1" id="Ebene_1" xmlns="http://www.w3.org/2000/svg" xmlns:xlink="http://www.w3.org/1999/xlink" x="0px" y="0px"
	 viewBox="0 0 53 53.7" style="enable-background:new 0 0 53 53.7;" xml:space="preserve">
<style type="text/css">
	.st0{fill:none;stroke:#42BDE2;stroke-width:3;stroke-linecap:round;stroke-linejoin:round;stroke-miterlimit:10;}
</style>
<g>
	<path class="st0" d="M40.9,11.8c8.3,8.3,12.8,18,9.5,21.4c-3.3,3.3-13.2-1-21.5-9.3s-12.3-17.7-9-21C23.2-0.5,32.6,3.5,40.9,11.8z"
		/>
	<path class="st0" d="M18.7,8.1l-14.4,35c-1.1-0.5-2.1-0.6-2.5-0.2C1,43.7,1.8,46.8,4,49s4.7,3.3,5.6,2.4c0.5-0.5,0.4-1.4-0.2-2.6
		l35.1-14.4"/>
	<path class="st0" d="M19.8,44.8l2.2,4c0.5,1,1.7,1.5,2.8,1l10.8-4.1c1.1-0.5,1.6-1.8,1.1-2.9L35,38.4"/>
</g>
</svg>
