<?xml version="1.0" encoding="UTF-8"?><svg id="Ebene_1" xmlns="http://www.w3.org/2000/svg" viewBox="0 0 459.84 1180.07"><defs><style>.cls-1{fill:#053159;}.cls-2{fill:#fdcfb0;}.cls-3{fill:#ffb000;}.cls-4{fill:#fff200;}.cls-5{fill:#fff;}.cls-6{fill:#f2a700;}.cls-7{fill:#ffba00;}.cls-8{fill:#ff5b00;}.cls-9{fill:#872e02;}.cls-10{fill:#293e53;}.cls-11{fill:#5e3505;}.cls-12{opacity:.29;}.cls-12,.cls-13,.cls-14,.cls-15{isolation:isolate;}.cls-12,.cls-14{fill:#e6f5ff;}.cls-13{fill:#bf777c;opacity:.4;}.cls-14{opacity:.47;}.cls-16{fill:none;stroke:#021a30;stroke-miterlimit:10;stroke-width:2px;}.cls-15{opacity:.22;}</style></defs><g id="Feuer"><path id="Pfad_7" class="cls-8" d="m173.45,716.13s-53.06,269.22,56.61,463.94c6-9.72,114.71-206.61,59.03-463.94-6.45.06-115.65,0-115.65,0Z"/><path id="Pfad_8" class="cls-3" d="m189.46,716.13s-16.1,184.52,40.73,277.78c8.9-13.32,57.42-128.27,41.01-277.78h-81.74Z"/><path id="Pfad_9" class="cls-4" d="m202.29,716.13s3.61,44.83,28.14,68.23c7.29-5.88,32.06-42.23,30.13-68.23h-58.27Z"/></g><path id="Pfad_5" class="cls-7" d="m82.7,389.96s-164.86,193.9-29.04,420.53c3.74-13.01,41.58-129.68,98.94-137.37-4.8-11.67-69.9-283.16-69.9-283.16Z"/><path id="Pfad_6" class="cls-7" d="m377.15,389.96s164.86,193.9,29.04,420.54c-3.74-13.01-41.58-129.69-98.94-137.37,4.79-11.67,69.9-283.17,69.9-283.17Z"/><path id="Pfad_4" class="cls-6" d="m410.85,441.13c-9.64-18.05-20.92-35.18-33.7-51.17,0,0-65.1,271.49-69.9,283.17,19.92,2.66,37.48,18.48,52.09,38.53,17.22-33.89,73.2-231,51.51-270.53Z"/><path id="Pfad_4-2" class="cls-10" d="m230.94.85s283.66,298.09,59.4,720.15h-117.39S-64.51,345.47,230.94.85Z"/><path id="Pfad_5-2" class="cls-7" d="m230.94,0c-26.53,30.78-50.18,63.94-70.63,99.06h139.28C264.62,35.39,230.94,0,230.94,0Z"/><g id="Gruppe_2"><ellipse id="Ellipse_1" class="cls-2" cx="231.3" cy="269.4" rx="74.17" ry="84.58" transform="translate(-4.21 3.67) rotate(-.9)"/><g id="Bügel"><line id="Linie_5" class="cls-16" x1="174.02" y1="275.64" x2="160.83" y2="262.45"/><line id="Linie_6" class="cls-16" x1="292.59" y1="275.64" x2="301.73" y2="268.85"/><path id="Pfad_7-2" class="cls-16" d="m220.51,275.64c3.87-2.41,8.26-3.84,12.81-4.18,4.54.33,8.94,1.77,12.81,4.18"/></g><path class="cls-5" d="m202.44,323.9l-8.48-6.74,36.83-3.72,36.72-4.7-6.74,8.48c-14.26,17.95-40.38,20.94-58.33,6.68Z"/><ellipse id="Ellipse_2" class="cls-13" cx="182.64" cy="296.01" rx="7.12" ry="15.67" transform="translate(-155.82 215.84) rotate(-45)"/><ellipse id="Ellipse_3" class="cls-13" cx="282.92" cy="294.96" rx="15.67" ry="7.12" transform="translate(-125.7 286.45) rotate(-45)"/><circle id="Ellipse_4" class="cls-11" cx="197.26" cy="278.25" r="7.83"/><circle id="Ellipse_5" class="cls-11" cx="269.34" cy="278.25" r="7.83"/><g id="Gläser"><rect id="Rechteck_8" class="cls-16" x="174.02" y="264.41" width="46.49" height="27.68" rx="2.42" ry="2.42"/><rect id="Rechteck_9" class="cls-16" x="246.1" y="264.41" width="46.49" height="27.68" rx="2.42" ry="2.42"/></g></g><g id="Gruppe_3"><path class="cls-9" d="m293.62,236.41l-2.93.48c-10.96-1.28-130.78,21.51-130.78,21.51-3.13,15.54-1.09,31.67,5.8,45.94,1.23,1.77,2.59,3.44,4.07,5,0-5.41-9.2-25.39-5.6-32.61,1.64-3.27,6.24-9.89,11.29-18.33,12.87-4.58,40.38-7.84,54.89-7.93,8.25,3.79,17.1,6.42,25.81,6.42-1.94-.98-9.12-5.1-15.89-9.53-.43-1.12,38.11,18.02,55.57,20.35,3.61,5.41.52,18.5-2.17,28.42,0,0,4.18-4.45,8.48-9.99.83-4.41,1.25-8.89,1.25-13.38.01-12.77-3.37-25.32-9.79-36.36Z"/><path class="cls-1" d="m155.84,262.27l145.88-22.61s-39.88-52.39-86.88-41.39-61.22,49.18-59,64Z"/><circle id="Ellipse_6" class="cls-12" cx="230.37" cy="273.03" r="73.7"/><path id="Pfad_18" class="cls-14" d="m156.67,273.03c0-34.98,24.59-65.14,58.85-72.2,4.8-.98-56.43,54.08,0,144.4-34.26-7.06-58.84-37.22-58.85-72.2Z"/><path class="cls-7" d="m231.16,174.46c-54.26,0-98.25,43.99-98.25,98.25s43.99,98.25,98.25,98.25,98.25-43.99,98.25-98.25-43.99-98.25-98.25-98.25Zm0,170.75c-40.04,0-72.5-32.46-72.5-72.5s32.46-72.5,72.5-72.5,72.5,32.46,72.5,72.5-32.46,72.5-72.5,72.5Z"/></g><path id="Pfad_4-3" class="cls-15" d="m230.94.85s283.66,298.09,59.4,720.15h-41.65S364.48,303.24,230.94.85Z"/></svg>