<?xml version="1.0" encoding="UTF-8"?><svg id="Ebene_1" xmlns="http://www.w3.org/2000/svg" viewBox="0 0 670.67 357"><defs><style>.cls-1{letter-spacing:0em;}.cls-2{fill:#ffba00;}.cls-3{letter-spacing:0em;}.cls-4{fill:#293e53;font-family:Coda-Regular, Coda;font-size:15px;}.cls-5{letter-spacing:0em;}</style></defs><g id="HTML5_CSS3"><path class="cls-2" d="m75.5,12c34.74,0,63,28.26,63,63s-28.26,63-63,63S12.5,109.74,12.5,75,40.76,12,75.5,12m0-12C34.08,0,.5,33.58.5,75s33.58,75,75,75,75-33.58,75-75S116.92,0,75.5,0h0Z"/><text class="cls-4" transform="translate(26.47 78.88)"><tspan x="0" y="0">HTML5 &amp; CSS3</tspan></text></g><g id="JavaScript"><path class="cls-2" d="m633,12h0V0h0c-6.47,0-12.75.82-18.74,2.36-5.99,1.54-11.69,3.8-17.01,6.69-2.13,1.15-4.19,2.41-6.18,3.76-2,1.35-3.92,2.79-5.77,4.32s-3.63,3.14-5.33,4.84c-3.39,3.39-6.46,7.11-9.16,11.1-2.02,2.99-3.83,6.14-5.41,9.42-4.74,9.84-7.4,20.87-7.4,32.52s2.66,22.68,7.4,32.52c1.58,3.28,3.39,6.43,5.41,9.42,2.7,3.99,5.77,7.71,9.16,11.1,1.7,1.7,3.47,3.31,5.33,4.84,1.85,1.53,3.78,2.97,5.77,4.32,1.99,1.35,4.06,2.6,6.18,3.76,5.31,2.89,11.01,5.15,17.01,6.69,5.99,1.54,12.27,2.36,18.74,2.36h0v-12h0c-34.74,0-63-28.26-63-63s28.26-63,63-63Z"/><text class="cls-4" transform="translate(598.64 78.88)"><tspan x="0" y="0">J</tspan><tspan class="cls-5" x="5.32" y="0">av</tspan><tspan x="20.64" y="0">aScript</tspan></text></g><g id="LESS_SASS"><text class="cls-4" transform="translate(220.76 78.88)"><tspan x="0" y="0">LESS / SASS</tspan></text><path class="cls-2" d="m261.33,0h0c-6.47,0-12.75.82-18.74,2.36-5.99,1.54-11.69,3.8-17.01,6.69-2.13,1.15-4.19,2.41-6.18,3.76-2,1.35-3.92,2.79-5.77,4.32s-3.63,3.14-5.33,4.84c-3.39,3.39-6.46,7.11-9.16,11.1-2.02,2.99-3.83,6.14-5.41,9.42-4.74,9.84-7.4,20.87-7.4,32.52s2.66,22.68,7.4,32.52c1.58,3.28,3.39,6.43,5.41,9.42,2.7,3.99,5.77,7.71,9.16,11.1,1.7,1.7,3.47,3.31,5.33,4.84,1.85,1.53,3.78,2.97,5.77,4.32,1.99,1.35,4.06,2.6,6.18,3.76,5.31,2.89,11.01,5.15,17.01,6.69,5.99,1.54,12.27,2.36,18.74,2.36h0c41.42,0,75-33.58,75-75S302.75,0,261.33,0Zm0,138c-34.74,0-63-28.26-63-63s28.26-63,63-63h0c34.74,0,63,28.26,63,63s-28.26,63-63,63Z"/></g><g id="UI"><text class="cls-4" transform="translate(253.76 285.88)"><tspan x="0" y="0">UI</tspan></text><path class="cls-2" d="m261,207h0c-6.47,0-12.75.82-18.74,2.36-5.99,1.54-11.69,3.8-17.01,6.69-2.13,1.15-4.19,2.41-6.18,3.76-2,1.35-3.92,2.79-5.77,4.32s-3.63,3.14-5.33,4.84c-3.39,3.39-6.46,7.11-9.16,11.1-2.02,2.99-3.83,6.14-5.41,9.42-4.74,9.84-7.4,20.87-7.4,32.52s2.66,22.68,7.4,32.52c1.58,3.28,3.39,6.43,5.41,9.42,2.7,3.99,5.77,7.71,9.16,11.1,1.7,1.7,3.47,3.31,5.33,4.84,1.85,1.53,3.78,2.97,5.77,4.32,1.99,1.35,4.06,2.6,6.18,3.76,5.31,2.89,11.01,5.15,17.01,6.69,5.99,1.54,12.27,2.36,18.74,2.36h0v-12h0c-34.74,0-63-28.26-63-63s28.26-63,63-63h0c34.74,0,63,28.26,63,63h12c0-41.42-33.58-75-75-75Z"/></g><g id="Git"><path class="cls-2" d="m75,219h0v-12h0c-6.47,0-12.75.82-18.74,2.36-5.99,1.54-11.69,3.8-17.01,6.69-2.13,1.15-4.19,2.41-6.18,3.76-2,1.35-3.92,2.79-5.77,4.32s-3.63,3.14-5.33,4.84c-3.39,3.39-6.46,7.11-9.16,11.1-2.02,2.99-3.83,6.14-5.41,9.42-4.74,9.84-7.4,20.87-7.4,32.52s2.66,22.68,7.4,32.52c1.58,3.28,3.39,6.43,5.41,9.42,2.7,3.99,5.77,7.71,9.16,11.1,1.7,1.7,3.47,3.31,5.33,4.84,1.85,1.53,3.78,2.97,5.77,4.32,1.99,1.35,4.06,2.6,6.18,3.76,5.31,2.89,11.01,5.15,17.01,6.69,5.99,1.54,12.27,2.36,18.74,2.36h0v-12h0c-34.74,0-63-28.26-63-63s28.26-63,63-63Z"/><text class="cls-4" transform="translate(65.55 285.88)"><tspan x="0" y="0">Git</tspan></text></g><g id="Konzeption"><path class="cls-2" d="m633,219h0v-12h0c-6.47,0-12.75.82-18.74,2.36-5.99,1.54-11.69,3.8-17.01,6.69-2.13,1.15-4.19,2.41-6.18,3.76-2,1.35-3.92,2.79-5.77,4.32s-3.63,3.14-5.33,4.84c-3.39,3.39-6.46,7.11-9.16,11.1-2.02,2.99-3.83,6.14-5.41,9.42-4.74,9.84-7.4,20.87-7.4,32.52s2.66,22.68,7.4,32.52c1.58,3.28,3.39,6.43,5.41,9.42,2.7,3.99,5.77,7.71,9.16,11.1,1.7,1.7,3.47,3.31,5.33,4.84,1.85,1.53,3.78,2.97,5.77,4.32,1.99,1.35,4.06,2.6,6.18,3.76,5.31,2.89,11.01,5.15,17.01,6.69,5.99,1.54,12.27,2.36,18.74,2.36h0v-12h0c-34.74,0-63-28.26-63-63s28.26-63,63-63Z"/><text class="cls-4" transform="translate(595.34 285.88)"><tspan class="cls-3" x="0" y="0">K</tspan><tspan x="8.94" y="0">onzeption</tspan></text></g><g id="UX"><path class="cls-2" d="m447,219h0v-12h0c-6.47,0-12.75.82-18.74,2.36-5.99,1.54-11.69,3.8-17.01,6.69-2.13,1.15-4.19,2.41-6.18,3.76-2,1.35-3.92,2.79-5.77,4.32s-3.63,3.14-5.33,4.84c-3.39,3.39-6.46,7.11-9.16,11.1-2.02,2.99-3.83,6.14-5.41,9.42-4.74,9.84-7.4,20.87-7.4,32.52s2.66,22.68,7.4,32.52c1.58,3.28,3.39,6.43,5.41,9.42,2.7,3.99,5.77,7.71,9.16,11.1,1.7,1.7,3.47,3.31,5.33,4.84,1.85,1.53,3.78,2.97,5.77,4.32,1.99,1.35,4.06,2.6,6.18,3.76,5.31,2.89,11.01,5.15,17.01,6.69,5.99,1.54,12.27,2.36,18.74,2.36h0v-12h0c-34.74,0-63-28.26-63-63s28.26-63,63-63Z"/><text class="cls-4" transform="translate(437.41 285.88)"><tspan x="0" y="0">UX</tspan></text></g><g id="Typo3"><text class="cls-4" transform="translate(427.13 78.88)"><tspan class="cls-1" x="0" y="0">T</tspan><tspan x="7.03" y="0">ypo3</tspan></text><path class="cls-2" d="m447.17,0h0c-6.47,0-12.75.82-18.74,2.36-5.99,1.54-11.69,3.8-17.01,6.69-2.13,1.15-4.19,2.41-6.18,3.76-2,1.35-3.92,2.79-5.77,4.32s-3.63,3.14-5.33,4.84c-3.39,3.39-6.46,7.11-9.16,11.1-2.02,2.99-3.83,6.14-5.41,9.42-4.74,9.84-7.4,20.87-7.4,32.52s2.66,22.68,7.4,32.52c1.58,3.28,3.39,6.43,5.41,9.42,2.7,3.99,5.77,7.71,9.16,11.1,1.7,1.7,3.47,3.31,5.33,4.84,1.85,1.53,3.78,2.97,5.77,4.32,1.99,1.35,4.06,2.6,6.18,3.76,5.31,2.89,11.01,5.15,17.01,6.69,5.99,1.54,12.27,2.36,18.74,2.36h0v-12h0c-34.74,0-63-28.26-63-63s28.26-63,63-63h0c34.74,0,63,28.26,63,63h12C522.17,33.58,488.59,0,447.17,0Z"/></g></svg>