<?xml version="1.0" encoding="utf-8"?>
<!-- Generator: Adobe Illustrator 25.0.1, SVG Export Plug-In . SVG Version: 6.00 Build 0)  -->
<svg version="1.1" id="Ebene_1" xmlns="http://www.w3.org/2000/svg" xmlns:xlink="http://www.w3.org/1999/xlink" x="0px" y="0px"
	 viewBox="0 0 470 241" style="enable-background:new 0 0 470 241;" xml:space="preserve">
<style type="text/css">
	.st0{fill:none;stroke:#FFFFFF;stroke-width:2;}
</style>
<g id="Stern">
	<line class="st0" x1="449.7" y1="230.6" x2="456.9" y2="223.3"/>
	<line class="st0" x1="456.9" y1="230.6" x2="449.7" y2="223.3"/>
</g>
<g id="Stern_6_">
	<line class="st0" x1="403" y1="126.7" x2="407.4" y2="122.2"/>
	<line class="st0" x1="407.4" y1="126.7" x2="403" y2="122.2"/>
</g>
<g id="Stern_14_">
	<line class="st0" x1="438.5" y1="158" x2="442.9" y2="153.6"/>
	<line class="st0" x1="442.9" y1="158" x2="438.5" y2="153.6"/>
</g>
<g id="Stern_17_">
	<line class="st0" x1="450.8" y1="152.1" x2="455.2" y2="147.7"/>
	<line class="st0" x1="455.2" y1="152.1" x2="450.8" y2="147.7"/>
</g>
<g id="Stern_15_">
	<line class="st0" x1="449.9" y1="168.9" x2="454.3" y2="164.4"/>
	<line class="st0" x1="454.3" y1="168.9" x2="449.9" y2="164.4"/>
</g>
<g id="Stern_7_">
	<line class="st0" x1="378.9" y1="127.2" x2="383.4" y2="122.7"/>
	<line class="st0" x1="383.4" y1="127.2" x2="378.9" y2="122.7"/>
</g>
<g id="Stern_9_">
	<line class="st0" x1="261.1" y1="71.5" x2="265.5" y2="67"/>
	<line class="st0" x1="265.5" y1="71.5" x2="261.1" y2="67"/>
</g>
<g id="Stern_10_">
	<line class="st0" x1="248.3" y1="92" x2="252.7" y2="87.6"/>
	<line class="st0" x1="252.7" y1="92" x2="248.3" y2="87.6"/>
</g>
<g id="Stern_11_">
	<line class="st0" x1="238" y1="80.5" x2="242.4" y2="76"/>
	<line class="st0" x1="242.4" y1="80.5" x2="238" y2="76"/>
</g>
<g id="Stern_2_">
	<line class="st0" x1="286.1" y1="192.6" x2="293.4" y2="185.4"/>
	<line class="st0" x1="293.4" y1="192.6" x2="286.1" y2="185.4"/>
</g>
<g id="Stern_3_">
	<line class="st0" x1="129.9" y1="67.6" x2="137.1" y2="60.4"/>
	<line class="st0" x1="137.1" y1="67.6" x2="129.9" y2="60.4"/>
</g>
<g id="Stern_16_">
	<line class="st0" x1="129.4" y1="139.1" x2="136.7" y2="131.9"/>
	<line class="st0" x1="136.7" y1="139.1" x2="129.4" y2="131.9"/>
</g>
<g id="Stern_13_">
	<line class="st0" x1="45" y1="178.1" x2="52.3" y2="170.9"/>
	<line class="st0" x1="52.3" y1="178.1" x2="45" y2="170.9"/>
</g>
<g id="Stern_4_">
	<line class="st0" x1="243.8" y1="14.5" x2="251.1" y2="7.2"/>
	<line class="st0" x1="251.1" y1="14.5" x2="243.8" y2="7.2"/>
</g>
<g id="Stern_8_">
	<line class="st0" x1="10.5" y1="16.1" x2="17.7" y2="8.9"/>
	<line class="st0" x1="17.7" y1="16.1" x2="10.5" y2="8.9"/>
</g>
<g id="Stern_12_">
	<line class="st0" x1="19.1" y1="32.4" x2="22.8" y2="28.6"/>
	<line class="st0" x1="22.8" y1="32.4" x2="19.1" y2="28.6"/>
</g>
<g id="Stern_18_">
	<line class="st0" x1="119.4" y1="57.7" x2="123.2" y2="53.9"/>
	<line class="st0" x1="123.2" y1="57.7" x2="119.4" y2="53.9"/>
</g>
<g id="Stern_5_">
	<line class="st0" x1="452.9" y1="44.5" x2="460.1" y2="37.2"/>
	<line class="st0" x1="460.1" y1="44.5" x2="452.9" y2="37.2"/>
</g>
<g id="Stern_1_">
	<line class="st0" x1="30.6" y1="43.6" x2="43.2" y2="31.1"/>
	<line class="st0" x1="43.2" y1="43.6" x2="30.6" y2="31.1"/>
</g>
</svg>
