<?xml version="1.0" encoding="utf-8"?>
<!-- Generator: Adobe Illustrator 21.0.2, SVG Export Plug-In . SVG Version: 6.00 Build 0)  -->
<svg version="1.1" id="Ebene_1" xmlns="http://www.w3.org/2000/svg" xmlns:xlink="http://www.w3.org/1999/xlink" x="0px" y="0px"
	 viewBox="0 0 50 50" style="enable-background:new 0 0 50 50;" xml:space="preserve">
<style type="text/css">
	.st0{fill:#FFFFFF;}
</style>
<g>
	<path id="Behance" class="st0" d="M45.2,13.8H32.6v-3.1h12.5L45.2,13.8L45.2,13.8z M24.3,26.6c0.8,1.3,1.2,2.8,1.2,4.6
		c0,1.8-0.5,3.5-1.4,5c-0.6,1-1.3,1.8-2.2,2.4c-1,0.8-2.2,1.3-3.5,1.6c-1.4,0.3-2.8,0.4-4.4,0.4H0V9.4h15c3.8,0.1,6.5,1.2,8.1,3.3
		c1,1.3,1.4,2.9,1.4,4.8c0,1.9-0.5,3.4-1.4,4.6c-0.5,0.6-1.3,1.2-2.4,1.8C22.3,24.4,23.5,25.4,24.3,26.6z M7.2,21.7h6.6
		c1.4,0,2.4-0.3,3.3-0.8c0.8-0.5,1.3-1.4,1.3-2.7c0-1.4-0.6-2.4-1.7-2.9c-1-0.3-2.2-0.5-3.7-0.5H7.2V21.7z M18.9,30.7
		c0-1.6-0.7-2.7-2-3.3c-0.7-0.3-1.8-0.5-3.1-0.5H7.2v8.3h6.6c1.4,0,2.4-0.2,3.2-0.5C18.3,33.9,18.9,32.6,18.9,30.7z M49.8,25.7
		c0.2,1,0.2,2.5,0.2,4.4H33.8c0.1,2.2,0.9,3.8,2.3,4.7c0.9,0.6,2,0.8,3.2,0.8c1.3,0,2.4-0.3,3.2-1c0.5-0.4,0.9-0.9,1.2-1.5h5.9
		c-0.2,1.3-0.9,2.7-2.2,4c-2,2.2-4.8,3.3-8.4,3.3c-3,0-5.6-0.9-7.9-2.7c-2.3-1.8-3.4-4.8-3.4-8.9c0-3.9,1-6.8,3.1-8.9
		c2.1-2.1,4.7-3.1,8-3.1c1.9,0,3.7,0.3,5.2,1c1.6,0.7,2.8,1.8,3.8,3.3C48.9,22.4,49.5,23.9,49.8,25.7z M43.9,26.2
		c-0.1-1.5-0.6-2.7-1.6-3.5c-0.9-0.8-2.1-1.2-3.5-1.2c-1.5,0-2.7,0.4-3.5,1.3c-0.8,0.8-1.3,2-1.6,3.5L43.9,26.2L43.9,26.2z"/>
</g>
</svg>
