<?xml version="1.0" encoding="utf-8"?>
<!-- Generator: Adobe Illustrator 21.0.2, SVG Export Plug-In . SVG Version: 6.00 Build 0)  -->
<svg version="1.1" id="Ebene_1" xmlns="http://www.w3.org/2000/svg" xmlns:xlink="http://www.w3.org/1999/xlink" x="0px" y="0px"
	 viewBox="0 0 50 50" style="enable-background:new 0 0 50 50;" xml:space="preserve">
<style type="text/css">
	.st0{fill:#FFFFFF;}
</style>
<g>
	<path class="st0" d="M27.8,18.5c1.4,2.7,2.6,5.5,3.7,8.3c6.5-1.7,13.1-1.8,18.3-0.2c0-0.5,0.1-1.1,0.1-1.6c0-6.5-2.5-12.5-6.6-16.9
		C40.2,12.5,34.6,16,27.8,18.5z"/>
	<path class="st0" d="M25.4,17.5c-3.2-5.9-6.9-11.1-10.9-15.2C6.9,5.9,1.4,13.1,0.3,21.6C8.5,21.5,17.6,20.1,25.4,17.5z"/>
	<path class="st0" d="M27.1,16.9c6.7-2.4,12.2-5.8,15.1-10.1C37.7,2.6,31.6,0,25,0c-3.1,0-6.1,0.6-8.9,1.7
		C20.2,5.8,23.9,11.1,27.1,16.9z"/>
	<path class="st0" d="M49.7,28.3c-5-1.7-11.3-1.6-17.6,0c2.3,6.3,3.9,12.8,4.4,18.8C43.6,43.4,48.7,36.5,49.7,28.3
		C49.8,28.3,49.7,28.3,49.7,28.3z"/>
	<path class="st0" d="M29.9,27.2c-1.1-2.8-2.3-5.5-3.7-8.2c-8.1,2.7-17.5,4.2-26.1,4.3C0,23.9,0,24.4,0,25c0,7.2,3.1,13.7,7.9,18.2
		C12.7,35.3,21.2,29.9,29.9,27.2z"/>
	<path class="st0" d="M30.5,28.7C22,31.3,13.7,36.6,9.2,44.4C13.5,47.9,19,50,25,50c3.5,0,6.9-0.7,10-2.1
		C34.5,41.9,32.9,35.2,30.5,28.7z"/>
</g>
</svg>
