<?xml version="1.0" encoding="utf-8"?>
<!-- Generator: Adobe Illustrator 21.0.2, SVG Export Plug-In . SVG Version: 6.00 Build 0)  -->
<svg version="1.1" id="Ebene_1" xmlns="http://www.w3.org/2000/svg" xmlns:xlink="http://www.w3.org/1999/xlink" x="0px" y="0px"
	 viewBox="0 0 50 50" style="enable-background:new 0 0 50 50;" xml:space="preserve">
<style type="text/css">
	.st0{fill:#FFFFFF;}
</style>
<path class="st0" d="M25,0.4c-13.8,0-25,11.2-25,25c0,11.5,7.8,21.5,18.9,24.3c0.2,0.1,0.5,0,0.7-0.1c0.2-0.2,0.3-0.4,0.3-0.7l0-5.9
	c0-0.2-0.1-0.4-0.2-0.6c-0.2-0.2-0.4-0.2-0.6-0.2h-1.7c-2.7,0-4.4-2.5-5.8-4.7c-0.3-0.4-0.5-0.8-0.8-1.2c1,0.5,1.7,1.2,2.4,1.9
	c1.2,1.1,2.3,2.3,4.3,2.3c0,0,0,0,0,0c0.8-0.1,2.4-0.9,2.4-3.3v-0.8c0-0.4-0.2-0.7-0.6-0.8c-5.6-1.6-9.4-6.1-9.4-11.3
	c0-2.6,1.2-5.3,3.1-7.3c0.2-0.2,0.3-0.6,0.2-0.9c-0.8-1.7,0-3.9,1.2-5.3c1.2,0.5,2.4,1.8,3.3,2.9c0.2,0.3,0.6,0.4,0.9,0.2l0.4-0.2
	C20.9,12.8,23,12,25,12c2,0,4.1,0.8,5.9,1.5l0.4,0.2c0.3,0.1,0.7,0,0.9-0.2c0.9-1.1,2.1-2.4,3.3-2.9c1.2,1.4,1.9,3.6,1.2,5.3
	c-0.1,0.3-0.1,0.7,0.2,0.9c2.1,2.1,3.1,4.5,3.1,6.9c0,5.5-4.2,10.3-10.2,11.7c-0.3,0.1-0.5,0.2-0.6,0.5c-0.1,0.2-0.1,0.5,0,0.7
	c0.5,0.9,0.7,2.5,0.7,4.6c0,2.9,0,7.6,0,7.6c0,0.3,0.1,0.5,0.3,0.7c0.1,0.1,0.3,0.2,0.5,0.2c0.1,0,0.1,0,0.2,0
	C42.2,46.8,50,36.9,50,25.4C50,11.6,38.8,0.4,25,0.4z"/>
</svg>
