<svg xmlns="http://www.w3.org/2000/svg" id="Ebene_1" viewBox="0 0 561.4 457.1"><style>.st0{fill:#878787;} .st1{fill:#9E9E9E;} .st2{fill:#3F3F3F;} .st3{fill:#010B16;} .st4{fill:#42BDE2;} .st5{fill:#FDCFB0;} .st6{fill:#FFFFFF;} .st7{fill:#021A30;} .st8{fill:#872E02;} .st9{fill:#053159;} .st10{fill:#07406B;} .st11{fill:#5E3505;} .st12{fill:#AF6D25;} .st13{fill:#EAEAEA;} .st14{fill:#58585A;} .st15{fill:#3A3A3C;} .st16{fill:#CCCCCC;}</style><g id="Illu"><g id="Bildschirm"><path d="M378.6 456h-194l35.1-65.6h124.8z" class="st0"/><path d="M553.8 391.1H7.5c-4.2 0-7.6-3.4-7.6-7.6V21.2C-.1 9.5 9.4 0 21.1 0h519.1c11.7 0 21.2 9.5 21.2 21.2v362.3c0 4.2-3.4 7.6-7.6 7.6z" class="st1"/><path d="M561.4 344.3H-.1V21.5C-.1 9.8 9.4.3 21.1.3h519.1c11.7 0 21.2 9.5 21.2 21.2v322.8z" class="st2"/><path d="M533.3 315.4H27.2c-.7 0-1.2-.6-1.2-1.2V30.4c0-.7.6-1.2 1.2-1.2h506.1c.7 0 1.2.6 1.2 1.2v283.8c0 .7-.5 1.2-1.2 1.2z" class="st3"/><path d="M184.6 448.1h194v8.9h-194z" class="st1"/><path d="M267.8 137.6h5.2V161h-5.2v-9.2h-9.3v9.2h-5.2v-23.4h5.2v9.8h9.3v-9.8zm25.7 23.4h-4.7v-2.2c-1.3 1.6-2.9 2.4-4.8 2.4s-3.5-.6-4.8-1.7c-1.3-1.1-1.9-2.6-1.9-4.4 0-1.8.7-3.2 2-4.1s3.2-1.4 5.5-1.4h3.8v-.1c0-1.9-1-2.9-3-2.9-.9 0-1.8.2-2.8.5s-1.8.8-2.5 1.3l-2.2-3.2c2.4-1.7 5.1-2.6 8.1-2.6 2.2 0 4 .5 5.4 1.6s2.1 2.8 2.1 5.2V161h-.2zm-5-6.8v-.9h-3.1c-2 0-3 .6-3 1.9 0 .6.2 1.1.7 1.5.5.3 1.2.5 2.1.5s1.7-.3 2.4-.8c.5-.6.9-1.3.9-2.2zm14.6-3.2v10h-5v-18h5v2c1.5-1.5 3.2-2.3 5.1-2.3s3.5.7 4.8 2 1.9 3.1 1.9 5.4V161h-5v-10.2c0-2.8-1-4.2-3-4.2-1 0-1.9.4-2.6 1.1-.8.8-1.2 1.9-1.2 3.3zm29.7 7c-1.6 1.8-3.6 2.6-5.9 2.6s-4.3-.8-6-2.4c-1.6-1.6-2.4-3.7-2.4-6.4s.8-4.9 2.5-6.6c1.7-1.7 3.6-2.6 5.7-2.6s3.9.9 5.3 2.6V143h5v15.7c0 1.6-.3 3-.8 4.3-.6 1.2-1.3 2.2-2.2 2.9-1.9 1.5-4 2.2-6.6 2.2-1.3 0-2.7-.2-4.1-.7-1.4-.4-2.6-1.1-3.7-1.9l1.9-3.8c1.7 1.3 3.4 1.9 5.2 1.9 1.8 0 3.3-.5 4.4-1.4s1.7-2.2 1.7-4.2zm-.7-6.3c0-1.4-.4-2.6-1.2-3.4-.8-.8-1.8-1.2-3-1.2s-2.2.4-3.1 1.2-1.3 2-1.3 3.4.4 2.6 1.3 3.5c.8.9 1.9 1.3 3.1 1.3s2.2-.4 3-1.3c.8-1 1.2-2.1 1.2-3.5zm10.2-11c-.6-.6-.9-1.3-.9-2.1s.3-1.5.9-2.1 1.3-.9 2.1-.9 1.5.3 2.1.9.9 1.3.9 2.1-.3 1.5-.9 2.1-1.3.9-2.1.9c-.9 0-1.6-.3-2.1-.9zm4.6 20.3h-5v-18h5v18zm9.7-10v10h-5v-18h5v2c1.5-1.5 3.2-2.3 5.1-2.3s3.5.7 4.8 2 1.9 3.1 1.9 5.4V161h-5v-10.2c0-2.8-1-4.2-3-4.2-1 0-1.9.4-2.6 1.1-.8.8-1.2 1.9-1.2 3.3zm19.3-9.9c.7.5 1.1 1.2 1.1 2.1s-.3 1.6-.8 2.1-1.2.8-2 .8-1.5-.2-2-.7-.8-1.1-.8-1.9.2-1.6.7-2.3l2.4-3.5h2.7l-1.3 3.4zm29 19.9h-4.7v-2.2c-1.3 1.6-2.9 2.4-4.8 2.4s-3.5-.6-4.8-1.7c-1.3-1.1-1.9-2.6-1.9-4.4 0-1.8.7-3.2 2-4.1s3.2-1.4 5.5-1.4h3.8v-.1c0-1.9-1-2.9-3-2.9-.9 0-1.8.2-2.8.5s-1.8.8-2.5 1.3l-2.2-3.2c2.4-1.7 5.1-2.6 8.1-2.6 2.2 0 4 .5 5.4 1.6s2.1 2.8 2.1 5.2V161h-.2zm-5.1-6.8v-.9h-3.1c-2 0-3 .6-3 1.9 0 .6.2 1.1.7 1.5.5.3 1.2.5 2.1.5s1.7-.3 2.4-.8c.6-.6.9-1.3.9-2.2zm19.1-6.7c-1.5 0-2.6.5-3.3 1.6-.7 1.1-1.1 2.5-1.1 4.2v7.8h-5v-18h5v2.4c.6-.7 1.5-1.4 2.4-1.9 1-.5 2-.8 3-.8v4.7h-1zM441 152c0 2.6-.9 4.8-2.7 6.6-1.8 1.8-4.1 2.7-6.8 2.7s-5-.9-6.8-2.7-2.7-4-2.7-6.6.9-4.8 2.7-6.6c1.8-1.8 4.1-2.7 6.8-2.7s5 .9 6.8 2.7c1.7 1.8 2.7 4 2.7 6.6zm-14 0c0 1.5.4 2.7 1.3 3.6.8.9 1.9 1.4 3.2 1.4s2.4-.5 3.2-1.4c.8-.9 1.3-2.1 1.3-3.6s-.4-2.7-1.3-3.6-1.9-1.4-3.2-1.4-2.4.5-3.2 1.4-1.3 2.2-1.3 3.6zm29.3.7V143h5.1v18h-5.1v-2.4c-1.3 1.8-2.9 2.6-4.8 2.6s-3.6-.6-5-1.9c-1.3-1.2-2-3.1-2-5.5V143h5.1v9.8c0 2.8 1 4.2 3 4.2 1 0 1.9-.4 2.6-1.1.7-.7 1.1-1.8 1.1-3.2zm14.8-1.7v10h-5v-18h5v2c1.5-1.5 3.2-2.3 5.1-2.3s3.5.7 4.8 2 1.9 3.1 1.9 5.4V161h-5v-10.2c0-2.8-1-4.2-3-4.2-1 0-1.9.4-2.6 1.1-.8.8-1.2 1.9-1.2 3.3zm23.6 10.3c-2.1 0-4-.9-5.7-2.7s-2.5-4.1-2.5-6.7.8-4.9 2.4-6.6c1.6-1.7 3.5-2.6 5.7-2.6s4 .8 5.4 2.3v-8.8h5V161h-5v-2.4c-1.4 1.8-3.2 2.7-5.3 2.7zm-3.2-9.2c0 1.5.4 2.6 1.3 3.6.9.9 1.9 1.4 3 1.4 1.2 0 2.1-.5 3-1.4.8-.9 1.2-2.1 1.2-3.6s-.4-2.7-1.2-3.6c-.8-1-1.8-1.5-3-1.5s-2.2.5-3 1.5c-.8.9-1.3 2.1-1.3 3.6zm-238.4 29.4c-.6-.6-.9-1.3-.9-2.1s.3-1.5.9-2.1 1.3-.9 2.1-.9 1.5.3 2.1.9.9 1.3.9 2.1-.3 1.5-.9 2.1-1.3.9-2.1.9-1.5-.3-2.1-.9zm4.6 20.4h-5v-18h5v18zm9.8-10.1v10h-5v-18h5v2c1.5-1.5 3.2-2.3 5.1-2.3s3.5.7 4.8 2 1.9 3.1 1.9 5.4v10.9h-5v-10.2c0-2.8-1-4.2-3-4.2-1 0-1.9.4-2.6 1.1-.8.8-1.2 1.9-1.2 3.3zm31.2-4.3v8.1c0 .7.2 1.2.5 1.6.4.4.8.6 1.3.6.9 0 1.7-.4 2.4-1.3l1.9 3.5c-1.6 1.4-3.2 2.1-4.9 2.1-1.7 0-3.2-.6-4.4-1.7-1.2-1.1-1.8-2.7-1.8-4.7v-8.3h-2.1v-3.6h2.1v-5.4h5.1v5.4h4.4v3.6l-4.5.1zm13.8 4.6v9.7h-5V177h5v8.8c1.5-1.5 3.2-2.3 5.1-2.3s3.5.7 4.8 2 1.9 3.1 1.9 5.4v10.9h-5V192c0-2.8-1-4.2-3-4.2-1 0-1.9.4-2.6 1.1-.8.8-1.2 1.8-1.2 3.2zm32 7.1c-2 1.9-4.4 2.9-7.1 2.9s-5-.8-6.8-2.5-2.7-3.9-2.7-6.8c0-2.8.9-5.1 2.7-6.8 1.8-1.7 4-2.5 6.4-2.5s4.6.7 6.3 2.2c1.7 1.5 2.6 3.5 2.6 6.2v2.7h-13.1c.2 1 .7 1.8 1.5 2.4.9.6 1.9.9 2.9.9 1.8 0 3.2-.6 4.4-1.8l2.9 3.1zm-4.9-10.6c-.7-.6-1.5-.9-2.5-.9s-1.9.3-2.7.9c-.8.6-1.3 1.4-1.4 2.4h7.9c-.2-1-.6-1.9-1.3-2.4zm28.2 13.3h-5.2l-6.1-18h5.2l3.5 10.9 3.5-10.9h4.9l3.5 10.9 3.5-10.9h5.2l-6.1 18h-5.2l-3.3-9.8-3.4 9.8zm36.4-2.7c-2 1.9-4.4 2.9-7.1 2.9s-5-.8-6.8-2.5-2.7-3.9-2.7-6.8c0-2.8.9-5.1 2.7-6.8 1.8-1.7 4-2.5 6.4-2.5s4.6.7 6.3 2.2c1.7 1.5 2.6 3.5 2.6 6.2v2.7h-13.1c.2 1 .7 1.8 1.5 2.4.9.6 1.9.9 2.9.9 1.8 0 3.2-.6 4.4-1.8l2.9 3.1zm-4.8-10.6c-.7-.6-1.5-.9-2.5-.9s-1.9.3-2.7.9c-.8.6-1.3 1.4-1.4 2.4h7.9c-.2-1-.6-1.9-1.3-2.4zm20.3-5.1c2.2 0 4.1.9 5.7 2.6 1.6 1.7 2.4 3.9 2.4 6.6s-.8 4.9-2.5 6.7-3.6 2.7-5.7 2.7-3.9-.9-5.3-2.6v2.4h-5V177h5v8.8c1.4-1.5 3.2-2.3 5.4-2.3zm-5.5 9.4c0 1.5.4 2.7 1.2 3.6.8.9 1.8 1.4 3 1.4s2.2-.5 3-1.4c.9-.9 1.3-2.1 1.3-3.6s-.4-2.7-1.3-3.6c-.8-1-1.9-1.5-3-1.5-1.2 0-2.2.5-3 1.5-.8.9-1.2 2.1-1.2 3.6zm17.7 8.4c-.6-.6-.9-1.3-.9-2.1s.3-1.5.9-2.1 1.3-.9 2.1-.9 1.5.3 2.1.9c.6.6.9 1.3.9 2.1s-.3 1.5-.9 2.1-1.3.9-2.1.9c-.8-.1-1.5-.4-2.1-.9z" class="st4"/></g><g id="Vivi"><ellipse cx="173.7" cy="131.9" transform="matrix(.9999 -.01573 .01573 .9999 -2.053 2.75)" class="st5" rx="39.4" ry="47.8"/><path d="M158.2 155.2l35 .6s-5 12.2-17.2 12.2c-12.3 0-17.8-12.8-17.8-12.8z" class="st6"/><path id="Bügel" d="M135.56423 131.63987l1.4142-1.4142 7.00029 7.00029-1.4142 1.4142zm70.27977 5.56797l4.89586-3.63926 1.1932 1.6052-4.89586 3.63926zM181.1 138.8s-3.3-2.1-6.3-2.1-6.2 2-6.3 2.1l-1.1-1.7c.2-.1 3.8-2.4 7.3-2.4s7.2 2.3 7.3 2.4l-.9 1.7z" class="st7"/><path id="Haare" d="M207.9 149.4s8.6-9.1 9.6-14.1c2-1 10.9 1 17.8-10.9-1 1-13.8 5.9-18.7 1 1-2 6-22.3-17.6-43s-46.4-2-46.4-2-10.8-5-20.7 21.7c-9.9 26.6-2.2 37.2-2.2 37.2l2.6 5.3s5 9 8 11.9c0-3-5-13.9-3.1-17.8 2-3.9 11.8-16.8 14.8-29.6 1 1 18.7 18.7 35.5 18.7-2-1-13.8-7.9-15.8-10.9 1 0 22.7 14.8 37.5 16.8 1.8 3.1.2 10.3-1.3 15.7z" class="st8"/><g id="Mütze"><path d="M127.3 109.4s1.1-8.3 1.7-11.7 7.2-27.2 7.2-30c0-2.8-1.7-21.1 16.1-23.9s21.1 7.8 22.2 9.4c1.1 1.7 7.2 8.9 10 11.1s11.7 8.9 15 12.2 14.4 15.6 16.7 21.7c2.2 6.2-88.9 11.2-88.9 11.2z" class="st9"/><path d="M225 113.9l-102.6 16.9c-1 .2-1.9-.6-1.9-1.6l.5-19c0-.8.6-1.4 1.4-1.6L217 93.8c.7-.1 1.4.3 1.7.9l7.5 16.9c.4 1-.2 2.1-1.2 2.3z" class="st10"/></g><path d="M182.6 188h-15.5v-10.6l14.4-.5z" class="st5"/><circle cx="155.7" cy="139.4" r="4.2" class="st11"/><circle cx="194" cy="139.4" r="4.2" class="st11"/><path id="Gläser" d="M167 147.8h-22.7c-1.1 0-2-.9-2-2V133c0-1.1.9-2 2-2H167c1.1 0 2 .9 2 2v12.7c0 1.2-.9 2.1-2 2.1zM144.3 133v12.7H167V133h-22.7zm61.1 14.8h-22.7c-1.1 0-2-.9-2-2V133c0-1.1.9-2 2-2h22.7c1.1 0 2 .9 2 2v12.7c0 1.2-.9 2.1-2 2.1zM182.6 133v12.7h22.7V133h-22.7z" class="st7"/><g id="Hose"><path d="M169.6 287.1l-25.3-.3s-23.6-63.4-24.1-63.9c-12.5-11.4-24.2-6.1-28.4-1.9-.7.7-5.7 6.1-5.7 10.9v74.6h14.2v-70.1s.2-3.8 3.5-3.8 5.4 5.4 5.4 5.4l24.8 64.6h32.6c.2.1 5.6-11 3-15.5z" class="st9"/><path d="M203.4 286.9s1.1 15.8 0 19.9c-.6 2.1-5.7 10.9-12.3 10.9H131V400h-17v-82.8s1.9-17.3 17.3-17.3h30.3s7 .1 7-13.2c1.4 0 34.8.2 34.8.2z" class="st10"/></g><path id="Arme" d="M206.1 225.5l4.3 90.7s2.4 7.2 8.2 6.8c5.8-.5 10.6-1.4 13-1 2.4.5 6.3 2.9 6.3 2.9l7.7-9.2s-7.5-5.5-14.7-6-9.2 1.4-9.2 1.4l-3.9-91.2-11.7 5.6zm-70.9-10.6l-5.8 8.7-33.8-15.4s-17.8-6.8-26.1 16.4c1 .5 11.1 4.3 11.1 4.3s4.1-10.9 8-9.9 37.6 16.9 37.6 16.9 6.3 2.4 9.2-.5 10.1-13.5 10.1-13.5l-10.3-7z" class="st5"/><path id="Dekolte" d="M163.4 186s7.2-1.1 11.1-1.1c6.5 0 12.2 1.1 12.2 1.1s1.5 16.8-11.1 16.8c-12.4.1-12.2-16.8-12.2-16.8z" class="st5"/><path id="Shirt" d="M144.3 224.6v62.7h59.3v-57.4l18.1-6.5s-.5-29.4-36.2-37.6c0 1 1 14-10.6 14s-11.1-14-11.1-14-25.6 4.8-35.2 29.9c1 .4 15.7 8.9 15.7 8.9z" class="st12"/><g id="Schuh_links"><path d="M65.1 407.7h69.5c.6 0 1.2-.5 1.2-1.2V405c0-1.3-1.1-2.4-2.4-2.4H67.6c-1.4 0-2.5 1.1-2.5 2.5v2.6z" class="st13"/><path d="M107.4 378.6v4.5c0 2-1.2 3.8-3.1 4.6L85 394.4c-.3.1-.6.3-.7.6l-.1.3 28.2-9.4c.1 0 .7-7.3-5-7.3z" class="st14"/><path d="M135.1 403.3l-.9-10.7c0-.5-.4-.8-.8-.9-.4-.1-.9 0-1.3.2-.9.6-3.7 1.9-9.3.4-.6-.2-1.2-.4-1.8-.7-3.4-1.9-5.7-4.9-6.8-6.6-.5-.7-1.4-.9-2.1-.4l-2.3 1.8c-.2.2-.4.3-.6.3l-40.8 13.7c-1.1.4-1.8 1.4-1.8 2.6v.2h68.5v.1z" class="st15"/><path d="M79.3 396.7l-11.4 3.9c-.8.3-1.4 1.1-1.4 2v.7h15.1l-.3-2.5c-.1-.5-.2-1.1-.5-1.6l-1.5-2.5z" class="st16"/><path d="M86.5 396.4c-.7 0-1.3-.7-1.8-1.3-.3-.4-.8-1-1.1-1-.3.1-.5-.1-.6-.3-.1-.3.1-.5.3-.6.9-.3 1.6.5 2.2 1.3.3.4.8 1 1.1 1 .2-.1.3-.9.3-1.4 0-.9.1-2 1-2.3s1.6.5 2.2 1.3c.3.4.8 1 1.1 1 .2-.1.3-.9.3-1.4 0-.9.1-2 1-2.3s1.6.5 2.2 1.3c.3.4.8 1 1.1 1 .2-.1.3-.9.3-1.4 0-.9.1-2 1-2.3s1.6.5 2.2 1.3c.3.4.8 1 1.1 1 .2-.1.3-.9.3-1.4 0-.9.1-2 1-2.3s1.6.5 2.2 1.3c.3.4.8 1 1.1 1 .2-.1.3-.9.3-1.4 0-.9.1-2 1-2.3.3-.1.5.1.6.3.1.3-.1.5-.3.6-.2.1-.3.9-.3 1.4 0 .9-.1 2-1 2.3s-1.6-.5-2.2-1.3c-.3-.4-.8-1-1.1-1-.2.1-.3.9-.3 1.4 0 .9-.1 2-1 2.3s-1.6-.5-2.2-1.3c-.3-.4-.8-1-1.1-1-.2.1-.3.9-.3 1.4 0 .9-.1 2-1 2.3s-1.6-.5-2.2-1.3c-.3-.4-.8-1-1.1-1-.2.1-.3.9-.3 1.4 0 .9-.1 2-1 2.3s-1.6-.5-2.2-1.3c-.3-.4-.8-1-1.1-1-.2.1-.3.9-.3 1.4 0 .9-.1 2-1 2.3h-.4z" class="st13"/></g><g id="Schuh_rechts"><path d="M35.9 318h69.5c.6 0 1.2-.5 1.2-1.2v-1.5c0-1.3-1.1-2.4-2.4-2.4H38.4c-1.4 0-2.5 1.1-2.5 2.5v2.6z" class="st13"/><path d="M78.2 288.9v4.5c0 2-1.2 3.8-3.1 4.6l-19.2 6.7c-.3.1-.6.3-.7.6l-.1.3 28.2-9.4s.6-7.3-5.1-7.3z" class="st14"/><path d="M105.9 313.5l-.9-10.7c0-.5-.4-.8-.8-.9s-.9 0-1.3.2c-.9.6-3.7 1.9-9.3.4-.6-.2-1.2-.4-1.8-.7-3.4-1.9-5.7-4.9-6.8-6.6-.5-.7-1.4-.9-2.1-.4l-2.3 1.8c-.2.2-.4.3-.6.3l-40.8 13.7c-1.1.4-1.8 1.4-1.8 2.6v.2h68.5v.1z" class="st15"/><path d="M50.2 307l-11.4 3.9c-.8.3-1.4 1.1-1.4 2v.7h15.1l-.3-2.5c-.1-.5-.2-1.1-.5-1.6-.7-1-1.5-2.5-1.5-2.5z" class="st16"/><path d="M57.3 306.6c-.7 0-1.3-.7-1.8-1.3-.3-.4-.8-1-1.1-1-.3.1-.5-.1-.6-.3-.1-.3.1-.5.3-.6.9-.3 1.6.5 2.2 1.3.3.4.8 1 1.1 1 .2-.1.3-.9.3-1.4 0-.9.1-2 1-2.3s1.6.5 2.2 1.3c.3.4.8 1 1.1 1 .2-.1.3-.9.3-1.4 0-.9.1-2 1-2.3.9-.3 1.6.5 2.2 1.3.3.4.8 1 1.1 1 .2-.1.3-.9.3-1.4 0-.9.1-2 1-2.3s1.6.5 2.2 1.3c.3.4.8 1 1.1 1 .2-.1.3-.9.3-1.4 0-.9.1-2 1-2.3s1.6.5 2.2 1.3c.3.4.8 1 1.1 1 .2-.1.3-.9.3-1.4 0-.9.1-2 1-2.3.3-.1.5.1.6.3.1.3-.1.5-.3.6-.2.1-.3.9-.3 1.4 0 .9-.1 2-1 2.3s-1.6-.5-2.2-1.3c-.3-.4-.8-1-1.1-1-.2.1-.3.9-.3 1.4 0 .9-.1 2-1 2.3s-1.6-.5-2.2-1.3c-.3-.4-.8-1-1.1-1-.2.1-.3.9-.3 1.4 0 .9-.1 2-1 2.3s-1.6-.5-2.2-1.3c-.3-.4-.8-1-1.1-1-.2.1-.3.9-.3 1.4 0 .9-.1 2-1 2.3s-1.6-.5-2.2-1.3c-.3-.4-.8-1-1.1-1-.2.1-.3.9-.3 1.4 0 .9-.1 2-1 2.3h-.4z" class="st13"/></g></g></g></svg>