<?xml version="1.0" encoding="utf-8"?>
<!-- Generator: Adobe Illustrator 21.0.2, SVG Export Plug-In . SVG Version: 6.00 Build 0)  -->
<svg version="1.1" id="Ebene_1" xmlns="http://www.w3.org/2000/svg" xmlns:xlink="http://www.w3.org/1999/xlink" x="0px" y="0px"
	 viewBox="0 0 561.4 457.1" style="enable-background:new 0 0 561.4 457.1;" xml:space="preserve">
<style type="text/css">
	.st0{fill:#3F3F3F;}
	.st1{fill:#010B16;}
	.st2{fill:#42BDE2;}
	.st3{fill:#B73B04;}
	.st4{fill:#CCCCCC;}
	.st5{fill:#FDCFB0;}
	.st6{fill:#FFFFFF;}
	.st7{fill:#021A30;}
	.st8{fill:#872E02;}
	.st9{fill:#053159;}
	.st10{fill:#07406B;}
	.st11{opacity:0.4;}
	.st12{fill:#5E3505;}
	.st13{fill:#3A3A3C;}
	.st14{fill:#EAEAEA;}
	.st15{fill:#AF6D25;}
</style>
<g id="Illustration_x5F_Scrum">
	<g id="TV_1_">
		<rect x="90" y="24.1" class="st0" width="471.2" height="233.4"/>
		<rect x="125.9" y="42" class="st1" width="399.5" height="197.6"/>
		<g>
			<path class="st2" d="M159.9,150.3v-23.4h5.2v18.7h10v4.7H159.9z"/>
			<path class="st2" d="M194,147.7c-2,1.9-4.4,2.9-7.1,2.9c-2.7,0-5-0.8-6.8-2.5c-1.8-1.7-2.7-3.9-2.7-6.8c0-2.8,0.9-5.1,2.7-6.8
				c1.8-1.7,4-2.5,6.4-2.5s4.6,0.7,6.3,2.2c1.7,1.5,2.6,3.5,2.6,6.2v2.7h-13.1c0.2,1,0.7,1.8,1.5,2.4c0.9,0.6,1.9,0.9,2.9,0.9
				c1.8,0,3.2-0.6,4.4-1.8L194,147.7z M189.2,137c-0.7-0.6-1.5-0.9-2.5-0.9s-1.9,0.3-2.7,0.9c-0.8,0.6-1.3,1.4-1.4,2.4h7.9
				C190.3,138.4,189.9,137.6,189.2,137z"/>
			<path class="st2" d="M214.4,150.3h-4.7v-2.2c-1.3,1.6-2.9,2.4-4.8,2.4c-1.9,0-3.5-0.6-4.8-1.7c-1.3-1.1-1.9-2.6-1.9-4.4
				c0-1.8,0.7-3.2,2-4.1c1.3-0.9,3.2-1.4,5.5-1.4h3.7v-0.1c0-1.9-1-2.9-3-2.9c-0.9,0-1.8,0.2-2.8,0.5c-1,0.3-1.8,0.8-2.5,1.3
				l-2.2-3.2c2.4-1.7,5.1-2.6,8.1-2.6c2.2,0,4,0.5,5.4,1.6c1.4,1.1,2.1,2.8,2.1,5.2V150.3z M209.4,143.5v-0.9h-3.1c-2,0-3,0.6-3,1.9
				c0,0.6,0.2,1.1,0.7,1.5c0.5,0.3,1.2,0.5,2.1,0.5c0.9,0,1.7-0.3,2.4-0.8C209,145.1,209.4,144.4,209.4,143.5z"/>
			<path class="st2" d="M224,140.3v10h-5v-18h5v2c1.5-1.5,3.2-2.3,5.1-2.3c1.9,0,3.5,0.7,4.8,2c1.3,1.3,1.9,3.1,1.9,5.4v10.9h-5
				v-10.2c0-2.8-1-4.1-3-4.1c-1,0-1.9,0.4-2.6,1.1C224.4,137.8,224,138.9,224,140.3z"/>
			<path class="st2" d="M241.1,149.9c-0.8-0.6-1.2-1.3-1.2-2.2c0-0.9,0.3-1.6,0.9-2.2c0.6-0.6,1.3-0.9,2.2-0.9
				c0.8,0,1.6,0.3,2.2,0.8c0.6,0.6,0.9,1.2,0.9,2s-0.3,1.6-1,2.7l-2,3.4h-3.3L241.1,149.9z"/>
			<path class="st2" d="M276.3,150.3l-2.2-5.1h-9.8l-2.2,5.1h-5.6l10.1-23.4h5.1l10.1,23.4H276.3z M269.3,133.9l-2.9,6.8h5.9
				L269.3,133.9z"/>
			<path class="st2" d="M297.4,147.3c-1.6,1.8-3.6,2.6-5.9,2.6c-2.4,0-4.3-0.8-6-2.4c-1.6-1.6-2.4-3.7-2.4-6.4s0.8-4.9,2.5-6.6
				c1.7-1.7,3.6-2.6,5.7-2.6c2.1,0,3.9,0.9,5.3,2.6v-2.4h5V148c0,1.6-0.3,3-0.8,4.3c-0.6,1.2-1.3,2.2-2.2,2.9
				c-1.9,1.5-4,2.2-6.6,2.2c-1.3,0-2.7-0.2-4.1-0.7c-1.4-0.4-2.6-1.1-3.7-1.9l1.9-3.8c1.7,1.2,3.4,1.9,5.2,1.9
				c1.8,0,3.3-0.5,4.4-1.4C296.9,150.7,297.4,149.3,297.4,147.3z M296.7,140.9c0-1.4-0.4-2.6-1.2-3.4c-0.8-0.8-1.8-1.2-3-1.2
				c-1.2,0-2.2,0.4-3.1,1.2c-0.9,0.8-1.3,2-1.3,3.4c0,1.4,0.4,2.6,1.3,3.5c0.8,0.9,1.9,1.3,3.1,1.3s2.2-0.4,3-1.3
				C296.3,143.5,296.7,142.4,296.7,140.9z"/>
			<path class="st2" d="M306.8,130c-0.6-0.6-0.9-1.3-0.9-2.1c0-0.8,0.3-1.5,0.9-2.1c0.6-0.6,1.3-0.9,2.1-0.9c0.8,0,1.5,0.3,2.1,0.9
				c0.6,0.6,0.9,1.3,0.9,2.1c0,0.8-0.3,1.5-0.9,2.1c-0.6,0.6-1.3,0.9-2.1,0.9C308.1,130.9,307.4,130.6,306.8,130z M311.4,150.3h-5
				v-18h5V150.3z"/>
			<path class="st2" d="M321.2,150.3h-5v-24.8h5V150.3z"/>
			<path class="st2" d="M341.5,147.7c-2,1.9-4.4,2.9-7.1,2.9s-5-0.8-6.8-2.5c-1.8-1.7-2.7-3.9-2.7-6.8c0-2.8,0.9-5.1,2.7-6.8
				s4-2.5,6.4-2.5s4.6,0.7,6.3,2.2c1.7,1.5,2.6,3.5,2.6,6.2v2.7h-13.1c0.2,1,0.7,1.8,1.5,2.4c0.9,0.6,1.9,0.9,2.9,0.9
				c1.8,0,3.2-0.6,4.4-1.8L341.5,147.7z M336.7,137c-0.7-0.6-1.5-0.9-2.5-0.9c-1,0-1.9,0.3-2.7,0.9c-0.8,0.6-1.3,1.4-1.4,2.4h7.9
				C337.8,138.4,337.4,137.6,336.7,137z"/>
			<path class="st2" d="M369.6,148.3c-1.9,1.5-4,2.3-6.5,2.3s-4.5-0.6-6.1-1.9c-1.6-1.3-2.4-3-2.4-5.2c0-2.5,1.6-4.6,4.9-6.5
				c-0.7-0.9-1.3-1.7-1.6-2.4c-0.3-0.7-0.5-1.5-0.5-2.4c0-1.9,0.7-3.3,2.1-4.4c1.4-1,3-1.5,4.9-1.5c1.9,0,3.5,0.5,4.8,1.5
				c1.3,1,2,2.3,2,4.1c0,2.2-1.6,4.2-4.8,6.1c1.3,1.6,2.2,2.7,2.8,3.4c0.6-1,1-2.1,1.3-3.2l3.9,2.8c-0.5,1.4-1.1,2.7-1.9,3.9
				l3.3,3.3l-3.3,3.1L369.6,148.3z M360.6,145.6c0.6,0.5,1.5,0.8,2.5,0.8c1,0,2.1-0.5,3.3-1.5c-1.6-1.7-3-3.3-4.2-4.7
				c-1.7,1.1-2.6,2.2-2.6,3.4C359.6,144.5,360,145.1,360.6,145.6z M364.4,130.3c-0.5,0-0.9,0.2-1.3,0.5c-0.4,0.3-0.6,0.8-0.6,1.4
				s0.4,1.4,1.3,2.6c1.7-0.9,2.5-1.7,2.5-2.5c0-0.6-0.2-1.1-0.6-1.5C365.3,130.5,364.9,130.3,364.4,130.3z"/>
			<path class="st2" d="M393.7,131.6c-0.5,0.4-0.8,1-0.8,1.6c0,0.7,0.3,1.2,0.9,1.6s2,0.9,4.2,1.4c2.2,0.5,3.9,1.4,5.2,2.5
				c1.2,1.1,1.8,2.7,1.8,4.8c0,2.1-0.8,3.8-2.4,5.1c-1.6,1.3-3.6,2-6.2,2c-3.7,0-7-1.4-10-4.1l3.1-3.8c2.5,2.2,4.9,3.3,7,3.3
				c1,0,1.7-0.2,2.3-0.6c0.5-0.4,0.8-1,0.8-1.7c0-0.7-0.3-1.3-0.9-1.7c-0.6-0.4-1.7-0.8-3.4-1.3c-2.7-0.6-4.7-1.5-6-2.5
				c-1.3-1-1.9-2.7-1.9-4.9c0-2.2,0.8-3.9,2.4-5.1c1.6-1.2,3.6-1.8,6-1.8c1.6,0,3.1,0.3,4.7,0.8c1.6,0.5,2.9,1.3,4.1,2.3l-2.6,3.8
				c-2-1.5-4.1-2.3-6.3-2.3C394.9,131,394.2,131.2,393.7,131.6z"/>
			<path class="st2" d="M417.7,146.1c1.7,0,3.2-0.8,4.5-2.5l3,3.3c-2.3,2.4-4.8,3.6-7.5,3.6c-2.7,0-5-0.9-6.8-2.6
				c-1.9-1.7-2.8-3.9-2.8-6.7c0-2.8,0.9-5,2.8-6.7c1.9-1.7,4.1-2.6,6.7-2.6c1.3,0,2.6,0.3,3.9,0.8c1.3,0.5,2.5,1.3,3.5,2.4l-2.6,3.4
				c-0.6-0.7-1.3-1.2-2.1-1.6c-0.8-0.4-1.7-0.6-2.5-0.6c-1.3,0-2.4,0.4-3.4,1.3c-0.9,0.9-1.4,2.1-1.4,3.6s0.5,2.7,1.4,3.6
				C415.3,145.7,416.4,146.1,417.7,146.1z"/>
			<path class="st2" d="M438,136.7c-1.5,0-2.6,0.5-3.3,1.6c-0.7,1.1-1.1,2.5-1.1,4.2v7.8h-5v-18h5v2.4c0.6-0.7,1.5-1.4,2.4-1.9
				c1-0.5,2-0.8,3-0.8l0,4.7H438z"/>
			<path class="st2" d="M453.9,142v-9.7h5.1v18h-5.1v-2.4c-1.2,1.8-2.9,2.6-4.8,2.6c-2,0-3.6-0.6-5-1.9c-1.3-1.2-2-3.1-2-5.5v-10.9
				h5.1v9.8c0,2.8,1,4.1,3,4.1c1,0,1.9-0.4,2.6-1.1C453.5,144.5,453.9,143.4,453.9,142z"/>
			<path class="st2" d="M480.3,140.6v9.7h-5.1v-9.8c0-1.4-0.2-2.5-0.7-3.1c-0.4-0.7-1.1-1-2.1-1c-1,0-1.8,0.4-2.6,1.1
				s-1.1,1.8-1.1,3.2v9.7h-5v-18h5v2c1.4-1.6,3-2.3,4.8-2.3c1.1,0,2.2,0.3,3.1,1c0.9,0.7,1.6,1.5,2.1,2.4c0.7-1.1,1.6-1.9,2.8-2.5
				c1.2-0.6,2.3-0.9,3.5-0.9c2.1,0,3.8,0.6,5.1,1.9c1.3,1.3,1.9,3.1,1.9,5.5v10.9H487v-9.8c0-2.8-1-4.1-3-4.1c-1,0-1.9,0.4-2.6,1.1
				S480.3,139.2,480.3,140.6z"/>
		</g>
		<circle class="st3" cx="354.1" cy="248.3" r="3.5"/>
		<rect x="306.9" y="245.3" class="st4" width="37.6" height="6.1"/>
	</g>
	<g id="Vivi_2_">
		
			<ellipse transform="matrix(0.9999 -1.572977e-02 1.572977e-02 0.9999 -1.6537 1.0133)" class="st5" cx="63.6" cy="105.6" rx="47.1" ry="57"/>
		<path class="st6" d="M45,133.5l41.8,0.7c0,0-6,14.6-20.6,14.6S45,133.5,45,133.5z"/>
		<g id="Bügel_2_">
			
				<rect x="22.1" y="102.8" transform="matrix(0.7071 -0.7071 0.7071 0.7071 -70.1236 48.1861)" class="st7" width="2" height="11.8"/>
			
				<rect x="101.8" y="109.8" transform="matrix(0.8026 -0.5966 0.5966 0.8026 -45.2644 84.7672)" class="st7" width="7.2" height="2"/>
			<path class="st7" d="M72.5,113.8c0,0-4-2.5-7.6-2.5c-3.6,0-7.5,2.5-7.6,2.5l-1.1-1.7c0.2-0.1,4.4-2.8,8.7-2.8
				c4.2,0,8.5,2.7,8.7,2.8L72.5,113.8z"/>
		</g>
		<path id="Haare_2_" class="st8" d="M104.4,126.5c0,0,10.3-10.9,11.4-16.8c2.4-1.2,13,1.2,21.2-13c-1.2,1.2-16.5,7.1-22.4,1.2
			c1.2-2.4,7.2-26.6-21.1-51.3s-55.3-2.4-55.3-2.4s-12.9-5.9-24.7,25.9s-2.7,44.4-2.7,44.4l3.1,6.3c0,0,6,10.7,9.5,14.2
			c0-3.5-6-16.6-3.7-21.3c2.4-4.7,14.1-20,17.7-35.3c1.2,1.2,22.4,22.4,42.4,22.4c-2.4-1.2-16.5-9.4-18.8-13
			c1.2,0,27.1,17.7,44.7,20C108.1,111.5,106.1,120,104.4,126.5z"/>
		<g id="Mütze_2_">
			<path class="st9" d="M8.2,78.8c0,0,1.3-9.9,2-13.9c0.7-4,8.6-32.5,8.6-35.8s-2-25.2,19.2-28.5s25.2,9.3,26.5,11.3
				c1.3,2,8.6,10.6,11.9,13.3s13.9,10.6,17.9,14.6c4,4,17.2,18.6,19.9,25.9C117,72.8,8.2,78.8,8.2,78.8z"/>
			<path class="st10" d="M124.8,84.2L2.2,104.3c-1.2,0.2-2.3-0.7-2.2-2l0.6-22.7c0-0.9,0.7-1.7,1.6-1.9l113-17.7
				c0.9-0.1,1.7,0.3,2.1,1.1l9,20.2C126.7,82.6,126,84,124.8,84.2z"/>
		</g>
		<polygon class="st5" points="74.2,172.6 55.6,172.6 55.6,160 72.9,159.3 		"/>
		<g class="st11">
			<image style="overflow:visible;" width="88" height="88" xlink:href="E1837C1A.png"  transform="matrix(1 0 0 1 -11 82.1)">
			</image>
		</g>
		<g class="st11">
			<image style="overflow:visible;" width="89" height="88" xlink:href="E1837C1F.png"  transform="matrix(1 0 0 1 52 81.1)">
			</image>
		</g>
		<circle class="st12" cx="42" cy="114.6" r="5"/>
		<circle class="st12" cx="87.8" cy="114.6" r="5"/>
		<g id="Gläser_2_">
			<path class="st7" d="M55.8,124.4H28.3c-1.1,0-2-0.9-2-2v-15.6c0-1.1,0.9-2,2-2h27.5c1.1,0,2,0.9,2,2v15.6
				C57.8,123.5,56.9,124.4,55.8,124.4z M28.3,106.8v15.6h27.5l0-15.6H28.3z"/>
			<path class="st7" d="M101.5,124.4H74c-1.1,0-2-0.9-2-2v-15.6c0-1.1,0.9-2,2-2h27.5c1.1,0,2,0.9,2,2v15.6
				C103.5,123.5,102.6,124.4,101.5,124.4z M74,106.8v15.6h27.5l0-15.6H74z"/>
		</g>
		<g id="Arme_2_">
			<g>
				<path class="st5" d="M23.1,307.3c-4.7,0-9.4,0-14.1,0c-9.2-32.4-7.4-67.6,5.6-100.1c4.1,1.6,8.1,3.2,12.3,4.8
					C15.6,243.2,14.3,276.5,23.1,307.3z"/>
			</g>
			<path class="st5" d="M102,219.3c0,0,10.2,40.9,33.6,42.3c23.4,1.5,39.4-27.7,48.2-46.7c-2.9-1.5-12.5-5.1-12.5-5.1
				s-17.5,39.4-33.5,38c-16.1-1.5-23.4-35-23.4-35L102,219.3z"/>
		</g>
		<path id="Dekolte_2_" class="st5" d="M51.3,170.3c0,0,8.7-1.3,13.3-1.3c7.7,0,14.6,1.3,14.6,1.3s1.8,20.1-13.2,20.1
			S51.3,170.3,51.3,170.3z"/>
		<g id="Schuh_rechts_2_">
			<path class="st13" d="M92.7,452.8c0.1,0.3,0.2,0.7,0.3,1h-23c0.1-0.5,0.2-0.9,0.2-1c0,0,0,0,0,0c0.2-0.5,0.3-1.1,0.5-1.6l0.7-2
				l5.6-14.5c0.3-0.8,1.1-1.4,2-1.4h4.9c0.9,0,1.7,0.5,2,1.4l5.6,14.5l0.7,2C92.3,451.7,92.5,452.3,92.7,452.8
				C92.7,452.8,92.7,452.8,92.7,452.8z"/>
			<path class="st4" d="M93.2,456.2c0,0.3,0,0.5,0,0.8H69.7c0-0.3,0-0.5,0-0.8c0-0.7,0.2-1.6,0.3-2.4c0.1-0.5,0.2-0.9,0.2-1
				c0,0,0,0,0,0c0.2-0.5,0.3-1.1,0.5-1.6l0.7-2c1.4-2.9,3.7-4.8,10-4.8s8.7,1.9,10,4.8l0.7,2c0.2,0.5,0.3,1,0.5,1.6c0,0,0,0,0,0
				c0.1,0.3,0.2,0.7,0.3,1C93.1,454.6,93.2,455.4,93.2,456.2z"/>
			<path class="st14" d="M93.2,456.2v0.8H69.6v-0.8c0-0.7,0.2-1.6,0.3-2.4c0.1-0.5,0.2-0.9,0.2-1c0,0,0,0,0,0
				c0.3-0.3,0.8-0.5,1.2-0.5h20c0.5,0,0.9,0.2,1.2,0.5c0,0,0,0,0,0c0.1,0.3,0.2,0.7,0.3,1C93.1,454.6,93.2,455.4,93.2,456.2z"/>
			<path class="st14" d="M85.4,445c-0.2,0-0.4-0.2-0.5-0.4c-0.4-0.3-2.3-0.6-3.5-0.7c-3-0.4-4.4-0.7-4.4-1.6s1.4-1.2,4.4-1.6
				c1.1-0.2,2.6-0.4,3.3-0.6c-0.7-0.2-2.2-0.5-3.3-0.6c-3-0.4-4.4-0.7-4.4-1.6c0-1,1.4-1.2,4.4-1.6c1.1-0.2,2.6-0.4,3.3-0.6
				c-0.7-0.2-2.2-0.5-3.3-0.6c-3-0.4-4.4-0.7-4.4-1.6c0-1,1.4-1.2,4.4-1.6c1.1-0.2,2.6-0.4,3.3-0.6c-0.7-0.2-2.2-0.5-3.3-0.6
				c-3-0.4-4.4-0.7-4.4-1.6c0-1,1.4-1.2,4.4-1.6c1.3-0.2,3.1-0.4,3.5-0.7c0.1-0.2,0.3-0.4,0.5-0.4c0.3,0,0.5,0.2,0.5,0.5
				c0,1-1.4,1.2-4.4,1.6c-1.1,0.2-2.6,0.4-3.3,0.6c0.7,0.2,2.2,0.5,3.3,0.6c3,0.4,4.4,0.7,4.4,1.6c0,1-1.4,1.2-4.4,1.6
				c-1.1,0.2-2.6,0.4-3.3,0.6c0.7,0.2,2.2,0.5,3.3,0.6c3,0.4,4.4,0.7,4.4,1.6c0,1-1.4,1.2-4.4,1.6c-1.1,0.2-2.6,0.4-3.3,0.6
				c0.7,0.2,2.2,0.5,3.3,0.6c3,0.4,4.4,0.7,4.4,1.6s-1.4,1.2-4.4,1.6c-1.1,0.2-2.6,0.4-3.3,0.6c0.7,0.2,2.2,0.5,3.3,0.6
				c3,0.4,4.4,0.7,4.4,1.6C85.9,444.8,85.6,445,85.4,445z"/>
		</g>
		<g id="Schuh_links_2_">
			<path class="st13" d="M48.8,452.8c0.1,0.3,0.2,0.7,0.3,1h-23c0.1-0.5,0.2-0.9,0.2-1c0,0,0,0,0,0c0.2-0.5,0.3-1.1,0.5-1.6l0.7-2
				l5.6-14.5c0.3-0.8,1.1-1.4,2-1.4H40c0.9,0,1.7,0.5,2,1.4l5.6,14.5l0.7,2C48.5,451.7,48.7,452.3,48.8,452.8
				C48.8,452.8,48.8,452.8,48.8,452.8z"/>
			<path class="st4" d="M49.3,456.2c0,0.3,0,0.5,0,0.8H25.8c0-0.3,0-0.5,0-0.8c0-0.7,0.2-1.6,0.3-2.4c0.1-0.5,0.2-0.9,0.2-1
				c0,0,0,0,0,0c0.2-0.5,0.3-1.1,0.5-1.6l0.7-2c1.4-2.9,3.7-4.8,10-4.8s8.7,1.9,10,4.8l0.7,2c0.2,0.5,0.3,1,0.5,1.6c0,0,0,0,0,0
				c0.1,0.3,0.2,0.7,0.3,1C49.2,454.6,49.3,455.4,49.3,456.2z"/>
			<path class="st14" d="M49.3,456.2v0.8H25.8v-0.8c0-0.7,0.2-1.6,0.3-2.4c0.1-0.5,0.2-0.9,0.2-1c0,0,0,0,0,0
				c0.3-0.3,0.8-0.5,1.2-0.5h20c0.5,0,0.9,0.2,1.2,0.5c0,0,0,0,0,0c0.1,0.3,0.2,0.7,0.3,1C49.2,454.6,49.3,455.4,49.3,456.2z"/>
			<path class="st14" d="M41.5,445c-0.2,0-0.4-0.2-0.5-0.4c-0.4-0.3-2.3-0.6-3.5-0.7c-3-0.4-4.4-0.7-4.4-1.6s1.4-1.2,4.4-1.6
				c1.1-0.2,2.6-0.4,3.3-0.6c-0.7-0.2-2.2-0.5-3.3-0.6c-3-0.4-4.4-0.7-4.4-1.6c0-1,1.4-1.2,4.4-1.6c1.1-0.2,2.6-0.4,3.3-0.6
				c-0.7-0.2-2.2-0.5-3.3-0.6c-3-0.4-4.4-0.7-4.4-1.6c0-1,1.4-1.2,4.4-1.6c1.1-0.2,2.6-0.4,3.3-0.6c-0.7-0.2-2.2-0.5-3.3-0.6
				c-3-0.4-4.4-0.7-4.4-1.6c0-1,1.4-1.2,4.4-1.6c1.3-0.2,3.1-0.4,3.5-0.7c0.1-0.2,0.3-0.4,0.5-0.4c0.3,0,0.5,0.2,0.5,0.5
				c0,1-1.4,1.2-4.4,1.6c-1.1,0.2-2.6,0.4-3.3,0.6c0.7,0.2,2.2,0.5,3.3,0.6c3,0.4,4.4,0.7,4.4,1.6c0,1-1.4,1.2-4.4,1.6
				c-1.1,0.2-2.6,0.4-3.3,0.6c0.7,0.2,2.2,0.5,3.3,0.6c3,0.4,4.4,0.7,4.4,1.6c0,1-1.4,1.2-4.4,1.6c-1.1,0.2-2.6,0.4-3.3,0.6
				c0.7,0.2,2.2,0.5,3.3,0.6c3,0.4,4.4,0.7,4.4,1.6s-1.4,1.2-4.4,1.6c-1.1,0.2-2.6,0.4-3.3,0.6c0.7,0.2,2.2,0.5,3.3,0.6
				c3,0.4,4.4,0.7,4.4,1.6C42,444.8,41.8,445,41.5,445z"/>
		</g>
		<path class="st10" d="M99.2,289.3H28.5v148.1h17.4V302h26.8v135.6h17.4V301.5C95.5,300.1,99.2,295.2,99.2,289.3z"/>
		<path id="Shirt_2_" class="st15" d="M28.5,216.2v74.9h70.8v-68.5l21.6-7.8c0,0-0.6-35.1-43.2-44.9c0,1.2,1.2,16.7-12.7,16.7
			s-13.2-16.7-13.2-16.7s-30.5,5.8-42,35.7C11,206.2,28.5,216.2,28.5,216.2z"/>
	</g>
</g>
</svg>
