<svg xmlns="http://www.w3.org/2000/svg" id="Ebene_1" viewBox="0 0 561.4 457.1"><style>.st0{fill:#3F3F3F;} .st1{fill:#010B16;} .st2{fill:#42BDE2;} .st3{fill:#B73B04;} .st4{fill:#CCCCCC;} .st5{fill:#FDCFB0;} .st6{fill:#FFFFFF;} .st7{fill:#021A30;} .st8{fill:#872E02;} .st9{fill:#053159;} .st10{fill:#07406B;} .st11{fill:#5E3505;} .st12{fill:#3A3A3C;} .st13{fill:#EAEAEA;} .st14{fill:#AF6D25;}</style><g id="Illustration_x5F_Scrum"><g id="TV_1_"><path d="M90 24.1h471.2v233.4H90z" class="st0"/><path d="M125.9 42h399.5v197.6H125.9z" class="st1"/><path d="M159.9 150.3v-23.4h5.2v18.7h10v4.7h-15.2zm34.1-2.6c-2 1.9-4.4 2.9-7.1 2.9-2.7 0-5-.8-6.8-2.5s-2.7-3.9-2.7-6.8c0-2.8.9-5.1 2.7-6.8s4-2.5 6.4-2.5 4.6.7 6.3 2.2 2.6 3.5 2.6 6.2v2.7h-13.1c.2 1 .7 1.8 1.5 2.4.9.6 1.9.9 2.9.9 1.8 0 3.2-.6 4.4-1.8l2.9 3.1zm-4.8-10.7c-.7-.6-1.5-.9-2.5-.9s-1.9.3-2.7.9c-.8.6-1.3 1.4-1.4 2.4h7.9c-.2-1-.6-1.8-1.3-2.4zm25.2 13.3h-4.7v-2.2c-1.3 1.6-2.9 2.4-4.8 2.4s-3.5-.6-4.8-1.7c-1.3-1.1-1.9-2.6-1.9-4.4 0-1.8.7-3.2 2-4.1 1.3-.9 3.2-1.4 5.5-1.4h3.7v-.1c0-1.9-1-2.9-3-2.9-.9 0-1.8.2-2.8.5s-1.8.8-2.5 1.3l-2.2-3.2c2.4-1.7 5.1-2.6 8.1-2.6 2.2 0 4 .5 5.4 1.6s2.1 2.8 2.1 5.2v11.6h-.1zm-5-6.8v-.9h-3.1c-2 0-3 .6-3 1.9 0 .6.2 1.1.7 1.5.5.3 1.2.5 2.1.5.9 0 1.7-.3 2.4-.8.5-.6.9-1.3.9-2.2zm14.6-3.2v10h-5v-18h5v2c1.5-1.5 3.2-2.3 5.1-2.3 1.9 0 3.5.7 4.8 2s1.9 3.1 1.9 5.4v10.9h-5v-10.2c0-2.8-1-4.1-3-4.1-1 0-1.9.4-2.6 1.1-.8.7-1.2 1.8-1.2 3.2zm17.1 9.6c-.8-.6-1.2-1.3-1.2-2.2s.3-1.6.9-2.2c.6-.6 1.3-.9 2.2-.9.8 0 1.6.3 2.2.8.6.6.9 1.2.9 2s-.3 1.6-1 2.7l-2 3.4h-3.3l1.3-3.6zm35.2.4l-2.2-5.1h-9.8l-2.2 5.1h-5.6l10.1-23.4h5.1l10.1 23.4h-5.5zm-7-16.4l-2.9 6.8h5.9l-3-6.8zm28.1 13.4c-1.6 1.8-3.6 2.6-5.9 2.6-2.4 0-4.3-.8-6-2.4-1.6-1.6-2.4-3.7-2.4-6.4s.8-4.9 2.5-6.6c1.7-1.7 3.6-2.6 5.7-2.6s3.9.9 5.3 2.6v-2.4h5V148c0 1.6-.3 3-.8 4.3-.6 1.2-1.3 2.2-2.2 2.9-1.9 1.5-4 2.2-6.6 2.2-1.3 0-2.7-.2-4.1-.7-1.4-.4-2.6-1.1-3.7-1.9l1.9-3.8c1.7 1.2 3.4 1.9 5.2 1.9 1.8 0 3.3-.5 4.4-1.4 1.2-.8 1.7-2.2 1.7-4.2zm-.7-6.4c0-1.4-.4-2.6-1.2-3.4-.8-.8-1.8-1.2-3-1.2s-2.2.4-3.1 1.2-1.3 2-1.3 3.4.4 2.6 1.3 3.5c.8.9 1.9 1.3 3.1 1.3s2.2-.4 3-1.3c.8-.9 1.2-2 1.2-3.5zm10.1-10.9c-.6-.6-.9-1.3-.9-2.1s.3-1.5.9-2.1 1.3-.9 2.1-.9 1.5.3 2.1.9.9 1.3.9 2.1-.3 1.5-.9 2.1-1.3.9-2.1.9-1.5-.3-2.1-.9zm4.6 20.3h-5v-18h5v18zm9.8 0h-5v-24.8h5v24.8zm20.3-2.6c-2 1.9-4.4 2.9-7.1 2.9s-5-.8-6.8-2.5-2.7-3.9-2.7-6.8c0-2.8.9-5.1 2.7-6.8s4-2.5 6.4-2.5 4.6.7 6.3 2.2c1.7 1.5 2.6 3.5 2.6 6.2v2.7h-13.1c.2 1 .7 1.8 1.5 2.4.9.6 1.9.9 2.9.9 1.8 0 3.2-.6 4.4-1.8l2.9 3.1zm-4.8-10.7c-.7-.6-1.5-.9-2.5-.9s-1.9.3-2.7.9c-.8.6-1.3 1.4-1.4 2.4h7.9c-.2-1-.6-1.8-1.3-2.4zm32.9 11.3c-1.9 1.5-4 2.3-6.5 2.3s-4.5-.6-6.1-1.9c-1.6-1.3-2.4-3-2.4-5.2 0-2.5 1.6-4.6 4.9-6.5-.7-.9-1.3-1.7-1.6-2.4-.3-.7-.5-1.5-.5-2.4 0-1.9.7-3.3 2.1-4.4 1.4-1 3-1.5 4.9-1.5s3.5.5 4.8 1.5c1.3 1 2 2.3 2 4.1 0 2.2-1.6 4.2-4.8 6.1 1.3 1.6 2.2 2.7 2.8 3.4.6-1 1-2.1 1.3-3.2l3.9 2.8c-.5 1.4-1.1 2.7-1.9 3.9l3.3 3.3-3.3 3.1-2.9-3zm-9-2.7c.6.5 1.5.8 2.5.8s2.1-.5 3.3-1.5c-1.6-1.7-3-3.3-4.2-4.7-1.7 1.1-2.6 2.2-2.6 3.4 0 .9.4 1.5 1 2zm3.8-15.3c-.5 0-.9.2-1.3.5s-.6.8-.6 1.4.4 1.4 1.3 2.6c1.7-.9 2.5-1.7 2.5-2.5 0-.6-.2-1.1-.6-1.5-.4-.3-.8-.5-1.3-.5zm29.3 1.3c-.5.4-.8 1-.8 1.6 0 .7.3 1.2.9 1.6s2 .9 4.2 1.4 3.9 1.4 5.2 2.5c1.2 1.1 1.8 2.7 1.8 4.8s-.8 3.8-2.4 5.1-3.6 2-6.2 2c-3.7 0-7-1.4-10-4.1l3.1-3.8c2.5 2.2 4.9 3.3 7 3.3 1 0 1.7-.2 2.3-.6.5-.4.8-1 .8-1.7s-.3-1.3-.9-1.7-1.7-.8-3.4-1.3c-2.7-.6-4.7-1.5-6-2.5s-1.9-2.7-1.9-4.9.8-3.9 2.4-5.1c1.6-1.2 3.6-1.8 6-1.8 1.6 0 3.1.3 4.7.8s2.9 1.3 4.1 2.3l-2.6 3.8c-2-1.5-4.1-2.3-6.3-2.3-.8 0-1.5.2-2 .6zm24 14.5c1.7 0 3.2-.8 4.5-2.5l3 3.3c-2.3 2.4-4.8 3.6-7.5 3.6s-5-.9-6.8-2.6c-1.9-1.7-2.8-3.9-2.8-6.7s.9-5 2.8-6.7 4.1-2.6 6.7-2.6c1.3 0 2.6.3 3.9.8s2.5 1.3 3.5 2.4l-2.6 3.4c-.6-.7-1.3-1.2-2.1-1.6-.8-.4-1.7-.6-2.5-.6-1.3 0-2.4.4-3.4 1.3-.9.9-1.4 2.1-1.4 3.6s.5 2.7 1.4 3.6c.9.9 2 1.3 3.3 1.3zm20.3-9.4c-1.5 0-2.6.5-3.3 1.6-.7 1.1-1.1 2.5-1.1 4.2v7.8h-5v-18h5v2.4c.6-.7 1.5-1.4 2.4-1.9 1-.5 2-.8 3-.8v4.7h-1zm15.9 5.3v-9.7h5.1v18h-5.1v-2.4c-1.2 1.8-2.9 2.6-4.8 2.6-2 0-3.6-.6-5-1.9-1.3-1.2-2-3.1-2-5.5v-10.9h5.1v9.8c0 2.8 1 4.1 3 4.1 1 0 1.9-.4 2.6-1.1.7-.5 1.1-1.6 1.1-3zm26.4-1.4v9.7h-5.1v-9.8c0-1.4-.2-2.5-.7-3.1-.4-.7-1.1-1-2.1-1s-1.8.4-2.6 1.1-1.1 1.8-1.1 3.2v9.7h-5v-18h5v2c1.4-1.6 3-2.3 4.8-2.3 1.1 0 2.2.3 3.1 1s1.6 1.5 2.1 2.4c.7-1.1 1.6-1.9 2.8-2.5 1.2-.6 2.3-.9 3.5-.9 2.1 0 3.8.6 5.1 1.9 1.3 1.3 1.9 3.1 1.9 5.5v10.9h-5v-9.8c0-2.8-1-4.1-3-4.1-1 0-1.9.4-2.6 1.1s-1.1 1.6-1.1 3z" class="st2"/><circle cx="354.1" cy="248.3" r="3.5" class="st3"/><path d="M306.9 245.3h37.6v6.1h-37.6z" class="st4"/></g><g id="Vivi_2_"><ellipse cx="63.6" cy="105.6" transform="matrix(.9999 -.01573 .01573 .9999 -1.653 1.014)" class="st5" rx="47.1" ry="57"/><path d="M45 133.5l41.8.7s-6 14.6-20.6 14.6S45 133.5 45 133.5z" class="st6"/><path id="Bügel_2_" d="M18.20219 105.21907l1.4142-1.4142 8.34378 8.34378-1.4142 1.4142zm83.71767 6.94973l5.77872-4.29552 1.1932 1.6052-5.77872 4.29552zM72.5 113.8s-4-2.5-7.6-2.5-7.5 2.5-7.6 2.5l-1.1-1.7c.2-.1 4.4-2.8 8.7-2.8 4.2 0 8.5 2.7 8.7 2.8l-1.1 1.7z" class="st7"/><path id="Haare_2_" d="M104.4 126.5s10.3-10.9 11.4-16.8c2.4-1.2 13 1.2 21.2-13-1.2 1.2-16.5 7.1-22.4 1.2 1.2-2.4 7.2-26.6-21.1-51.3s-55.3-2.4-55.3-2.4-12.9-5.9-24.7 25.9-2.7 44.4-2.7 44.4l3.1 6.3s6 10.7 9.5 14.2c0-3.5-6-16.6-3.7-21.3 2.4-4.7 14.1-20 17.7-35.3 1.2 1.2 22.4 22.4 42.4 22.4-2.4-1.2-16.5-9.4-18.8-13 1.2 0 27.1 17.7 44.7 20 2.4 3.7.4 12.2-1.3 18.7z" class="st8"/><g id="Mütze_2_"><path d="M8.2 78.8s1.3-9.9 2-13.9 8.6-32.5 8.6-35.8S16.8 3.9 38 .6s25.2 9.3 26.5 11.3c1.3 2 8.6 10.6 11.9 13.3s13.9 10.6 17.9 14.6 17.2 18.6 19.9 25.9c2.8 7.1-106 13.1-106 13.1z" class="st9"/><path d="M124.8 84.2L2.2 104.3c-1.2.2-2.3-.7-2.2-2l.6-22.7c0-.9.7-1.7 1.6-1.9l113-17.7c.9-.1 1.7.3 2.1 1.1l9 20.2c.4 1.3-.3 2.7-1.5 2.9z" class="st10"/></g><path d="M74.2 172.6H55.6V160l17.3-.7z" class="st5"/><circle cx="42" cy="114.6" r="5" class="st11"/><circle cx="87.8" cy="114.6" r="5" class="st11"/><path id="Gläser_2_" d="M55.8 124.4H28.3c-1.1 0-2-.9-2-2v-15.6c0-1.1.9-2 2-2h27.5c1.1 0 2 .9 2 2v15.6c0 1.1-.9 2-2 2zm-27.5-17.6v15.6h27.5v-15.6H28.3zm73.2 17.6H74c-1.1 0-2-.9-2-2v-15.6c0-1.1.9-2 2-2h27.5c1.1 0 2 .9 2 2v15.6c0 1.1-.9 2-2 2zM74 106.8v15.6h27.5v-15.6H74z" class="st7"/><path id="Arme_2_" d="M23.1 307.3H9c-9.2-32.4-7.4-67.6 5.6-100.1 4.1 1.6 8.1 3.2 12.3 4.8-11.3 31.2-12.6 64.5-3.8 95.3zm78.9-88s10.2 40.9 33.6 42.3c23.4 1.5 39.4-27.7 48.2-46.7-2.9-1.5-12.5-5.1-12.5-5.1s-17.5 39.4-33.5 38c-16.1-1.5-23.4-35-23.4-35l-12.4 6.5z" class="st5"/><path id="Dekolte_2_" d="M51.3 170.3S60 169 64.6 169c7.7 0 14.6 1.3 14.6 1.3S81 190.4 66 190.4s-14.7-20.1-14.7-20.1z" class="st5"/><g id="Schuh_rechts_2_"><path d="M92.7 452.8c.1.3.2.7.3 1H70c.1-.5.2-.9.2-1 .2-.5.3-1.1.5-1.6l.7-2 5.6-14.5c.3-.8 1.1-1.4 2-1.4h4.9c.9 0 1.7.5 2 1.4l5.6 14.5.7 2c.1.5.3 1.1.5 1.6z" class="st12"/><path d="M93.2 456.2v.8H69.7v-.8c0-.7.2-1.6.3-2.4.1-.5.2-.9.2-1 .2-.5.3-1.1.5-1.6l.7-2c1.4-2.9 3.7-4.8 10-4.8s8.7 1.9 10 4.8l.7 2c.2.5.3 1 .5 1.6.1.3.2.7.3 1 .2.8.3 1.6.3 2.4z" class="st4"/><path d="M93.2 456.2v.8H69.6v-.8c0-.7.2-1.6.3-2.4.1-.5.2-.9.2-1 .3-.3.8-.5 1.2-.5h20c.5 0 .9.2 1.2.5.1.3.2.7.3 1 .3.8.4 1.6.4 2.4zM85.4 445c-.2 0-.4-.2-.5-.4-.4-.3-2.3-.6-3.5-.7-3-.4-4.4-.7-4.4-1.6s1.4-1.2 4.4-1.6c1.1-.2 2.6-.4 3.3-.6-.7-.2-2.2-.5-3.3-.6-3-.4-4.4-.7-4.4-1.6 0-1 1.4-1.2 4.4-1.6 1.1-.2 2.6-.4 3.3-.6-.7-.2-2.2-.5-3.3-.6-3-.4-4.4-.7-4.4-1.6 0-1 1.4-1.2 4.4-1.6 1.1-.2 2.6-.4 3.3-.6-.7-.2-2.2-.5-3.3-.6-3-.4-4.4-.7-4.4-1.6 0-1 1.4-1.2 4.4-1.6 1.3-.2 3.1-.4 3.5-.7.1-.2.3-.4.5-.4.3 0 .5.2.5.5 0 1-1.4 1.2-4.4 1.6-1.1.2-2.6.4-3.3.6.7.2 2.2.5 3.3.6 3 .4 4.4.7 4.4 1.6 0 1-1.4 1.2-4.4 1.6-1.1.2-2.6.4-3.3.6.7.2 2.2.5 3.3.6 3 .4 4.4.7 4.4 1.6 0 1-1.4 1.2-4.4 1.6-1.1.2-2.6.4-3.3.6.7.2 2.2.5 3.3.6 3 .4 4.4.7 4.4 1.6s-1.4 1.2-4.4 1.6c-1.1.2-2.6.4-3.3.6.7.2 2.2.5 3.3.6 3 .4 4.4.7 4.4 1.6 0 .3-.3.5-.5.5z" class="st13"/></g><g id="Schuh_links_2_"><path d="M48.8 452.8c.1.3.2.7.3 1h-23c.1-.5.2-.9.2-1 .2-.5.3-1.1.5-1.6l.7-2 5.6-14.5c.3-.8 1.1-1.4 2-1.4H40c.9 0 1.7.5 2 1.4l5.6 14.5.7 2c.2.5.4 1.1.5 1.6z" class="st12"/><path d="M49.3 456.2v.8H25.8v-.8c0-.7.2-1.6.3-2.4.1-.5.2-.9.2-1 .2-.5.3-1.1.5-1.6l.7-2c1.4-2.9 3.7-4.8 10-4.8s8.7 1.9 10 4.8l.7 2c.2.5.3 1 .5 1.6.1.3.2.7.3 1 .2.8.3 1.6.3 2.4z" class="st4"/><path d="M49.3 456.2v.8H25.8v-.8c0-.7.2-1.6.3-2.4.1-.5.2-.9.2-1 .3-.3.8-.5 1.2-.5h20c.5 0 .9.2 1.2.5.1.3.2.7.3 1 .2.8.3 1.6.3 2.4zM41.5 445c-.2 0-.4-.2-.5-.4-.4-.3-2.3-.6-3.5-.7-3-.4-4.4-.7-4.4-1.6s1.4-1.2 4.4-1.6c1.1-.2 2.6-.4 3.3-.6-.7-.2-2.2-.5-3.3-.6-3-.4-4.4-.7-4.4-1.6 0-1 1.4-1.2 4.4-1.6 1.1-.2 2.6-.4 3.3-.6-.7-.2-2.2-.5-3.3-.6-3-.4-4.4-.7-4.4-1.6 0-1 1.4-1.2 4.4-1.6 1.1-.2 2.6-.4 3.3-.6-.7-.2-2.2-.5-3.3-.6-3-.4-4.4-.7-4.4-1.6 0-1 1.4-1.2 4.4-1.6 1.3-.2 3.1-.4 3.5-.7.1-.2.3-.4.5-.4.3 0 .5.2.5.5 0 1-1.4 1.2-4.4 1.6-1.1.2-2.6.4-3.3.6.7.2 2.2.5 3.3.6 3 .4 4.4.7 4.4 1.6 0 1-1.4 1.2-4.4 1.6-1.1.2-2.6.4-3.3.6.7.2 2.2.5 3.3.6 3 .4 4.4.7 4.4 1.6 0 1-1.4 1.2-4.4 1.6-1.1.2-2.6.4-3.3.6.7.2 2.2.5 3.3.6 3 .4 4.4.7 4.4 1.6s-1.4 1.2-4.4 1.6c-1.1.2-2.6.4-3.3.6.7.2 2.2.5 3.3.6 3 .4 4.4.7 4.4 1.6 0 .3-.2.5-.5.5z" class="st13"/></g><path d="M99.2 289.3H28.5v148.1h17.4V302h26.8v135.6h17.4V301.5c5.4-1.4 9.1-6.3 9.1-12.2z" class="st10"/><path id="Shirt_2_" d="M28.5 216.2v74.9h70.8v-68.5l21.6-7.8s-.6-35.1-43.2-44.9c0 1.2 1.2 16.7-12.7 16.7s-13.2-16.7-13.2-16.7-30.5 5.8-42 35.7c1.2.6 18.7 10.6 18.7 10.6z" class="st14"/></g></g></svg>