<?xml version="1.0" encoding="utf-8"?>
<!-- Generator: Adobe Illustrator 21.0.2, SVG Export Plug-In . SVG Version: 6.00 Build 0)  -->
<svg version="1.1" id="Ebene_1" xmlns="http://www.w3.org/2000/svg" xmlns:xlink="http://www.w3.org/1999/xlink" x="0px" y="0px"
	 viewBox="0 0 50 52" style="enable-background:new 0 0 50 52;" xml:space="preserve">
<style type="text/css">
	.st0{fill:#FFFFFF;}
</style>
<g>
	<path class="st0" d="M11.2,17.4H0.9c-0.5,0-0.9,0.4-0.9,0.9V51c0,0.5,0.4,0.9,0.9,0.9h10.3c0.5,0,0.9-0.4,0.9-0.9V18.2
		C12.1,17.8,11.7,17.4,11.2,17.4z"/>
	<path class="st0" d="M39.4,15.7c-3.7,0-7.7,1.5-10.1,3.2v-0.7c0-0.5-0.4-0.9-0.9-0.9H18.1c-0.5,0-0.9,0.4-0.9,0.9V51
		c0,0.5,0.4,0.9,0.9,0.9h10.3c0.5,0,0.9-0.4,0.9-0.9V28.1c2.5-2.3,5.8-2.7,7.4-0.9c0.8,0.9,1.2,2.3,1.2,3.9V51
		c0,0.5,0.4,0.9,0.9,0.9h10.3c0.5,0,0.9-0.4,0.9-0.9V28.6C49.8,17.4,43.3,15.7,39.4,15.7z"/>
	<circle class="st0" cx="6" cy="6.2" r="6"/>
</g>
</svg>
