<?xml version="1.0" encoding="utf-8"?>
<!-- Generator: Adobe Illustrator 21.0.2, SVG Export Plug-In . SVG Version: 6.00 Build 0)  -->
<svg version="1.1" id="Ebene_1" xmlns="http://www.w3.org/2000/svg" xmlns:xlink="http://www.w3.org/1999/xlink" x="0px" y="0px"
	 viewBox="0 0 50 50" style="enable-background:new 0 0 50 50;" xml:space="preserve">
<style type="text/css">
	.st0{fill:#FFFFFF;}
</style>
<path class="st0" d="M50,8.9c-1,0.5-3.9,1.8-5.4,1.8c1.6-0.6,3-3.3,3.6-5.4c-2.3,1.6-5.9,2.4-5.9,2.4C38.1,4.4,32,4.6,28.1,8.5
	C25.9,10.8,24.8,14,25,17C15.3,16.4,9.4,10.4,5.4,5.4c-3.5,6-1,12.7,1.8,14.3c-1.7,0.3-3.9-0.6-5.4-1.8c0,6.8,6.9,10.5,8.9,10.7
	c-1.2,1-3.2,0.7-5.4,0c2,4.4,6.4,7,10.7,7.1C12.6,38.8,5.6,40.8,0,40.2c25.4,14.3,48.4-8.7,46.4-25.9C47.7,13.4,48.6,11.1,50,8.9z"
	/>
</svg>
