<?xml version="1.0" encoding="utf-8"?>
<!-- Generator: Adobe Illustrator 21.0.2, SVG Export Plug-In . SVG Version: 6.00 Build 0)  -->
<svg version="1.1" id="Ebene_1" xmlns="http://www.w3.org/2000/svg" xmlns:xlink="http://www.w3.org/1999/xlink" x="0px" y="0px"
	 viewBox="0 0 50 52" style="enable-background:new 0 0 50 52;" xml:space="preserve">
<style type="text/css">
	.st0{fill:#FFFFFF;}
</style>
<g>
	<path class="st0" d="M49.9,0.6c-0.2-0.3-0.4-0.4-0.7-0.4H38.8c-0.3,0-0.6,0.2-0.8,0.4l-17.2,31c-0.2,0.3-0.1,0.6,0,0.9l12.1,19
		c0.2,0.2,0.4,0.4,0.7,0.4H44c0.3,0,0.6-0.2,0.8-0.4c0.2-0.3,0.1-0.6,0-0.9L32.9,32l17-30.6C50,1.2,50,0.8,49.9,0.6z"/>
	<path class="st0" d="M13.6,9.1c-0.2-0.2-0.4-0.4-0.7-0.4H2.6C2.3,8.8,2,8.9,1.8,9.2c-0.1,0.3-0.1,0.6,0,0.9l6.6,10l-8.3,15
		c-0.1,0.3-0.1,0.6,0,0.9c0.2,0.3,0.4,0.4,0.7,0.4h10.3c0.3,0,0.6-0.2,0.8-0.4l8.6-15.5c0.2-0.3,0.1-0.6,0-0.9L13.6,9.1z"/>
</g>
</svg>
